<svg width="357" height="171" viewBox="0 0 357 171" fill="none" xmlns="http://www.w3.org/2000/svg">
<path d="M207.488 42.0559C206.643 40.0293 204.663 38.7091 202.467 38.7091C200.272 38.7091 198.292 40.0293 197.447 42.0559L177.053 91.0027C175.897 93.7752 177.209 96.9594 179.981 98.1146C182.754 99.2698 185.938 97.9587 187.093 95.1861L192.497 82.2174H212.438L217.842 95.1861C218.997 97.9587 222.181 99.2698 224.954 98.1146C227.726 96.9594 229.037 93.7752 227.882 91.0027L207.488 42.0559ZM207.906 71.3403H197.029L202.467 58.2878L207.906 71.3403Z" fill="#CAECFF"/>
<path d="M200.71 98.5327C204.597 98.5327 207.748 101.684 207.748 105.571V123.77L209.809 121.708C212.558 118.96 217.014 118.96 219.763 121.708C222.511 124.457 222.511 128.913 219.763 131.662L205.687 145.738C202.938 148.486 198.482 148.486 195.733 145.738L181.657 131.662C178.909 128.913 178.909 124.457 181.657 121.708C184.406 118.96 188.862 118.96 191.611 121.708L193.672 123.77V105.571C193.672 101.684 196.823 98.5327 200.71 98.5327Z" fill="#CAECFF"/>
<path d="M256.678 140.761C256.678 144.648 259.829 147.799 263.716 147.799C267.603 147.799 270.754 144.648 270.754 140.761V122.562L272.815 124.623C275.564 127.372 280.02 127.372 282.769 124.623C285.517 121.875 285.517 117.419 282.769 114.67L268.692 100.594C265.944 97.8455 261.488 97.8455 258.739 100.594L244.663 114.67C241.915 117.419 241.915 121.875 244.663 124.623C247.412 127.372 251.868 127.372 254.616 124.623L256.678 122.562V140.761Z" fill="#CAECFF"/>
<path d="M254.518 91.3734L254.519 91.3722L266.121 75.6597H274.293V90.4785C274.293 92.1298 274.755 93.5323 275.647 94.5287C276.544 95.5319 277.829 96.0692 279.356 96.0692C280.903 96.0692 282.19 95.5494 283.085 94.5483C283.973 93.5551 284.419 92.1502 284.419 90.4785V46.3897C284.419 43.9813 283.788 42.1088 282.369 40.8526C280.964 39.6086 278.886 39.0587 276.192 39.0587H264.537C258.012 39.0587 252.62 40.8103 248.85 43.9887C245.07 47.1752 242.966 51.7575 242.966 57.3065C242.966 61.47 244.144 65.0945 246.386 67.9863C248.495 70.7058 251.523 72.7483 255.33 73.9901L245.713 86.7285C243.95 88.9728 243.336 90.3018 243.336 92.0079C243.336 94.4178 245.325 96.0692 247.871 96.0692C249.158 96.0692 250.148 95.8552 251.174 95.1118C252.158 94.3986 253.151 93.2138 254.518 91.3734ZM264.8 67.3262C261.147 67.3262 258.206 66.336 256.188 64.6355C254.179 62.9427 253.04 60.5103 253.04 57.5174C253.04 54.4978 254.193 52.0238 256.205 50.2974C258.225 48.5644 261.152 47.5505 264.748 47.5505H274.293V67.3262H264.8Z" fill="#CAECFF" stroke="#CAECFF" stroke-width="1.05571"/>
<path d="M136.214 43.0107C135.344 36.6044 129.853 31.6667 123.208 31.6667H102.792C96.147 31.6667 90.6556 36.6044 89.7865 43.0107L89.7017 43.8L89.7471 43.3301L79.4583 43.3334C72.2096 43.3334 66.3333 49.2096 66.3333 56.4584V135.208C66.3333 142.457 72.2096 148.333 79.4583 148.333H146.542C153.79 148.333 159.667 142.457 159.667 135.208V56.4584C159.667 49.2096 153.79 43.3334 146.542 43.3334L136.253 43.3301L136.293 43.8L136.214 43.0107ZM102.792 40.4167H123.208C125.625 40.4167 127.583 42.3754 127.583 44.7917C127.583 47.2079 125.625 49.1667 123.208 49.1667H102.792C100.375 49.1667 98.4167 47.2079 98.4167 44.7917C98.4167 42.3754 100.375 40.4167 102.792 40.4167ZM89.6667 72.5H136.333C138.75 72.5 140.708 74.4588 140.708 76.875C140.708 79.2913 138.75 81.25 136.333 81.25H89.6667C87.2504 81.25 85.2917 79.2913 85.2917 76.875C85.2917 74.4588 87.2504 72.5 89.6667 72.5ZM108.625 100.208C108.625 97.7921 110.584 95.8334 113 95.8334H136.333C138.75 95.8334 140.708 97.7921 140.708 100.208C140.708 102.625 138.75 104.583 136.333 104.583H113C110.584 104.583 108.625 102.625 108.625 100.208ZM101.333 119.167H136.333C138.75 119.167 140.708 121.125 140.708 123.542C140.708 125.958 138.75 127.917 136.333 127.917H101.333C98.9171 127.917 96.9583 125.958 96.9583 123.542C96.9583 121.125 98.9171 119.167 101.333 119.167Z" fill="#498BDF"/>
<path fill-rule="evenodd" clip-rule="evenodd" d="M56.588 13.4316C72.8859 13.4316 86.0979 26.6437 86.0979 42.9415C86.0979 59.2394 72.8859 72.4514 56.588 72.4514C40.2902 72.4514 27.0781 59.2394 27.0781 42.9415C27.0781 26.6437 40.2902 13.4316 56.588 13.4316ZM61.3997 36.5969L57.5527 28.7867C57.1586 27.9866 56.0178 27.9866 55.6238 28.7867L51.7768 36.5969L43.1601 37.842C42.2774 37.9696 41.9249 39.0546 42.564 39.6766L48.8032 45.7487L47.3247 54.3285C47.1732 55.2074 48.0962 55.878 48.8853 55.4623L56.5882 51.4049L64.2912 55.4623C65.08 55.8778 66.0026 55.2081 65.8519 54.3294L64.3806 45.7487L70.6129 39.6762C71.2515 39.0539 70.8988 37.9696 70.0164 37.842L61.3997 36.5969Z" fill="#FFCE38"/>
</svg>
