<svg width="58" height="59" viewBox="0 0 58 59" fill="none" xmlns="http://www.w3.org/2000/svg">
<rect x="0.875641" y="1.37573" width="56.25" height="56.25" rx="6.8892" fill="white" stroke="#498BDF" stroke-width="1.5625"/>
<path d="M0.0943909 8.40576C0.0943909 4.09104 3.59217 0.593262 7.90689 0.593262H50.0944C54.4091 0.593262 57.9069 4.09104 57.9069 8.40576V24.0308H0.0943909V8.40576Z" fill="#498BDF"/>
<rect x="35.2331" y="36.2839" width="2.87642" height="2.87642" rx="0.958807" fill="#498BDF"/>
<rect x="35.2331" y="42.0369" width="2.87642" height="2.87642" rx="0.958807" fill="#498BDF"/>
<rect x="35.2331" y="47.7896" width="2.87642" height="2.87642" rx="0.958807" fill="#498BDF"/>
<rect x="40.9849" y="36.2839" width="2.87642" height="2.87642" rx="0.958807" fill="#498BDF"/>
<rect x="40.9849" y="42.0369" width="2.87642" height="2.87642" rx="0.958807" fill="#498BDF"/>
<rect x="40.9849" y="47.7896" width="2.87642" height="2.87642" rx="0.958807" fill="#498BDF"/>
<rect x="46.737" y="36.2839" width="2.87642" height="2.87642" rx="0.958807" fill="#498BDF"/>
<rect x="46.737" y="42.0369" width="2.87642" height="2.87642" rx="0.958807" fill="#498BDF"/>
<rect x="46.737" y="47.7896" width="2.87642" height="2.87642" rx="0.958807" fill="#498BDF"/>
<path d="M20.0766 17.8182H18.3565V11.8352L14.4551 17.8182H12.735V8.84375H14.4551V14.8267L18.3565 8.84375H20.0766V17.8182Z" fill="white"/>
<path d="M27.8858 18.0051C27.3706 18.0051 26.899 17.9013 26.4711 17.6935C26.0431 17.4816 25.6837 17.1742 25.3929 16.7712C25.1021 16.3681 24.9068 15.8779 24.8071 15.3004H23.4983V17.8182H21.8031V11.0874H23.4983V13.6052H24.8071C24.9068 13.0194 25.1021 12.527 25.3929 12.1281C25.6879 11.7251 26.0514 11.4197 26.4835 11.212C26.9198 11.0043 27.3997 10.9004 27.9232 10.9004C28.588 10.9004 29.1738 11.0541 29.6807 11.3616C30.1876 11.6649 30.5844 12.0845 30.871 12.6205C31.1577 13.1523 31.3011 13.7589 31.3011 14.4403C31.3011 15.1425 31.1556 15.7615 30.8648 16.2975C30.574 16.8335 30.171 17.2531 29.6558 17.5564C29.1447 17.8556 28.5547 18.0051 27.8858 18.0051ZM27.8733 16.4222C28.4218 16.4222 28.831 16.2393 29.1011 15.8737C29.3711 15.5039 29.5062 15.0303 29.5062 14.4528C29.5062 13.8462 29.3691 13.3663 29.0949 13.0131C28.8248 12.66 28.4176 12.4834 27.8733 12.4834C27.3249 12.4834 26.9219 12.6641 26.6643 13.0256C26.4067 13.3871 26.2779 13.8586 26.2779 14.4403C26.2779 15.0511 26.4129 15.5351 26.683 15.8924C26.953 16.2456 27.3498 16.4222 27.8733 16.4222Z" fill="white"/>
<path d="M32.6609 17.8182V11.0874H34.356V13.655H37.1232V11.0874H38.8183V17.8182H37.1232V15.238H34.356V17.8182H32.6609Z" fill="white"/>
<path d="M40.5486 17.8182V11.0874H42.2437V13.2313H43.3281C43.5151 13.2313 43.7332 13.2354 43.9825 13.2437C44.2318 13.252 44.4375 13.2728 44.5995 13.306C44.9942 13.3933 45.3266 13.5325 45.5967 13.7236C45.8667 13.9147 46.0703 14.1619 46.2074 14.4652C46.3487 14.7644 46.4193 15.1217 46.4193 15.5372C46.4193 16.1355 46.2635 16.6174 45.9519 16.9831C45.6445 17.3445 45.1978 17.5938 44.612 17.7309C44.4499 17.7683 44.2422 17.7933 43.9888 17.8057C43.7353 17.814 43.5151 17.8182 43.3281 17.8182H40.5486ZM42.2437 16.5094H43.5151C43.5899 16.5094 43.673 16.5053 43.7644 16.4969C43.8558 16.4886 43.9472 16.472 44.0386 16.4471C44.2131 16.3972 44.3668 16.2871 44.4998 16.1168C44.6327 15.9464 44.6992 15.7532 44.6992 15.5372C44.6992 15.3004 44.6307 15.0988 44.4936 14.9327C44.3565 14.7623 44.1965 14.6522 44.0137 14.6023C43.9264 14.5774 43.8392 14.5608 43.7519 14.5525C43.6647 14.5442 43.5857 14.54 43.5151 14.54H42.2437V16.5094Z" fill="white"/>
<path d="M7.31705 47.1353V44.9124L13.0062 39.8638C13.4332 39.487 13.7346 39.1322 13.9104 38.7994C14.0862 38.4666 14.1741 38.1558 14.1741 37.8669C14.1741 37.4525 14.0894 37.0852 13.9198 36.7649C13.7503 36.4384 13.5117 36.1841 13.204 36.002C12.8963 35.8136 12.5352 35.7194 12.1208 35.7194C11.6875 35.7194 11.3045 35.8199 10.9716 36.0208C10.6451 36.2155 10.3908 36.4761 10.2087 36.8026C10.0266 37.1228 9.94183 37.4713 9.95439 37.8481H7.31705C7.31705 36.9187 7.52113 36.115 7.92929 35.4368C8.33745 34.7586 8.90573 34.2343 9.63414 33.8638C10.3625 33.4933 11.2103 33.3081 12.1773 33.3081C13.0627 33.3081 13.8539 33.5028 14.5509 33.8921C15.2542 34.2751 15.8068 34.812 16.2086 35.5027C16.6105 36.1935 16.8115 36.9941 16.8115 37.9046C16.8115 38.5765 16.7173 39.1354 16.5289 39.5812C16.3405 40.0208 16.0611 40.4289 15.6906 40.8057C15.3201 41.1762 14.8649 41.5969 14.3248 42.0678L10.6514 45.2892L10.4442 44.724H16.8115V47.1353H7.31705Z" fill="#498BDF"/>
<path d="M24.2146 47.1541V45.0443H18.3182V42.6518L22.5945 33.5907H25.5332L21.257 42.6518H24.2146V39.261H26.8142V42.6518H28.0199V45.0443H26.8142V47.1541H24.2146Z" fill="#498BDF"/>
</svg>
