<svg width="27" height="34" viewBox="0 0 27 34" fill="none" xmlns="http://www.w3.org/2000/svg">
<path fill-rule="evenodd" clip-rule="evenodd" d="M8.60486 0.119629H5.05905V5.43833H5.0584V7.21124L7.83966 11.4493C7.57295 11.9474 7.4217 12.5165 7.4217 13.121H19.2411C19.2411 12.5169 19.09 11.9481 18.8236 11.4503L21.6055 7.21124V5.43833L21.6073 5.43834V0.119629H18.0615V5.43834H15.1061V0.119629H11.5603V5.43834L8.60486 5.43833V0.119629ZM7.42112 15.4848H19.2405L23.9682 26.1223H2.69337L7.42112 15.4848ZM0.330078 30.85C0.330078 29.5445 1.38842 28.4861 2.69395 28.4861H23.9688C25.2743 28.4861 26.3327 29.5445 26.3327 30.85C26.3327 32.1555 25.2743 33.2139 23.9688 33.2139H2.69395C1.38842 33.2139 0.330078 32.1555 0.330078 30.85Z" fill="#FF9C38"/>
</svg>
