<svg width="62" height="69" viewBox="0 0 62 69" fill="none" xmlns="http://www.w3.org/2000/svg">
<circle cx="31.3333" cy="15.1902" r="5.46875" fill="#498BDF"/>
<mask id="path-2-inside-1_903_1030" fill="white">
<path d="M4.77083 32.3745H57.1146C57.5461 32.3745 57.8958 32.7243 57.8958 33.1558V58.8518C57.8958 64.0765 53.6603 68.312 48.4356 68.312H14.2311C9.00632 68.312 4.77083 64.0765 4.77083 58.8518V32.3745Z"/>
</mask>
<path d="M4.77083 32.3745H57.1146C57.5461 32.3745 57.8958 32.7243 57.8958 33.1558V58.8518C57.8958 64.0765 53.6603 68.312 48.4356 68.312H14.2311C9.00632 68.312 4.77083 64.0765 4.77083 58.8518V32.3745Z" fill="white" stroke="#498BDF" stroke-width="3.125" mask="url(#path-2-inside-1_903_1030)"/>
<path d="M1.64583 24.3777C1.64583 21.0295 4.3601 18.3152 7.70833 18.3152H54.9583C58.3066 18.3152 61.0208 21.0295 61.0208 24.3777V31.7839C61.0208 32.9748 60.0554 33.9402 58.8646 33.9402H3.80208C2.61121 33.9402 1.64583 32.9748 1.64583 31.7839V24.3777Z" fill="#FFC422" stroke="#498BDF" stroke-width="1.5625"/>
<path fill-rule="evenodd" clip-rule="evenodd" d="M36.8021 15.1875L36.8021 68.3125H25.8646L25.8646 15.1875H36.8021Z" fill="#498BDF"/>
<path d="M46.638 4.0673L31.3333 18.3152H54.7708L51.8597 5.668C51.3152 3.30261 48.4145 2.41341 46.638 4.0673Z" fill="#498BDF"/>
<path d="M16.0287 4.0673L31.3333 18.3152H7.89583L10.8069 5.668C11.3514 3.30261 14.2521 2.41341 16.0287 4.0673Z" fill="#498BDF"/>
</svg>
