<svg width="29" height="37" viewBox="0 0 29 37" fill="none" xmlns="http://www.w3.org/2000/svg">
<path d="M2.44489 32H24.2227L26.6671 36.6667H0.667114L2.44489 32Z" fill="#498BDF"/>
<path fill-rule="evenodd" clip-rule="evenodd" d="M21.7409 4.02306C24.6789 -0.408628 23.519 -0.802305 18.0753 1.0258C4.80989 2.80787 -0.00114441 14 4.07425 29.3333H21.916C22.9074 29.3333 23.552 28.2898 23.1083 27.4033L21.7409 24.6709L17.0745 15.6791C19.1677 15.7129 19.5455 15.5599 21.3323 14.6667C23.9798 17.1445 26.3941 16.5759 27.9855 15.3624C28.464 14.9975 28.5226 14.3233 28.2065 13.8112C25.4293 9.31304 23.5518 6.51031 21.7409 4.02306ZM18.7428 9.01846C19.4791 9.01846 20.0761 8.42205 20.0761 7.68634C20.0761 6.95063 19.4791 6.35422 18.7428 6.35422C18.0064 6.35422 17.4094 6.95063 17.4094 7.68634C17.4094 8.42205 18.0064 9.01846 18.7428 9.01846Z" fill="#498BDF"/>
</svg>
