<svg width="57" height="69" viewBox="0 0 57 69" fill="none" xmlns="http://www.w3.org/2000/svg">
<path d="M11.0952 65.9201L11.0889 41.1402L45.4634 41.1401L45.461 65.9203V65.9204C45.461 67.5015 43.9278 68.0958 42.9996 67.3961L28.9801 56.8279L28.2745 56.296L27.569 56.8281L13.5569 67.3958C12.6287 68.0959 11.0952 67.5017 11.0952 65.9204L11.0952 65.9201Z" fill="#498BDF" stroke="#498BDF" stroke-width="2.34375"/>
<path d="M28.2761 1.68701C43.1619 1.68701 55.2292 13.7543 55.2292 28.6401C55.2292 43.5259 43.1619 55.5933 28.2761 55.5933C13.3903 55.5933 1.32294 43.5259 1.32294 28.6401C1.32294 13.7543 13.3903 1.68701 28.2761 1.68701Z" fill="white" stroke="#498BDF" stroke-width="1.5625"/>
<path d="M33.1232 23.0592L29.249 14.8205C28.8521 13.9765 27.7032 13.9765 27.3063 14.8205L23.432 23.0592L14.754 24.3727C13.865 24.5073 13.51 25.6517 14.1537 26.3079L20.4372 32.7132L18.9482 41.7637C18.7957 42.6909 19.7252 43.3982 20.5199 42.9597L28.2776 38.6797L36.0353 42.9597C36.8297 43.398 37.7589 42.6915 37.6072 41.7646L36.1254 32.7132L42.402 26.3075C43.0451 25.6511 42.6899 24.5072 41.8012 24.3727L33.1232 23.0592Z" fill="#498BDF"/>
</svg>
