<svg width="21" height="37" viewBox="0 0 21 37" fill="none" xmlns="http://www.w3.org/2000/svg">
<path fill-rule="evenodd" clip-rule="evenodd" d="M11.9444 4.10454C12.3113 3.76236 12.5407 3.27467 12.5407 2.7334C12.5407 1.69814 11.7014 0.858887 10.6662 0.858887C9.6309 0.858887 8.79166 1.69814 8.79166 2.7334C8.79166 3.27513 9.02146 3.7632 9.38891 4.10542C7.64787 5.60559 5.04361 9.08892 5.04361 11.9909C5.04361 14.1124 5.82255 15.2626 7.04837 15.8657C6.2725 15.9569 5.67056 16.6167 5.67056 17.4171C5.67056 18.2798 6.36993 18.9792 7.23265 18.9792H14.1059C14.9686 18.9792 15.668 18.2798 15.668 17.4171C15.668 16.6155 15.0642 15.955 14.2867 15.8653C15.5121 15.2621 16.2907 14.1119 16.2907 11.9909C16.2907 10.7152 15.7875 9.32725 15.0755 8.04477L14.2013 8.91904C13.2252 9.89509 11.6427 9.89509 10.6667 8.91904L13.6571 5.92856C13.071 5.18738 12.4685 4.55603 11.9444 4.10454ZM7.48827 18.9792H13.8502C13.8502 18.9792 15.2655 23.9518 17.0312 26.1648C17.3822 26.6046 17.8481 27.0622 18.2953 27.4637C19.181 28.2589 19.7578 29.3667 19.7578 30.557V32.7256H19.7341C20.249 32.7289 20.6654 33.1472 20.6654 33.6628C20.6654 34.1805 20.2457 34.6001 19.7281 34.6001H19.7578V36.4746H1.58072V34.6001H1.60782C1.09019 34.6001 0.670563 34.1805 0.670563 33.6628C0.670563 33.1472 1.08692 32.7289 1.60178 32.7256H1.58072V30.7133C1.58072 29.4364 2.24612 28.2639 3.22771 27.4472C3.69588 27.0576 4.17549 26.6111 4.53449 26.1648C6.27339 24.003 7.48827 18.9792 7.48827 18.9792Z" fill="#498BDF"/>
</svg>
