<svg width="123" height="125" viewBox="0 0 123 125" fill="none" xmlns="http://www.w3.org/2000/svg">
<path d="M90.3642 84.0628C94.5965 75.8824 97.1582 68.0325 97.2165 63.0639C97.3389 52.643 93.4545 45.3339 90.1744 41.0371C86.5786 36.3276 82.9569 34.1097 82.5558 33.8725L68.3611 91.0063L80.0375 99.0256L81.5366 97.4384C83.9803 94.8512 87.6927 89.2261 90.3642 84.0628Z" fill="#1B3C66"/>
<path d="M65.5112 108.828C65.4469 108.607 64.9071 106.599 65.3983 103.348C65.8862 100.121 67.5161 94.9811 72.5111 88.8214C83.4444 75.3385 89.0157 63.8732 89.5431 53.7707C89.9644 45.7018 86.9406 39.9598 84.6879 36.3961C86.9239 31.5993 85.9294 27.5814 84.5965 24.9519C83.0633 21.9278 80.7984 20.1863 80.5454 19.9977L78.0398 18.1318L72.8946 25.5066C71.4875 25.0229 70.0258 24.7051 68.5248 24.5577C61.0801 23.8271 53.1781 24.4157 47.4082 24.8458C44.45 25.0662 41.8952 25.2567 40.373 25.1976C38.3088 25.1174 36.3617 25.8538 34.8902 27.2711C33.4557 28.6527 32.6591 30.5023 32.6366 32.4943C32.4897 34.3012 32.1948 41.3394 36.1595 44.0635C36.5284 44.317 36.9346 44.5334 37.3808 44.7046L46.457 48.1007C49.6648 49.3312 49.8823 49.6477 50.5271 50.5848C51.1839 51.54 52.1767 52.9832 54.6893 55.1603C54.8249 55.2778 54.962 55.3932 55.1002 55.507C53.0643 56.6501 50.2696 58.0994 47.6784 59.4434C42.6352 62.0587 36.3588 65.3136 30.0176 69.0322C23.8098 72.6727 21.8606 76.6617 20.8133 78.8047C20.7079 79.0205 20.5767 79.2891 20.4733 79.4831L16.2773 81.4814L60.9739 112.201L68.8939 117.704L65.5112 108.828Z" fill="#F1F7FF"/>
<path d="M40.4067 25.4703L40.4067 25.4703C38.4072 25.3901 36.5254 26.0987 35.1041 27.4648L34.9275 27.2818L35.1041 27.4648C33.7185 28.7963 32.9509 30.5787 32.9316 32.5018L32.9315 32.5109L32.9308 32.5201C32.8591 33.4141 32.7529 35.6017 33.1552 37.8983C33.5591 40.2042 34.4649 42.5593 36.3663 43.864C36.7195 44.1063 37.1084 44.3135 37.5361 44.4778C37.5365 44.4779 37.537 44.4781 37.5374 44.4783L46.6426 47.8872L46.6446 47.888C48.2519 48.5049 49.1364 48.9018 49.7009 49.2701C50.2822 49.6493 50.5232 49.9986 50.8481 50.4694L50.852 50.475L50.6351 50.6242L50.852 50.4751L50.8542 50.4781C51.5062 51.4231 52.4901 52.849 54.9882 55.0093C55.1225 55.1254 55.2582 55.2397 55.3955 55.3522L55.6932 55.5962L55.3569 55.7844C53.3119 56.9287 50.5065 58.3776 47.911 59.7182C42.8563 62.329 36.5717 65.5753 30.2237 69.2845C24.0716 72.8794 22.1494 76.8124 21.1123 78.9345L21.1096 78.9399C21.0049 79.1544 20.8714 79.4276 20.7654 79.6265L20.7245 79.7033L20.6458 79.7407L16.8527 81.5394L38.854 96.64L85.74 28.6812C85.4947 27.3232 85.04 26.1299 84.5343 25.1368L84.5343 25.1368C83.0193 22.1608 80.7823 20.4446 80.5421 20.2659C80.5421 20.2659 80.5421 20.2659 80.542 20.2659L78.2448 18.5575L73.2501 25.7079L73.1363 25.871L72.9481 25.8062C71.5559 25.3273 70.1094 25.0117 68.6241 24.8643C61.1829 24.1265 53.281 24.7033 47.4916 25.1266L47.4737 25.128C44.5229 25.3437 41.9492 25.532 40.4067 25.4703Z" fill="#ABD0FF"/>
<path d="M40.4067 25.4703L40.4067 25.4703C38.4072 25.3901 36.5254 26.0987 35.1041 27.4648L34.9275 27.2818L35.1041 27.4648C33.7185 28.7963 32.9509 30.5787 32.9316 32.5018L32.9315 32.5109L32.9308 32.5201C32.8591 33.4141 32.7529 35.6017 33.1552 37.8983C33.5591 40.2042 34.4649 42.5593 36.3663 43.864C36.7195 44.1063 37.1084 44.3135 37.5361 44.4778C37.5365 44.4779 37.537 44.4781 37.5374 44.4783L46.6426 47.8872L46.6446 47.888C48.2519 48.5049 49.1364 48.9018 49.7009 49.2701C50.2822 49.6493 50.5232 49.9986 50.8481 50.4694L50.852 50.475L50.6351 50.6242L50.852 50.4751L50.8542 50.4781C51.5062 51.4231 52.4901 52.849 54.9882 55.0093C55.1225 55.1254 55.2582 55.2397 55.3955 55.3522L55.6932 55.5962L55.3569 55.7844C53.3119 56.9287 50.5065 58.3776 47.911 59.7182C42.8563 62.329 36.5717 65.5753 30.2237 69.2845C24.0716 72.8794 22.1494 76.8124 21.1123 78.9345L21.1096 78.9399C21.0049 79.1544 20.8714 79.4276 20.7654 79.6265L20.7245 79.7033L20.6458 79.7407L16.8527 81.5394L38.854 96.64L85.74 28.6812C85.4947 27.3232 85.04 26.1299 84.5343 25.1368L84.5343 25.1368C83.0193 22.1608 80.7823 20.4446 80.5421 20.2659C80.5421 20.2659 80.5421 20.2659 80.542 20.2659L78.2448 18.5575L73.2501 25.7079L73.1363 25.871L72.9481 25.8062C71.5559 25.3273 70.1094 25.0117 68.6241 24.8643C61.1829 24.1265 53.281 24.7033 47.4916 25.1266L47.4737 25.128C44.5229 25.3437 41.9492 25.532 40.4067 25.4703Z" stroke="url(#paint0_radial_801_5079)" stroke-width="0.526079"/>
<path d="M40.4067 25.4703L40.4067 25.4703C38.4072 25.3901 36.5254 26.0987 35.1041 27.4648L34.9275 27.2818L35.1041 27.4648C33.7185 28.7963 32.9509 30.5787 32.9316 32.5018L32.9315 32.5109L32.9308 32.5201C32.8591 33.4141 32.7529 35.6017 33.1552 37.8983C33.5591 40.2042 34.4649 42.5593 36.3663 43.864C36.7195 44.1063 37.1084 44.3135 37.5361 44.4778C37.5365 44.4779 37.537 44.4781 37.5374 44.4783L46.6426 47.8872L46.6446 47.888C48.2519 48.5049 49.1364 48.9018 49.7009 49.2701C50.2822 49.6493 50.5232 49.9986 50.8481 50.4694L50.852 50.475L50.6351 50.6242L50.852 50.4751L50.8542 50.4781C51.5062 51.4231 52.4901 52.849 54.9882 55.0093C55.1225 55.1254 55.2582 55.2397 55.3955 55.3522L55.6932 55.5962L55.3569 55.7844C53.3119 56.9287 50.5065 58.3776 47.911 59.7182C42.8563 62.329 36.5717 65.5753 30.2237 69.2845C24.0716 72.8794 22.1494 76.8124 21.1123 78.9345L21.1096 78.9399C21.0049 79.1544 20.8714 79.4276 20.7654 79.6265L20.7245 79.7033L20.6458 79.7407L16.8527 81.5394L38.854 96.64L85.74 28.6812C85.4947 27.3232 85.04 26.1299 84.5343 25.1368L84.5343 25.1368C83.0193 22.1608 80.7823 20.4446 80.5421 20.2659C80.5421 20.2659 80.5421 20.2659 80.542 20.2659L78.2448 18.5575L73.2501 25.7079L73.1363 25.871L72.9481 25.8062C71.5559 25.3273 70.1094 25.0117 68.6241 24.8643C61.1829 24.1265 53.281 24.7033 47.4916 25.1266L47.4737 25.128C44.5229 25.3437 41.9492 25.532 40.4067 25.4703Z" stroke="url(#paint1_radial_801_5079)" stroke-width="0.526079"/>
<path d="M71.7712 102.238L23.1957 68.7917C20.4183 66.8793 16.6278 67.5601 14.7451 70.3003L8.53763 79.3349L67.1793 119.712L73.3867 110.678C75.2695 107.937 74.5487 104.15 71.7712 102.238Z" fill="#4F9BFA" stroke="url(#paint2_radial_801_5079)" stroke-width="0.526079"/>
<path d="M23.3608 68.5776L47.1661 84.9575L37.2362 99.3896L8.17346 79.3921L14.5343 70.1472C16.5023 67.2869 20.4619 66.5829 23.3608 68.5776Z" fill="#1B3C66"/>
<path d="M62.4726 41.5634C63.7749 42.4586 65.7988 42.1896 66.65 40.8252C67.504 39.4564 67.2438 37.6235 65.8481 36.6641C64.5458 35.7689 62.5219 36.0379 61.6707 37.4023C60.8167 38.7711 61.0767 40.6039 62.4726 41.5634Z" fill="#1B3C66"/>
<path opacity="0.89" d="M62.9851 39.2345C63.6777 39.7106 64.7541 39.5676 65.2068 38.842C65.661 38.1141 65.5225 37.1393 64.7802 36.629C64.0875 36.1529 63.0111 36.2959 62.5585 37.0215C62.1043 37.7494 62.2427 38.7241 62.9851 39.2345Z" fill="url(#paint3_radial_801_5079)"/>
<path d="M73.6349 119.68L6.25064 73.2476L2.88273 78.1589L70.267 124.591L73.6349 119.68Z" fill="#1B3C66"/>
<path d="M39.4453 96.1113L6.25266 73.2485L2.88376 78.1562L36.0764 101.019L39.4453 96.1113Z" fill="#1B3C66"/>
<defs>
<radialGradient id="paint0_radial_801_5079" cx="0" cy="0" r="1" gradientUnits="userSpaceOnUse" gradientTransform="translate(54.0448 56.8659) rotate(-156.932) scale(52.5777 24.9844)">
<stop stop-color="#3773C0"/>
<stop offset="1" stop-opacity="0"/>
</radialGradient>
<radialGradient id="paint1_radial_801_5079" cx="0" cy="0" r="1" gradientUnits="userSpaceOnUse" gradientTransform="translate(68.6233 21.208) rotate(145.048) scale(26.878 13.184)">
<stop stop-color="white"/>
<stop offset="1" stop-color="white" stop-opacity="0"/>
</radialGradient>
<radialGradient id="paint2_radial_801_5079" cx="0" cy="0" r="1" gradientUnits="userSpaceOnUse" gradientTransform="translate(73.513 103.476) rotate(129.818) scale(8.8558 36.2479)">
<stop stop-color="#245089"/>
<stop offset="1" stop-color="#245089" stop-opacity="0"/>
</radialGradient>
<radialGradient id="paint3_radial_801_5079" cx="0" cy="0" r="1" gradientUnits="userSpaceOnUse" gradientTransform="translate(63.8826 37.9317) rotate(124.565) scale(1.582 1.60823)">
<stop offset="0.436076" stop-color="white"/>
<stop offset="1" stop-color="white" stop-opacity="0"/>
</radialGradient>
</defs>
</svg>
