<svg width="408" height="319" viewBox="0 0 408 319" fill="none" xmlns="http://www.w3.org/2000/svg">
<mask id="path-1-inside-1_1005_3752" fill="white">
<path fill-rule="evenodd" clip-rule="evenodd" d="M11.7126 297.785L49.7269 297.785C49.3825 299.142 49.3275 300.319 49.6141 301.409C55.5123 303.198 59.2303 305.81 59.2303 308.721C59.2303 308.969 59.2032 309.216 59.1499 309.46C59.1767 309.474 59.2036 309.488 59.2305 309.502L59.1404 309.502C57.9783 314.529 45.6978 318.485 30.7196 318.485C15.7414 318.485 3.46086 314.529 2.29876 309.502L2.20897 309.502C2.2359 309.488 2.26277 309.475 2.28958 309.461C2.23607 309.217 2.20884 308.97 2.20884 308.721C2.20884 305.813 5.91972 303.203 11.808 301.414C12.0656 300.339 12.0238 299.156 11.7126 297.785Z"/>
</mask>
<path fill-rule="evenodd" clip-rule="evenodd" d="M11.7126 297.785L49.7269 297.785C49.3825 299.142 49.3275 300.319 49.6141 301.409C55.5123 303.198 59.2303 305.81 59.2303 308.721C59.2303 308.969 59.2032 309.216 59.1499 309.46C59.1767 309.474 59.2036 309.488 59.2305 309.502L59.1404 309.502C57.9783 314.529 45.6978 318.485 30.7196 318.485C15.7414 318.485 3.46086 314.529 2.29876 309.502L2.20897 309.502C2.2359 309.488 2.26277 309.475 2.28958 309.461C2.23607 309.217 2.20884 308.97 2.20884 308.721C2.20884 305.813 5.91972 303.203 11.808 301.414C12.0656 300.339 12.0238 299.156 11.7126 297.785Z" fill="#4F9BFA"/>
<path d="M49.7269 297.785L49.7269 297.094L50.6156 297.094L50.397 297.955L49.7269 297.785ZM11.7126 297.785L11.0384 297.938L10.8466 297.094L11.7126 297.094L11.7126 297.785ZM49.6141 301.409L49.4134 302.07L49.0438 301.958L48.9455 301.585L49.6141 301.409ZM59.1499 309.46L58.8281 310.072L58.3621 309.826L58.4745 309.312L59.1499 309.46ZM59.2305 309.502L59.5518 308.89L59.2305 310.193L59.2305 309.502ZM59.1404 309.502L58.4668 309.346L58.5906 308.811L59.1404 308.811L59.1404 309.502ZM2.29876 309.502L2.29876 308.811L2.84852 308.811L2.97234 309.346L2.29876 309.502ZM2.20897 309.502L2.20897 310.193L1.89691 308.885L2.20897 309.502ZM2.28958 309.461L2.96492 309.313L3.07935 309.836L2.60212 310.078L2.28958 309.461ZM11.808 301.414L12.4803 301.575L12.3879 301.96L12.0089 302.075L11.808 301.414ZM49.7269 298.477L11.7126 298.477L11.7126 297.094L49.7269 297.094L49.7269 298.477ZM48.9455 301.585C48.6203 300.348 48.6935 299.047 49.0568 297.615L50.397 297.955C50.0715 299.238 50.0347 300.29 50.2827 301.233L48.9455 301.585ZM58.539 308.721C58.539 307.583 57.8117 306.383 56.2212 305.199C54.6427 304.024 52.3217 302.952 49.4134 302.07L49.8147 300.747C52.8047 301.654 55.2918 302.783 57.0468 304.09C58.7899 305.387 59.9217 306.948 59.9217 308.721L58.539 308.721ZM58.4745 309.312C58.5174 309.116 58.539 308.919 58.539 308.721L59.9217 308.721C59.9217 309.02 59.889 309.316 59.8253 309.607L58.4745 309.312ZM58.9091 310.114C58.882 310.1 58.855 310.086 58.8281 310.072L59.4718 308.848C59.4984 308.862 59.5251 308.876 59.5518 308.89L58.9091 310.114ZM59.1404 308.811L59.2305 308.811L59.2305 310.193L59.1404 310.193L59.1404 308.811ZM30.7196 317.793C38.1549 317.793 44.8964 316.811 49.9016 315.22C52.406 314.424 54.4481 313.484 55.9208 312.459C57.405 311.426 58.2317 310.364 58.4668 309.346L59.814 309.658C59.4681 311.154 58.3239 312.471 56.7106 313.594C55.0858 314.725 52.9037 315.716 50.3205 316.537C45.1504 318.181 38.2624 319.176 30.7196 319.176L30.7196 317.793ZM2.97234 309.346C3.20749 310.364 4.03418 311.426 5.51837 312.459C6.99109 313.484 9.03313 314.424 11.5376 315.22C16.5428 316.811 23.2843 317.793 30.7196 317.793L30.7196 319.176C23.1767 319.176 16.2888 318.181 11.1187 316.537C8.53548 315.716 6.35335 314.725 4.72857 313.594C3.11525 312.471 1.97109 311.154 1.62519 309.658L2.97234 309.346ZM2.20897 308.811L2.29876 308.811L2.29876 310.193L2.20897 310.193L2.20897 308.811ZM2.60212 310.078C2.57515 310.092 2.54811 310.105 2.52103 310.119L1.89691 308.885C1.92369 308.872 1.9504 308.858 1.97704 308.845L2.60212 310.078ZM2.90017 308.721C2.90017 308.919 2.92181 309.116 2.96492 309.313L1.61424 309.609C1.55033 309.317 1.5175 309.021 1.5175 308.721L2.90017 308.721ZM12.0089 302.075C9.10565 302.957 6.78894 304.028 5.21338 305.202C3.62605 306.385 2.90017 307.585 2.90017 308.721L1.5175 308.721C1.5175 306.95 2.64707 305.39 4.38724 304.093C6.13918 302.788 8.62203 301.659 11.607 300.752L12.0089 302.075ZM12.3867 297.632C12.7138 299.072 12.7697 300.368 12.4803 301.575L11.1357 301.253C11.3615 300.311 11.3339 299.24 11.0384 297.938L12.3867 297.632Z" fill="url(#paint0_radial_1005_3752)" mask="url(#path-1-inside-1_1005_3752)"/>
<path d="M0.0371094 312.627L61.1784 312.728L61.1428 318.68L0.00147414 318.579L0.0371094 312.627Z" fill="#1B3C66"/>
<circle r="13.6695" transform="matrix(-1 8.74228e-08 8.74228e-08 1 30.7211 244.67)" fill="#C4C4C4"/>
<circle r="13.6695" transform="matrix(-1 8.74228e-08 8.74228e-08 1 30.7211 244.67)" fill="#F1F7FF"/>
<mask id="path-5-inside-2_1005_3752" fill="white">
<path fill-rule="evenodd" clip-rule="evenodd" d="M17.4983 241.183C18.9825 236.415 23.4308 232.953 28.6875 232.953C35.1585 232.953 40.4043 238.198 40.4043 244.669C40.4043 251.14 35.1585 256.386 28.6876 256.386C23.4299 256.386 18.9811 252.923 17.4976 248.154C19.0381 254.016 24.3737 258.339 30.7191 258.339C38.2686 258.339 44.3887 252.219 44.3887 244.67C44.3887 237.12 38.2686 231 30.7191 231C24.3747 231 19.0398 235.322 17.4983 241.183Z"/>
</mask>
<path fill-rule="evenodd" clip-rule="evenodd" d="M17.4983 241.183C18.9825 236.415 23.4308 232.953 28.6875 232.953C35.1585 232.953 40.4043 238.198 40.4043 244.669C40.4043 251.14 35.1585 256.386 28.6876 256.386C23.4299 256.386 18.9811 252.923 17.4976 248.154C19.0381 254.016 24.3737 258.339 30.7191 258.339C38.2686 258.339 44.3887 252.219 44.3887 244.67C44.3887 237.12 38.2686 231 30.7191 231C24.3747 231 19.0398 235.322 17.4983 241.183Z" fill="#C4C4C4"/>
<path fill-rule="evenodd" clip-rule="evenodd" d="M17.4983 241.183C18.9825 236.415 23.4308 232.953 28.6875 232.953C35.1585 232.953 40.4043 238.198 40.4043 244.669C40.4043 251.14 35.1585 256.386 28.6876 256.386C23.4299 256.386 18.9811 252.923 17.4976 248.154C19.0381 254.016 24.3737 258.339 30.7191 258.339C38.2686 258.339 44.3887 252.219 44.3887 244.67C44.3887 237.12 38.2686 231 30.7191 231C24.3747 231 19.0398 235.322 17.4983 241.183Z" fill="#CFE4FF"/>
<path d="M17.4983 241.183L18.1584 241.388L16.8297 241.007L17.4983 241.183ZM17.4976 248.154L16.829 248.329L18.1577 247.948L17.4976 248.154ZM28.6875 233.644C23.742 233.644 19.5553 236.901 18.1584 241.388L16.8382 240.977C18.4098 235.928 23.1196 232.261 28.6875 232.261L28.6875 233.644ZM39.713 244.669C39.713 238.58 34.7767 233.644 28.6875 233.644L28.6875 232.261C35.5403 232.261 41.0956 237.817 41.0956 244.669L39.713 244.669ZM28.6876 255.695C34.7767 255.695 39.713 250.759 39.713 244.669L41.0956 244.669C41.0956 251.522 35.5403 257.078 28.6876 257.078L28.6876 255.695ZM18.1577 247.948C19.5539 252.437 23.7412 255.695 28.6876 255.695L28.6876 257.078C23.1186 257.078 18.4083 253.409 16.8374 248.359L18.1577 247.948ZM18.1662 247.978C19.6289 253.544 24.6956 257.648 30.7191 257.648L30.7191 259.031C24.0518 259.031 18.4473 254.488 16.829 248.329L18.1662 247.978ZM30.7191 257.648C37.8868 257.648 43.6973 251.837 43.6973 244.67L45.08 244.67C45.08 252.601 38.6504 259.031 30.7191 259.031L30.7191 257.648ZM43.6973 244.67C43.6973 237.502 37.8868 231.691 30.7191 231.691L30.7191 230.309C38.6504 230.309 45.08 236.738 45.08 244.67L43.6973 244.67ZM30.7191 231.691C24.6965 231.691 19.6305 235.794 18.1669 241.359L16.8297 241.007C18.4491 234.85 24.0529 230.309 30.7191 230.309L30.7191 231.691Z" fill="url(#paint1_radial_1005_3752)" mask="url(#path-5-inside-2_1005_3752)"/>
<ellipse rx="16.4034" ry="4.6867" transform="matrix(-1 8.74228e-08 8.74228e-08 1 30.7216 262.244)" fill="#C4C4C4"/>
<ellipse rx="16.4034" ry="4.6867" transform="matrix(-1 8.74228e-08 8.74228e-08 1 30.7216 262.244)" fill="#F1F7FF"/>
<mask id="path-8-inside-3_1005_3752" fill="white">
<path fill-rule="evenodd" clip-rule="evenodd" d="M14.3251 262.382C15.0119 264.506 19.7829 266.15 25.5664 266.15C31.8217 266.15 36.8926 264.226 36.8926 261.854C36.8926 259.761 32.9487 258.018 27.7267 257.636C28.6977 257.584 29.6987 257.558 30.7216 257.558C39.7809 257.558 47.125 259.656 47.125 262.244C47.125 264.833 39.7809 266.931 30.7216 266.931C21.8236 266.931 14.5804 264.907 14.3251 262.382Z"/>
</mask>
<path fill-rule="evenodd" clip-rule="evenodd" d="M14.3251 262.382C15.0119 264.506 19.7829 266.15 25.5664 266.15C31.8217 266.15 36.8926 264.226 36.8926 261.854C36.8926 259.761 32.9487 258.018 27.7267 257.636C28.6977 257.584 29.6987 257.558 30.7216 257.558C39.7809 257.558 47.125 259.656 47.125 262.244C47.125 264.833 39.7809 266.931 30.7216 266.931C21.8236 266.931 14.5804 264.907 14.3251 262.382Z" fill="#C4C4C4"/>
<path fill-rule="evenodd" clip-rule="evenodd" d="M14.3251 262.382C15.0119 264.506 19.7829 266.15 25.5664 266.15C31.8217 266.15 36.8926 264.226 36.8926 261.854C36.8926 259.761 32.9487 258.018 27.7267 257.636C28.6977 257.584 29.6987 257.558 30.7216 257.558C39.7809 257.558 47.125 259.656 47.125 262.244C47.125 264.833 39.7809 266.931 30.7216 266.931C21.8236 266.931 14.5804 264.907 14.3251 262.382Z" fill="#CFE4FF"/>
<path d="M14.3251 262.382L13.6372 262.452L14.9829 262.17L14.3251 262.382ZM27.7267 257.636L27.6762 258.325L27.6903 256.945L27.7267 257.636ZM14.9829 262.17C15.0916 262.506 15.3902 262.898 15.9597 263.304C16.5222 263.706 17.2969 264.083 18.2558 264.407C20.1721 265.055 22.7336 265.459 25.5664 265.459L25.5664 266.841C22.6157 266.841 19.9 266.423 17.8131 265.717C16.7705 265.365 15.8623 264.933 15.1563 264.429C14.4573 263.931 13.902 263.321 13.6673 262.595L14.9829 262.17ZM25.5664 265.459C28.6323 265.459 31.377 264.986 33.33 264.245C34.309 263.874 35.0535 263.448 35.5409 263.011C36.0288 262.574 36.2012 262.181 36.2012 261.854L37.5839 261.854C37.5839 262.713 37.1225 263.45 36.4641 264.041C35.8053 264.631 34.8911 265.132 33.8204 265.538C31.6742 266.352 28.7558 266.841 25.5664 266.841L25.5664 265.459ZM36.2012 261.854C36.2012 261.564 36.0675 261.226 35.6994 260.848C35.3282 260.467 34.7544 260.084 33.9817 259.733C32.4389 259.031 30.2332 258.512 27.6762 258.325L27.7772 256.946C30.4422 257.141 32.8194 257.685 34.5541 258.474C35.4201 258.868 36.1586 259.337 36.6901 259.883C37.2246 260.433 37.5839 261.098 37.5839 261.854L36.2012 261.854ZM30.7216 258.249C29.7107 258.249 28.7219 258.276 27.7631 258.326L27.6903 256.945C28.6736 256.893 29.6867 256.866 30.7216 256.866L30.7216 258.249ZM46.4337 262.244C46.4337 261.948 46.218 261.513 45.449 260.993C44.7041 260.49 43.5808 260.01 42.1306 259.595C39.2397 258.769 35.2058 258.249 30.7216 258.249L30.7216 256.866C35.2967 256.866 39.4645 257.395 42.5105 258.266C44.0287 258.699 45.3077 259.229 46.2229 259.847C47.114 260.449 47.8163 261.246 47.8163 262.244L46.4337 262.244ZM30.7216 266.24C35.2058 266.24 39.2397 265.72 42.1306 264.894C43.5808 264.479 44.7041 263.999 45.449 263.496C46.218 262.976 46.4337 262.541 46.4337 262.244L47.8163 262.244C47.8163 263.242 47.114 264.04 46.2229 264.642C45.3077 265.26 44.0287 265.789 42.5105 266.223C39.4645 267.093 35.2967 267.622 30.7216 267.622L30.7216 266.24ZM15.0129 262.313C15.0441 262.621 15.3153 263.065 16.1153 263.575C16.8889 264.069 18.0238 264.536 19.4676 264.937C22.3474 265.738 26.3177 266.24 30.7216 266.24L30.7216 267.622C26.2275 267.622 22.1272 267.112 19.0972 266.27C17.5859 265.849 16.3061 265.337 15.3717 264.741C14.4637 264.162 13.7338 263.406 13.6372 262.452L15.0129 262.313Z" fill="url(#paint2_radial_1005_3752)" mask="url(#path-8-inside-3_1005_3752)"/>
<path d="M40.8739 265.76L20.5649 265.76C21.1901 279.846 19.7804 286.675 15.4876 297.785L45.9512 297.785C41.5053 285.843 40.2235 278.871 40.8739 265.76Z" fill="#C4C4C4"/>
<path d="M40.8739 265.76L20.5649 265.76C21.1901 279.846 19.7804 286.675 15.4876 297.785L45.9512 297.785C41.5053 285.843 40.2235 278.871 40.8739 265.76Z" fill="#F1F7FF"/>
<mask id="path-11-inside-4_1005_3752" fill="white">
<path fill-rule="evenodd" clip-rule="evenodd" d="M30.6387 297.785L49.721 297.785C49.3766 299.142 49.3216 300.319 49.6082 301.409C55.5065 303.197 59.2246 305.81 59.2246 308.721C59.2246 308.969 59.1975 309.216 59.1442 309.46L59.2246 309.502L59.1347 309.502C57.9726 314.529 45.6921 318.485 30.7139 318.485C30.6888 318.485 30.6637 318.485 30.6387 318.485L30.6387 297.785Z"/>
</mask>
<path fill-rule="evenodd" clip-rule="evenodd" d="M30.6387 297.785L49.721 297.785C49.3766 299.142 49.3216 300.319 49.6082 301.409C55.5065 303.197 59.2246 305.81 59.2246 308.721C59.2246 308.969 59.1975 309.216 59.1442 309.46L59.2246 309.502L59.1347 309.502C57.9726 314.529 45.6921 318.485 30.7139 318.485C30.6888 318.485 30.6637 318.485 30.6387 318.485L30.6387 297.785Z" fill="#C4C4C4"/>
<path fill-rule="evenodd" clip-rule="evenodd" d="M30.6387 297.785L49.721 297.785C49.3766 299.142 49.3216 300.319 49.6082 301.409C55.5065 303.197 59.2246 305.81 59.2246 308.721C59.2246 308.969 59.1975 309.216 59.1442 309.46L59.2246 309.502L59.1347 309.502C57.9726 314.529 45.6921 318.485 30.7139 318.485C30.6888 318.485 30.6637 318.485 30.6387 318.485L30.6387 297.785Z" fill="#1B3C66"/>
<path d="M30.6387 297.785L29.9473 297.785L29.9473 297.094L30.6387 297.094L30.6387 297.785ZM49.721 297.785L49.721 297.094L50.6098 297.094L50.3911 297.955L49.721 297.785ZM49.6082 301.409L49.4076 302.07L49.0379 301.958L48.9396 301.585L49.6082 301.409ZM59.1442 309.46L58.8226 310.072L58.3563 309.827L58.4688 309.312L59.1442 309.46ZM59.2246 309.502L59.5462 308.89L59.2246 310.193L59.2246 309.502ZM59.1347 309.502L58.4611 309.346L58.5849 308.811L59.1347 308.811L59.1347 309.502ZM30.6387 318.485L30.638 319.176L29.9473 319.175L29.9473 318.485L30.6387 318.485ZM30.6387 297.094L49.721 297.094L49.721 298.477L30.6387 298.477L30.6387 297.094ZM50.3911 297.955C50.0657 299.238 50.0288 300.29 50.2768 301.233L48.9396 301.585C48.6145 300.348 48.6876 299.047 49.0509 297.615L50.3911 297.955ZM49.8089 300.747C52.7988 301.654 55.286 302.783 57.041 304.09C58.7842 305.387 59.9159 306.948 59.9159 308.721L58.5333 308.721C58.5333 307.583 57.8059 306.383 56.2155 305.199C54.6369 304.024 52.3158 302.952 49.4076 302.07L49.8089 300.747ZM59.9159 308.721C59.9159 309.02 59.8832 309.316 59.8196 309.607L58.4688 309.312C58.5117 309.116 58.5333 308.919 58.5333 308.721L59.9159 308.721ZM59.4658 308.848L59.5462 308.89L58.903 310.114L58.8226 310.072L59.4658 308.848ZM59.2246 310.193L59.1347 310.193L59.1347 308.811L59.2246 308.811L59.2246 310.193ZM59.8083 309.658C59.4624 311.154 58.3182 312.471 56.7049 313.594C55.0801 314.725 52.898 315.716 50.3147 316.537C45.1446 318.181 38.2567 319.176 30.7139 319.176L30.7139 317.793C38.1492 317.793 44.8906 316.811 49.8959 315.22C52.4003 314.424 54.4423 313.484 55.9151 312.459C57.3993 311.426 58.226 310.364 58.4611 309.346L59.8083 309.658ZM30.7139 319.176C30.6886 319.176 30.6633 319.176 30.638 319.176L30.6393 317.793C30.6641 317.793 30.689 317.793 30.7139 317.793L30.7139 319.176ZM29.9473 318.485L29.9473 297.785L31.33 297.785L31.33 318.485L29.9473 318.485Z" fill="url(#paint3_radial_1005_3752)" mask="url(#path-11-inside-4_1005_3752)"/>
<mask id="path-13-inside-5_1005_3752" fill="white">
<path fill-rule="evenodd" clip-rule="evenodd" d="M30.6367 265.76L40.87 265.76C40.2196 278.871 41.5014 285.843 45.9473 297.785L30.6368 297.785L30.6367 265.76Z"/>
</mask>
<path fill-rule="evenodd" clip-rule="evenodd" d="M30.6367 265.76L40.87 265.76C40.2196 278.871 41.5014 285.843 45.9473 297.785L30.6368 297.785L30.6367 265.76Z" fill="#C4C4C4"/>
<path fill-rule="evenodd" clip-rule="evenodd" d="M30.6367 265.76L40.87 265.76C40.2196 278.871 41.5014 285.843 45.9473 297.785L30.6368 297.785L30.6367 265.76Z" fill="#CFE4FF"/>
<path d="M40.87 265.76L40.87 265.068L41.5965 265.068L41.5605 265.794L40.87 265.76ZM30.6367 265.76L29.9454 265.76L29.9454 265.068L30.6367 265.068L30.6367 265.76ZM45.9473 297.785L46.5952 297.544L46.9423 298.477L45.9473 298.477L45.9473 297.785ZM30.6368 297.785L30.6368 298.477L29.9454 298.477L29.9454 297.785L30.6368 297.785ZM40.87 266.451L30.6367 266.451L30.6367 265.068L40.87 265.068L40.87 266.451ZM45.2994 298.027C40.8235 286.004 39.5241 278.938 40.1795 265.725L41.5605 265.794C40.9151 278.804 42.1792 285.683 46.5952 297.544L45.2994 298.027ZM30.6368 297.094L45.9473 297.094L45.9473 298.477L30.6368 298.477L30.6368 297.094ZM29.9454 297.785L29.9454 265.76L31.3281 265.76L31.3281 297.785L29.9454 297.785Z" fill="url(#paint4_radial_1005_3752)" mask="url(#path-13-inside-5_1005_3752)"/>
<path d="M40.87 265.76L40.87 265.068L41.5965 265.068L41.5605 265.794L40.87 265.76ZM30.6367 265.76L29.9454 265.76L29.9454 265.068L30.6367 265.068L30.6367 265.76ZM45.9473 297.785L46.5952 297.544L46.9423 298.477L45.9473 298.477L45.9473 297.785ZM30.6368 297.785L30.6368 298.477L29.9454 298.477L29.9454 297.785L30.6368 297.785ZM40.87 266.451L30.6367 266.451L30.6367 265.068L40.87 265.068L40.87 266.451ZM45.2994 298.027C40.8235 286.004 39.5241 278.938 40.1795 265.725L41.5605 265.794C40.9151 278.804 42.1792 285.683 46.5952 297.544L45.2994 298.027ZM30.6368 297.094L45.9473 297.094L45.9473 298.477L30.6368 298.477L30.6368 297.094ZM29.9454 297.785L29.9454 265.76L31.3281 265.76L31.3281 297.785L29.9454 297.785Z" fill="url(#paint5_radial_1005_3752)" mask="url(#path-13-inside-5_1005_3752)"/>
<path d="M226.254 108.416L181.947 120.163C199.566 156.64 200.349 180.709 190.704 229.37L272.753 207.615C241.558 169.55 228.669 148.395 226.254 108.416Z" fill="#F1F7FF"/>
<mask id="path-16-outside-6_1005_3752" maskUnits="userSpaceOnUse" x="202.082" y="100.965" width="72.9111" height="119.082" fill="black">
<rect fill="white" x="202.082" y="100.965" width="72.9111" height="119.082"/>
<path fill-rule="evenodd" clip-rule="evenodd" d="M204.105 114.287L226.254 108.415C228.669 148.393 241.558 169.548 272.753 207.614L231.733 218.489L204.105 114.287Z"/>
</mask>
<path fill-rule="evenodd" clip-rule="evenodd" d="M204.105 114.287L226.254 108.415C228.669 148.393 241.558 169.548 272.753 207.614L231.733 218.489L204.105 114.287Z" fill="#CFE4FF"/>
<path d="M226.254 108.415L225.995 107.44L227.186 107.124L227.26 108.354L226.254 108.415ZM204.105 114.287L203.131 114.545L202.872 113.571L203.847 113.312L204.105 114.287ZM272.753 207.614L273.533 206.974L274.526 208.187L273.012 208.588L272.753 207.614ZM231.733 218.489L231.992 219.464L231.017 219.723L230.759 218.748L231.733 218.489ZM226.512 109.389L204.364 115.262L203.847 113.312L225.995 107.44L226.512 109.389ZM271.973 208.253C256.371 189.215 245.285 174.333 237.807 159.178C230.314 143.994 226.461 128.576 225.247 108.475L227.26 108.354C228.461 128.232 232.26 143.38 239.615 158.285C246.984 173.218 257.94 187.947 273.533 206.974L271.973 208.253ZM231.475 217.515L272.495 206.639L273.012 208.588L231.992 219.464L231.475 217.515ZM230.759 218.748L203.131 114.545L205.08 114.028L232.708 218.231L230.759 218.748Z" fill="url(#paint6_radial_1005_3752)" mask="url(#path-16-outside-6_1005_3752)"/>
<path d="M182.102 242.743L286.779 215.269C292.679 213.721 299.075 218.072 300.926 225.174L306.945 248.271L180.617 281.426L174.598 258.329C172.748 251.227 176.202 244.291 182.102 242.743Z" fill="#4F9BFA" stroke="url(#paint7_radial_1005_3752)" stroke-width="1.0084"/>
<path d="M286.632 214.77L235.381 228.196L244.993 264.984L307.562 248.594L301.405 225.028C299.5 217.736 292.873 213.135 286.632 214.77Z" fill="#1B3C66"/>
<path d="M171.436 274.609L311.739 237.657L314.979 250.181L174.676 287.133L171.436 274.609Z" fill="#1B3C66"/>
<rect width="112.047" height="11.0349" rx="5.51747" transform="matrix(-0.966602 0.256283 0.256283 0.966602 285.891 204.135)" fill="#1B3C66"/>
<rect width="67.9074" height="11.0349" rx="5.51747" transform="matrix(-0.966602 0.256283 0.256283 0.966602 234.094 94.9236)" fill="#1B3C66"/>
<rect width="52.6282" height="11.0349" rx="5.51747" transform="matrix(-0.966602 0.256283 0.256283 0.966602 223.889 86.2156)" fill="#1B3C66"/>
<path fill-rule="evenodd" clip-rule="evenodd" d="M174.772 20.2051L182.977 18.0297L186.238 30.3314L194.448 28.1547L196.623 36.3597L188.414 38.5363L191.678 50.8494L183.473 53.0248L180.209 40.7117L172.008 42.886L169.833 34.6811L178.033 32.5068L174.772 20.2051Z" fill="#1B3C66"/>
<path d="M222.263 51.9352C222.405 49.7294 220.744 47.812 218.536 47.7218C197.285 46.8533 177.647 52.0484 158.665 63.6287C156.758 64.7922 156.239 67.3089 157.468 69.1742L176.909 98.668L219.985 87.247L222.263 51.9352Z" fill="#F1F7FF"/>
<mask id="path-26-outside-7_1005_3752" maskUnits="userSpaceOnUse" x="185.62" y="40.0146" width="47.8096" height="54.9128" fill="black">
<rect fill="white" x="185.62" y="40.0146" width="47.8096" height="54.9128"/>
<path fill-rule="evenodd" clip-rule="evenodd" d="M187.349 51.1086C197.412 48.3941 207.764 47.2778 218.53 47.7177C220.739 47.808 222.399 49.7254 222.257 51.9312L219.979 87.243L198.444 92.9528L187.349 51.1086Z"/>
</mask>
<path fill-rule="evenodd" clip-rule="evenodd" d="M187.349 51.1086C197.412 48.3941 207.764 47.2778 218.53 47.7177C220.739 47.808 222.399 49.7254 222.257 51.9312L219.979 87.243L198.444 92.9528L187.349 51.1086Z" fill="#CFE4FF"/>
<path d="M218.53 47.7177L218.571 46.7102L218.571 46.7102L218.53 47.7177ZM187.349 51.1086L186.374 51.367L186.117 50.3965L187.086 50.135L187.349 51.1086ZM222.257 51.9312L221.251 51.8663L222.257 51.9312ZM219.979 87.243L220.985 87.3079L220.938 88.0318L220.237 88.2177L219.979 87.243ZM198.444 92.9528L198.702 93.9275L197.727 94.1859L197.469 93.2112L198.444 92.9528ZM218.489 48.7253C207.821 48.2894 197.571 49.3955 187.612 52.0822L187.086 50.135C197.252 47.3927 207.707 46.2662 218.571 46.7102L218.489 48.7253ZM221.251 51.8663C221.358 50.2028 220.109 48.7915 218.489 48.7253L218.571 46.7102C221.368 46.8245 223.441 49.2481 223.263 51.9962L221.251 51.8663ZM218.972 87.178L221.251 51.8663L223.263 51.9962L220.985 87.3079L218.972 87.178ZM198.185 91.9781L219.72 86.2682L220.237 88.2177L198.702 93.9275L198.185 91.9781ZM197.469 93.2112L186.374 51.367L188.324 50.8502L199.418 92.6943L197.469 93.2112Z" fill="url(#paint8_radial_1005_3752)" mask="url(#path-26-outside-7_1005_3752)"/>
<path d="M218.53 47.7177L218.571 46.7102L218.571 46.7102L218.53 47.7177ZM187.349 51.1086L186.374 51.367L186.117 50.3965L187.086 50.135L187.349 51.1086ZM222.257 51.9312L221.251 51.8663L222.257 51.9312ZM219.979 87.243L220.985 87.3079L220.938 88.0318L220.237 88.2177L219.979 87.243ZM198.444 92.9528L198.702 93.9275L197.727 94.1859L197.469 93.2112L198.444 92.9528ZM218.489 48.7253C207.821 48.2894 197.571 49.3955 187.612 52.0822L187.086 50.135C197.252 47.3927 207.707 46.2662 218.571 46.7102L218.489 48.7253ZM221.251 51.8663C221.358 50.2028 220.109 48.7915 218.489 48.7253L218.571 46.7102C221.368 46.8245 223.441 49.2481 223.263 51.9962L221.251 51.8663ZM218.972 87.178L221.251 51.8663L223.263 51.9962L220.985 87.3079L218.972 87.178ZM198.185 91.9781L219.72 86.2682L220.237 88.2177L198.702 93.9275L198.185 91.9781ZM197.469 93.2112L186.374 51.367L188.324 50.8502L199.418 92.6943L197.469 93.2112Z" fill="url(#paint9_radial_1005_3752)" mask="url(#path-26-outside-7_1005_3752)"/>
<mask id="path-28-inside-8_1005_3752" fill="white">
<path fill-rule="evenodd" clip-rule="evenodd" d="M383.898 125.237L363.983 92.8572C365.319 92.4397 366.35 91.8699 367.128 91.055C365.562 85.0938 365.84 80.5579 368.319 79.0332C368.53 78.9029 368.755 78.797 368.99 78.7146C368.988 78.6844 368.986 78.6542 368.984 78.6239L369.031 78.7005C373.922 77.0565 383.725 85.4447 391.572 98.203C399.419 110.961 402.483 123.494 398.81 127.118L398.857 127.194C398.831 127.178 398.806 127.163 398.78 127.147C398.6 127.32 398.404 127.473 398.192 127.603C395.715 129.127 391.547 127.333 386.939 123.255C385.889 123.599 384.903 124.254 383.898 125.237Z"/>
</mask>
<path fill-rule="evenodd" clip-rule="evenodd" d="M383.898 125.237L363.983 92.8572C365.319 92.4397 366.35 91.8699 367.128 91.055C365.562 85.0938 365.84 80.5579 368.319 79.0332C368.53 78.9029 368.755 78.797 368.99 78.7146C368.988 78.6844 368.986 78.6542 368.984 78.6239L369.031 78.7005C373.922 77.0565 383.725 85.4447 391.572 98.203C399.419 110.961 402.483 123.494 398.81 127.118L398.857 127.194C398.831 127.178 398.806 127.163 398.78 127.147C398.6 127.32 398.404 127.473 398.192 127.603C395.715 129.127 391.547 127.333 386.939 123.255C385.889 123.599 384.903 124.254 383.898 125.237Z" fill="#C4C4C4"/>
<path fill-rule="evenodd" clip-rule="evenodd" d="M383.898 125.237L363.983 92.8572C365.319 92.4397 366.35 91.8699 367.128 91.055C365.562 85.0938 365.84 80.5579 368.319 79.0332C368.53 78.9029 368.755 78.797 368.99 78.7146C368.988 78.6844 368.986 78.6542 368.984 78.6239L369.031 78.7005C373.922 77.0565 383.725 85.4447 391.572 98.203C399.419 110.961 402.483 123.494 398.81 127.118L398.857 127.194C398.831 127.178 398.806 127.163 398.78 127.147C398.6 127.32 398.404 127.473 398.192 127.603C395.715 129.127 391.547 127.333 386.939 123.255C385.889 123.599 384.903 124.254 383.898 125.237Z" fill="#4F9BFA"/>
<path d="M363.983 92.8572L363.394 93.2194L362.928 92.4624L363.777 92.1974L363.983 92.8572ZM383.898 125.237L384.382 125.731L383.763 126.337L383.309 125.6L383.898 125.237ZM367.128 91.055L367.797 90.8793L367.895 91.2529L367.628 91.5323L367.128 91.055ZM368.99 78.7146L369.68 78.6682L369.715 79.1934L369.218 79.3672L368.99 78.7146ZM368.984 78.6239L368.294 78.6709L369.573 78.2618L368.984 78.6239ZM369.031 78.7005L369.251 79.3558L368.73 79.531L368.442 79.0627L369.031 78.7005ZM398.81 127.118L398.221 127.48L397.933 127.011L398.324 126.625L398.81 127.118ZM398.857 127.194L399.446 126.832L398.495 127.783L398.857 127.194ZM398.78 127.147L398.3 126.649L398.685 126.278L399.141 126.558L398.78 127.147ZM386.939 123.255L386.724 122.598L387.101 122.475L387.397 122.737L386.939 123.255ZM364.572 92.4951L384.487 124.875L383.309 125.6L363.394 93.2194L364.572 92.4951ZM367.628 91.5323C366.746 92.457 365.599 93.0767 364.189 93.5171L363.777 92.1974C365.039 91.8028 365.955 91.2828 366.628 90.5776L367.628 91.5323ZM368.681 79.622C367.712 80.2179 367.07 81.4665 366.895 83.4414C366.721 85.4016 367.025 87.94 367.797 90.8793L366.46 91.2307C365.666 88.2088 365.325 85.4986 365.518 83.3193C365.71 81.1548 366.446 79.3731 367.957 78.4443L368.681 79.622ZM369.218 79.3672C369.029 79.4336 368.849 79.5184 368.681 79.622L367.957 78.4443C368.211 78.2875 368.481 78.1604 368.762 78.062L369.218 79.3672ZM369.674 78.577C369.676 78.6075 369.678 78.6378 369.68 78.6682L368.3 78.761C368.298 78.731 368.296 78.701 368.294 78.6709L369.674 78.577ZM368.442 79.0627L368.395 78.9861L369.573 78.2618L369.62 78.3383L368.442 79.0627ZM390.983 98.5652C387.088 92.2318 382.719 87.0043 378.742 83.5745C376.751 81.8583 374.881 80.6112 373.237 79.8937C371.579 79.1706 370.241 79.0232 369.251 79.3558L368.811 78.0452C370.267 77.5559 371.988 77.8404 373.79 78.6264C375.604 79.418 377.592 80.7572 379.645 82.5273C383.753 86.0702 388.209 91.4159 392.161 97.8408L390.983 98.5652ZM398.324 126.625C399.068 125.892 399.54 124.631 399.642 122.826C399.743 121.035 399.474 118.803 398.84 116.253C397.573 111.156 394.878 104.899 390.983 98.5652L392.161 97.8408C396.113 104.266 398.873 110.654 400.182 115.919C400.836 118.55 401.134 120.928 401.022 122.904C400.911 124.867 400.389 126.531 399.295 127.61L398.324 126.625ZM398.268 127.556L398.221 127.48L399.399 126.755L399.446 126.832L398.268 127.556ZM399.141 126.558C399.167 126.573 399.193 126.589 399.219 126.605L398.495 127.783C398.469 127.767 398.444 127.752 398.418 127.736L399.141 126.558ZM397.829 127.014C397.998 126.911 398.155 126.789 398.3 126.649L399.26 127.645C399.044 127.852 398.809 128.035 398.554 128.192L397.829 127.014ZM387.397 122.737C389.669 124.748 391.795 126.161 393.621 126.888C395.46 127.62 396.862 127.61 397.829 127.014L398.554 128.192C397.045 129.12 395.125 128.975 393.109 128.172C391.079 127.364 388.817 125.84 386.481 123.773L387.397 122.737ZM383.414 124.743C384.47 123.71 385.544 122.984 386.724 122.598L387.154 123.912C386.233 124.213 385.335 124.798 384.382 125.731L383.414 124.743Z" fill="url(#paint10_radial_1005_3752)" mask="url(#path-28-inside-8_1005_3752)"/>
<path d="M402.561 127.251L370.615 75.1183L375.704 72.0304L407.649 124.163L402.561 127.251Z" fill="#1B3C66"/>
<circle r="13.6695" transform="matrix(0.523888 0.851787 0.851787 -0.523888 328.695 136.872)" fill="#C4C4C4"/>
<circle r="13.6695" transform="matrix(0.523888 0.851787 0.851787 -0.523888 328.695 136.872)" fill="#F1F7FF"/>
<mask id="path-32-inside-9_1005_3752" fill="white">
<path fill-rule="evenodd" clip-rule="evenodd" d="M332.662 149.957C327.82 151.196 322.535 149.221 319.779 144.74C316.389 139.228 318.109 132.012 323.621 128.622C329.133 125.232 336.349 126.952 339.739 132.464C342.496 136.945 341.874 142.554 338.582 146.317C342.775 141.934 343.665 135.119 340.339 129.71C336.384 123.28 327.965 121.273 321.534 125.228C315.104 129.183 313.097 137.603 317.052 144.033C320.378 149.44 326.86 151.72 332.662 149.957Z"/>
</mask>
<path fill-rule="evenodd" clip-rule="evenodd" d="M332.662 149.957C327.82 151.196 322.535 149.221 319.779 144.74C316.389 139.228 318.109 132.012 323.621 128.622C329.133 125.232 336.349 126.952 339.739 132.464C342.496 136.945 341.874 142.554 338.582 146.317C342.775 141.934 343.665 135.119 340.339 129.71C336.384 123.28 327.965 121.273 321.534 125.228C315.104 129.183 313.097 137.603 317.052 144.033C320.378 149.44 326.86 151.72 332.662 149.957Z" fill="#C4C4C4"/>
<path fill-rule="evenodd" clip-rule="evenodd" d="M332.662 149.957C327.82 151.196 322.535 149.221 319.779 144.74C316.389 139.228 318.109 132.012 323.621 128.622C329.133 125.232 336.349 126.952 339.739 132.464C342.496 136.945 341.874 142.554 338.582 146.317C342.775 141.934 343.665 135.119 340.339 129.71C336.384 123.28 327.965 121.273 321.534 125.228C315.104 129.183 313.097 137.603 317.052 144.033C320.378 149.44 326.86 151.72 332.662 149.957Z" fill="#CFE4FF"/>
<path d="M332.662 149.957L332.491 149.287L332.863 150.618L332.662 149.957ZM338.582 146.317L339.082 146.794L338.062 145.861L338.582 146.317ZM320.368 144.378C322.961 148.594 327.934 150.453 332.491 149.287L332.834 150.626C327.706 151.939 322.109 149.849 319.19 145.102L320.368 144.378ZM323.983 129.211C318.797 132.401 317.178 139.191 320.368 144.378L319.19 145.102C315.6 139.265 317.422 131.623 323.259 128.033L323.983 129.211ZM339.151 132.826C335.961 127.639 329.17 126.021 323.983 129.211L323.259 128.033C329.096 124.443 336.738 126.264 340.328 132.101L339.151 132.826ZM338.062 145.861C341.16 142.32 341.744 137.042 339.151 132.826L340.328 132.101C343.248 136.849 342.588 142.788 339.102 146.772L338.062 145.861ZM338.082 145.839C342.063 141.677 342.908 135.207 339.75 130.073L340.928 129.348C344.423 135.031 343.486 142.19 339.082 146.794L338.082 145.839ZM339.75 130.073C335.995 123.967 328.002 122.062 321.896 125.817L321.172 124.639C327.928 120.484 336.773 122.592 340.928 129.348L339.75 130.073ZM321.896 125.817C315.791 129.572 313.886 137.566 317.641 143.671L316.463 144.395C312.308 137.639 314.416 128.794 321.172 124.639L321.896 125.817ZM317.641 143.671C320.798 148.804 326.952 150.969 332.461 149.295L332.863 150.618C326.768 152.47 319.958 150.077 316.463 144.395L317.641 143.671Z" fill="url(#paint11_radial_1005_3752)" mask="url(#path-32-inside-9_1005_3752)"/>
<ellipse rx="16.4034" ry="4.6867" transform="matrix(0.523888 0.851787 0.851787 -0.523888 343.666 127.665)" fill="#C4C4C4"/>
<ellipse rx="16.4034" ry="4.6867" transform="matrix(0.523888 0.851787 0.851787 -0.523888 343.666 127.665)" fill="#F1F7FF"/>
<mask id="path-35-inside-10_1005_3752" fill="white">
<path fill-rule="evenodd" clip-rule="evenodd" d="M352.366 141.564C353.824 139.873 352.726 134.941 349.692 130.008C346.415 124.68 342.12 121.368 340.099 122.611C338.317 123.708 338.898 127.98 341.308 132.629C340.756 131.829 340.209 130.991 339.674 130.12C334.928 122.403 332.867 115.048 335.072 113.692C337.277 112.336 342.912 117.493 347.658 125.209C352.325 132.797 354.394 140.035 352.366 141.564Z"/>
</mask>
<path fill-rule="evenodd" clip-rule="evenodd" d="M352.366 141.564C353.824 139.873 352.726 134.941 349.692 130.008C346.415 124.68 342.12 121.368 340.099 122.611C338.317 123.708 338.898 127.98 341.308 132.629C340.756 131.829 340.209 130.991 339.674 130.12C334.928 122.403 332.867 115.048 335.072 113.692C337.277 112.336 342.912 117.493 347.658 125.209C352.325 132.797 354.394 140.035 352.366 141.564Z" fill="#C4C4C4"/>
<path fill-rule="evenodd" clip-rule="evenodd" d="M352.366 141.564C353.824 139.873 352.726 134.941 349.692 130.008C346.415 124.68 342.12 121.368 340.099 122.611C338.317 123.708 338.898 127.98 341.308 132.629C340.756 131.829 340.209 130.991 339.674 130.12C334.928 122.403 332.867 115.048 335.072 113.692C337.277 112.336 342.912 117.493 347.658 125.209C352.325 132.797 354.394 140.035 352.366 141.564Z" fill="#CFE4FF"/>
<path d="M352.366 141.564L352.782 142.116L351.843 141.113L352.366 141.564ZM341.308 132.629L341.922 132.311L340.739 133.022L341.308 132.629ZM351.843 141.113C352.073 140.846 352.251 140.388 352.3 139.69C352.349 139.001 352.265 138.143 352.04 137.156C351.588 135.183 350.589 132.787 349.103 130.37L350.281 129.646C351.829 132.163 352.896 134.699 353.387 136.847C353.633 137.921 353.74 138.922 353.68 139.787C353.619 140.644 353.389 141.437 352.89 142.015L351.843 141.113ZM349.103 130.37C347.497 127.759 345.657 125.668 344.002 124.393C343.173 123.754 342.421 123.342 341.793 123.156C341.165 122.97 340.74 123.029 340.461 123.2L339.737 122.022C340.468 121.573 341.338 121.579 342.186 121.831C343.035 122.082 343.94 122.599 344.847 123.298C346.664 124.7 348.61 126.929 350.281 129.646L349.103 130.37ZM340.461 123.2C340.214 123.352 339.997 123.643 339.867 124.155C339.737 124.671 339.712 125.36 339.817 126.202C340.028 127.884 340.742 130.035 341.922 132.311L340.694 132.947C339.464 130.575 338.682 128.265 338.445 126.374C338.327 125.43 338.34 124.555 338.527 123.816C338.714 123.073 339.093 122.419 339.737 122.022L340.461 123.2ZM340.263 129.758C340.792 130.618 341.332 131.446 341.877 132.236L340.739 133.022C340.18 132.212 339.627 131.363 339.085 130.482L340.263 129.758ZM335.434 114.281C335.182 114.436 334.924 114.848 334.884 115.776C334.846 116.674 335.025 117.882 335.432 119.334C336.243 122.23 337.913 125.938 340.263 129.758L339.085 130.482C336.688 126.585 334.955 122.758 334.101 119.707C333.675 118.187 333.456 116.82 333.503 115.717C333.549 114.642 333.86 113.626 334.71 113.104L335.434 114.281ZM347.069 125.572C344.72 121.752 342.163 118.588 339.945 116.559C338.833 115.54 337.835 114.835 337.016 114.464C336.171 114.082 335.687 114.126 335.434 114.281L334.71 113.104C335.56 112.581 336.607 112.761 337.587 113.205C338.593 113.661 339.714 114.473 340.879 115.539C343.216 117.677 345.85 120.95 348.247 124.847L347.069 125.572ZM351.95 141.012C352.197 140.826 352.434 140.366 352.451 139.418C352.468 138.502 352.272 137.29 351.858 135.85C351.032 132.976 349.379 129.327 347.069 125.572L348.247 124.847C350.604 128.679 352.318 132.444 353.187 135.468C353.62 136.976 353.854 138.335 353.834 139.443C353.814 140.52 353.55 141.537 352.782 142.116L351.95 141.012Z" fill="url(#paint12_radial_1005_3752)" mask="url(#path-35-inside-10_1005_3752)"/>
<path d="M341.342 117.176L351.981 134.475C363.652 126.563 370.208 124.186 381.92 122.022L365.961 96.0735C358.118 106.117 352.85 110.861 341.342 117.176Z" fill="#C4C4C4"/>
<path d="M341.342 117.176L351.981 134.475C363.652 126.563 370.208 124.186 381.92 122.022L365.961 96.0735C358.118 106.117 352.85 110.861 341.342 117.176Z" fill="#F1F7FF"/>
<mask id="path-38-inside-11_1005_3752" fill="white">
<path fill-rule="evenodd" clip-rule="evenodd" d="M373.979 109.109L363.981 92.853C365.317 92.4355 366.348 91.8657 367.126 91.0509C365.56 85.0897 365.838 80.5537 368.317 79.029C368.528 78.8988 368.753 78.7928 368.988 78.7104L368.982 78.6197L369.029 78.6963C373.92 77.0527 383.723 85.4408 391.57 98.1989C391.583 98.2209 391.597 98.2429 391.61 98.2649L373.979 109.109Z"/>
</mask>
<path fill-rule="evenodd" clip-rule="evenodd" d="M373.979 109.109L363.981 92.853C365.317 92.4355 366.348 91.8657 367.126 91.0509C365.56 85.0897 365.838 80.5537 368.317 79.029C368.528 78.8988 368.753 78.7928 368.988 78.7104L368.982 78.6197L369.029 78.6963C373.92 77.0527 383.723 85.4408 391.57 98.1989C391.583 98.2209 391.597 98.2429 391.61 98.2649L373.979 109.109Z" fill="#C4C4C4"/>
<path fill-rule="evenodd" clip-rule="evenodd" d="M373.979 109.109L363.981 92.853C365.317 92.4355 366.348 91.8657 367.126 91.0509C365.56 85.0897 365.838 80.5537 368.317 79.029C368.528 78.8988 368.753 78.7928 368.988 78.7104L368.982 78.6197L369.029 78.6963C373.92 77.0527 383.723 85.4408 391.57 98.1989C391.583 98.2209 391.597 98.2429 391.61 98.2649L373.979 109.109Z" fill="#1B3C66"/>
<path d="M373.979 109.109L374.341 109.698L373.752 110.06L373.39 109.471L373.979 109.109ZM363.981 92.853L363.392 93.2151L362.926 92.4581L363.775 92.1931L363.981 92.853ZM367.126 91.0509L367.795 90.8753L367.893 91.2489L367.626 91.5283L367.126 91.0509ZM368.988 78.7104L369.678 78.6637L369.714 79.1892L369.216 79.363L368.988 78.7104ZM368.982 78.6197L368.292 78.6663L369.571 78.2575L368.982 78.6197ZM369.029 78.6963L369.249 79.3516L368.728 79.5267L368.44 79.0585L369.029 78.6963ZM391.61 98.2649L392.2 97.9033L392.561 98.4919L391.973 98.8538L391.61 98.2649ZM373.39 109.471L363.392 93.2151L364.57 92.4908L374.568 108.747L373.39 109.471ZM363.775 92.1931C365.037 91.7986 365.953 91.2786 366.626 90.5736L367.626 91.5283C366.744 92.4528 365.596 93.0724 364.187 93.5128L363.775 92.1931ZM366.457 91.2266C365.663 88.2047 365.322 85.4945 365.516 83.3152C365.708 81.1507 366.444 79.369 367.954 78.4402L368.679 79.6179C367.71 80.2138 367.068 81.4624 366.893 83.4374C366.719 85.3976 367.022 87.9359 367.795 90.8753L366.457 91.2266ZM367.954 78.4402C368.209 78.2833 368.479 78.1562 368.76 78.0577L369.216 79.363C369.026 79.4294 368.847 79.5142 368.679 79.6179L367.954 78.4402ZM368.299 78.757L368.292 78.6663L369.672 78.573L369.678 78.6637L368.299 78.757ZM369.571 78.2575L369.618 78.3341L368.44 79.0585L368.393 78.9819L369.571 78.2575ZM368.809 78.041C370.265 77.5518 371.986 77.8364 373.788 78.6224C375.602 79.4141 377.59 80.7532 379.643 82.5234C383.751 86.0662 388.207 91.4119 392.159 97.8367L390.981 98.5611C387.086 92.2278 382.717 87.0004 378.74 83.5705C376.749 81.8543 374.879 80.6073 373.235 79.8897C371.577 79.1666 370.239 79.019 369.249 79.3516L368.809 78.041ZM392.159 97.8367C392.172 97.8589 392.186 97.8811 392.2 97.9033L391.021 98.6266C391.008 98.6047 390.994 98.5829 390.981 98.5611L392.159 97.8367ZM391.973 98.8538L374.341 109.698L373.617 108.52L391.248 97.6761L391.973 98.8538Z" fill="url(#paint13_radial_1005_3752)" mask="url(#path-38-inside-11_1005_3752)"/>
<mask id="path-40-inside-12_1005_3752" fill="white">
<path fill-rule="evenodd" clip-rule="evenodd" d="M351.979 134.472L341.34 117.173C352.848 110.858 358.116 106.113 365.959 96.0701L373.98 109.112L346.701 125.889L351.98 134.472C351.979 134.472 351.979 134.472 351.979 134.472Z"/>
</mask>
<path fill-rule="evenodd" clip-rule="evenodd" d="M351.979 134.472L341.34 117.173C352.848 110.858 358.116 106.113 365.959 96.0701L373.98 109.112L346.701 125.889L351.98 134.472C351.979 134.472 351.979 134.472 351.979 134.472Z" fill="#C4C4C4"/>
<path fill-rule="evenodd" clip-rule="evenodd" d="M351.979 134.472L341.34 117.173C352.848 110.858 358.116 106.113 365.959 96.0701L373.98 109.112L346.701 125.889L351.98 134.472C351.979 134.472 351.979 134.472 351.979 134.472Z" fill="#CFE4FF"/>
<path d="M341.34 117.173L340.751 117.535L340.37 116.916L341.007 116.567L341.34 117.173ZM351.979 134.472L352.366 135.045L351.768 135.448L351.39 134.834L351.979 134.472ZM365.959 96.0701L365.414 95.6446L366.026 94.8603L366.548 95.7079L365.959 96.0701ZM373.98 109.112L374.569 108.749L374.931 109.338L374.342 109.701L373.98 109.112ZM346.701 125.889L346.112 126.252L345.75 125.663L346.339 125.3L346.701 125.889ZM351.98 134.472L352.568 134.109L352.916 134.674L352.366 135.045L351.98 134.472ZM341.928 116.811L352.568 134.11L351.39 134.834L340.751 117.535L341.928 116.811ZM366.504 96.4956C358.608 106.607 353.27 111.415 341.672 117.779L341.007 116.567C352.427 110.301 357.624 105.62 365.414 95.6446L366.504 96.4956ZM373.391 109.474L365.37 96.4323L366.548 95.7079L374.569 108.749L373.391 109.474ZM374.342 109.701L347.063 126.478L346.339 125.3L373.618 108.523L374.342 109.701ZM347.29 125.527L352.568 134.109L351.391 134.834L346.112 126.252L347.29 125.527ZM351.593 133.899C351.593 133.899 351.593 133.898 351.593 133.898L352.366 135.045C352.366 135.045 352.366 135.045 352.366 135.045L351.593 133.899Z" fill="url(#paint14_radial_1005_3752)" mask="url(#path-40-inside-12_1005_3752)"/>
<path d="M341.34 117.173L340.751 117.535L340.37 116.916L341.007 116.567L341.34 117.173ZM351.979 134.472L352.366 135.045L351.768 135.448L351.39 134.834L351.979 134.472ZM365.959 96.0701L365.414 95.6446L366.026 94.8603L366.548 95.7079L365.959 96.0701ZM373.98 109.112L374.569 108.749L374.931 109.338L374.342 109.701L373.98 109.112ZM346.701 125.889L346.112 126.252L345.75 125.663L346.339 125.3L346.701 125.889ZM351.98 134.472L352.568 134.109L352.916 134.674L352.366 135.045L351.98 134.472ZM341.928 116.811L352.568 134.11L351.39 134.834L340.751 117.535L341.928 116.811ZM366.504 96.4956C358.608 106.607 353.27 111.415 341.672 117.779L341.007 116.567C352.427 110.301 357.624 105.62 365.414 95.6446L366.504 96.4956ZM373.391 109.474L365.37 96.4323L366.548 95.7079L374.569 108.749L373.391 109.474ZM374.342 109.701L347.063 126.478L346.339 125.3L373.618 108.523L374.342 109.701ZM347.29 125.527L352.568 134.109L351.391 134.834L346.112 126.252L347.29 125.527ZM351.593 133.899C351.593 133.899 351.593 133.898 351.593 133.898L352.366 135.045C352.366 135.045 352.366 135.045 352.366 135.045L351.593 133.899Z" fill="url(#paint15_radial_1005_3752)" mask="url(#path-40-inside-12_1005_3752)"/>
<defs>
<radialGradient id="paint0_radial_1005_3752" cx="0" cy="0" r="1" gradientUnits="userSpaceOnUse" gradientTransform="translate(12.4806 297.785) rotate(66.3705) scale(6.82078 18.8745)">
<stop stop-color="#245089"/>
<stop offset="1" stop-color="#245089" stop-opacity="0"/>
</radialGradient>
<radialGradient id="paint1_radial_1005_3752" cx="0" cy="0" r="1" gradientUnits="userSpaceOnUse" gradientTransform="translate(40.2101 234.906) rotate(141.337) scale(6.25157 29.581)">
<stop stop-color="white"/>
<stop offset="0.460906" stop-color="white" stop-opacity="0"/>
</radialGradient>
<radialGradient id="paint2_radial_1005_3752" cx="0" cy="0" r="1" gradientUnits="userSpaceOnUse" gradientTransform="translate(44.8987 265.564) rotate(-121.185) scale(8.67401 4.73494)">
<stop stop-color="#3773C0"/>
<stop offset="1" stop-opacity="0"/>
</radialGradient>
<radialGradient id="paint3_radial_1005_3752" cx="0" cy="0" r="1" gradientUnits="userSpaceOnUse" gradientTransform="translate(55.8566 298.134) rotate(93.5896) scale(10.4376 28.8799)">
<stop stop-color="#245089"/>
<stop offset="1" stop-color="#245089" stop-opacity="0"/>
</radialGradient>
<radialGradient id="paint4_radial_1005_3752" cx="0" cy="0" r="1" gradientUnits="userSpaceOnUse" gradientTransform="translate(42.3539 270.641) rotate(138.324) scale(21.4394 10.5013)">
<stop stop-color="#3773C0"/>
<stop offset="1" stop-opacity="0"/>
</radialGradient>
<radialGradient id="paint5_radial_1005_3752" cx="0" cy="0" r="1" gradientUnits="userSpaceOnUse" gradientTransform="translate(30.6367 282.749) rotate(172.406) scale(2.95521 14.9307)">
<stop stop-color="#3773C0"/>
<stop offset="1" stop-opacity="0"/>
</radialGradient>
<radialGradient id="paint6_radial_1005_3752" cx="0" cy="0" r="1" gradientUnits="userSpaceOnUse" gradientTransform="translate(237.984 107.939) rotate(124.191) scale(89.3492 52.1151)">
<stop stop-color="#3773C0"/>
<stop offset="1" stop-opacity="0"/>
</radialGradient>
<radialGradient id="paint7_radial_1005_3752" cx="0" cy="0" r="1" gradientUnits="userSpaceOnUse" gradientTransform="translate(178.344 243.871) rotate(70.8885) scale(19.2045 66.5998)">
<stop stop-color="#245089"/>
<stop offset="1" stop-color="#245089" stop-opacity="0"/>
</radialGradient>
<radialGradient id="paint8_radial_1005_3752" cx="0" cy="0" r="1" gradientUnits="userSpaceOnUse" gradientTransform="translate(217.919 66.3972) rotate(99.2026) scale(42.1641 12.8979)">
<stop stop-color="#3773C0"/>
<stop offset="1" stop-opacity="0"/>
</radialGradient>
<radialGradient id="paint9_radial_1005_3752" cx="0" cy="0" r="1" gradientUnits="userSpaceOnUse" gradientTransform="translate(206.878 49.9887) rotate(105.658) scale(14.4983 9.51168)">
<stop stop-color="white"/>
<stop offset="1" stop-color="white" stop-opacity="0"/>
</radialGradient>
<radialGradient id="paint10_radial_1005_3752" cx="0" cy="0" r="1" gradientUnits="userSpaceOnUse" gradientTransform="translate(383.496 124.583) rotate(-55.2229) scale(6.82078 18.8745)">
<stop stop-color="#245089"/>
<stop offset="1" stop-color="#245089" stop-opacity="0"/>
</radialGradient>
<radialGradient id="paint11_radial_1005_3752" cx="0" cy="0" r="1" gradientUnits="userSpaceOnUse" gradientTransform="translate(315.407 133.903) rotate(19.7467) scale(6.25197 29.5822)">
<stop stop-color="white"/>
<stop offset="0.460906" stop-color="white" stop-opacity="0"/>
</radialGradient>
<radialGradient id="paint12_radial_1005_3752" cx="0" cy="0" r="1" gradientUnits="userSpaceOnUse" gradientTransform="translate(339.066 113.85) rotate(117.221) scale(8.67407 4.73503)">
<stop stop-color="#3773C0"/>
<stop offset="1" stop-opacity="0"/>
</radialGradient>
<radialGradient id="paint13_radial_1005_3752" cx="0" cy="0" r="1" gradientUnits="userSpaceOnUse" gradientTransform="translate(361.064 87.4442) rotate(-28.0035) scale(10.4375 28.8823)">
<stop stop-color="#245089"/>
<stop offset="1" stop-color="#245089" stop-opacity="0"/>
</radialGradient>
<radialGradient id="paint14_radial_1005_3752" cx="0" cy="0" r="1" gradientUnits="userSpaceOnUse" gradientTransform="translate(345.959 115.365) rotate(30.1758) scale(30.1366 12.3871)">
<stop stop-color="#3773C0"/>
<stop offset="1" stop-opacity="0"/>
</radialGradient>
<radialGradient id="paint15_radial_1005_3752" cx="0" cy="0" r="1" gradientUnits="userSpaceOnUse" gradientTransform="translate(366.451 125.571) rotate(53.8093) scale(4.87272 15.0144)">
<stop stop-color="#3773C0"/>
<stop offset="1" stop-opacity="0"/>
</radialGradient>
</defs>
</svg>
