<svg width="30" height="30" viewBox="0 0 30 30" fill="none" xmlns="http://www.w3.org/2000/svg">
<mask id="mask0_390_1979" style="mask-type:alpha" maskUnits="userSpaceOnUse" x="0" y="0" width="30" height="30">
<circle cx="15" cy="15" r="15" fill="white"/>
</mask>
<g mask="url(#mask0_390_1979)">
<rect y="19.5" width="30" height="10.5" fill="#E72C2C"/>
<rect width="30" height="10.5" fill="white"/>
<rect y="10.5" width="30" height="9" fill="#0D2398"/>
<path d="M-15 0V30H45V0H-15Z" fill="#012169"/>
<path d="M-15 0L45 30L-15 0ZM45 0L-15 30L45 0Z" fill="black"/>
<path d="M45 0L-15 30M-15 0L45 30L-15 0Z" stroke="white" stroke-width="6"/>
<path d="M-15 0L45 30L-15 0ZM45 0L-15 30L45 0Z" fill="black"/>
<path d="M45 0L-15 30M-15 0L45 30L-15 0Z" stroke="#C8102E" stroke-width="4"/>
<path d="M15 0V30V0ZM-15 15H45H-15Z" fill="black"/>
<path d="M-15 15H45M15 0V30V0Z" stroke="white" stroke-width="10"/>
<path d="M15 0V30V0ZM-15 15H45H-15Z" fill="black"/>
<path d="M-15 15H45M15 0V30V0Z" stroke="#C8102E" stroke-width="6"/>
</g>
</svg>
