<?xml version="1.0" encoding="UTF-8"?> <svg xmlns="http://www.w3.org/2000/svg" width="229" height="41" viewBox="0 0 229 41" fill="none"> <path d="M25.9438 34.1987H9.19705L2.05908 13.9066L11.5306 20.1503L17.5704 2.83813L23.473 20.1503L32.9445 13.9066L25.9438 34.1987Z" fill="white"></path> <path d="M32.9444 13.9066L25.9437 34.1987H17.5703V2.83813L23.4729 20.1503L32.9444 13.9066Z" fill="white"></path> <ellipse cx="17.5706" cy="1.70284" rx="1.64722" ry="1.70284" fill="white"></ellipse> <ellipse cx="1.64722" cy="13.0549" rx="1.64722" ry="1.70284" fill="white"></ellipse> <ellipse cx="33.4934" cy="13.0549" rx="1.64722" ry="1.70284" fill="white"></ellipse> <path d="M51.647 27.5268C54.0692 27.5268 55.7941 26.5087 56.6658 24.7081C56.8126 24.4064 56.886 24.1518 56.886 23.8596C56.886 23.4165 56.574 23.096 56.1336 23.096C55.7666 23.096 55.5372 23.2751 55.3629 23.6899C54.739 25.2171 53.3811 25.9619 51.6561 25.9619C49.0412 25.9619 47.3805 23.8313 47.3805 20.494C47.3805 17.185 49.0596 15.0355 51.647 15.0355C53.2801 15.0355 54.7023 15.9029 55.3262 17.5055C55.5097 17.9863 55.7941 18.2126 56.1978 18.2126C56.6474 18.2126 56.941 17.9109 56.941 17.4395C56.941 17.2415 56.8952 17.0059 56.8034 16.7702C56.0235 14.7433 54.06 13.4706 51.647 13.4706C48.0228 13.4706 45.6831 16.2234 45.6831 20.494C45.6831 24.8023 47.9952 27.5268 51.647 27.5268Z" fill="white"></path> <path d="M60.6746 27.4326C61.1792 27.4326 61.5003 27.0932 61.5003 26.5558V21.1068H68.7671V26.5558C68.7671 27.0932 69.0882 27.4326 69.5928 27.4326C70.0975 27.4326 70.4186 27.0932 70.4186 26.5558V14.4416C70.4186 13.9042 70.0975 13.5649 69.5928 13.5649C69.0882 13.5649 68.7671 13.9042 68.7671 14.4416V19.5795H61.5003V14.4416C61.5003 13.9042 61.1792 13.5649 60.6746 13.5649C60.1699 13.5649 59.8488 13.9042 59.8488 14.4416V26.5558C59.8488 27.0932 60.1699 27.4326 60.6746 27.4326Z" fill="white"></path> <path d="M74.565 27.3006H81.2904C81.7584 27.3006 82.0795 26.9895 82.0795 26.537C82.0795 26.0845 81.7584 25.7733 81.2904 25.7733H75.3908V21.0974H80.9601C81.4189 21.0974 81.74 20.7863 81.74 20.3432C81.74 19.8906 81.4189 19.589 80.9601 19.589H75.3908V15.2241H81.2904C81.7584 15.2241 82.0795 14.913 82.0795 14.4605C82.0795 14.0079 81.7584 13.6968 81.2904 13.6968H74.565C74.0604 13.6968 73.7393 14.0362 73.7393 14.5736V26.4238C73.7393 26.9612 74.0604 27.3006 74.565 27.3006Z" fill="white"></path> <path d="M89.217 27.5268C92.1806 27.5268 94.1074 25.9525 94.1074 23.4354C94.1074 21.5122 93.0156 20.3809 90.2538 19.7587L88.7858 19.4287C86.9783 19.0233 86.2718 18.288 86.2718 17.2133C86.2718 15.8274 87.5472 14.9978 89.1987 14.9978C90.63 14.9978 91.7219 15.6012 92.1806 16.9776C92.3274 17.4112 92.5843 17.6375 93.0064 17.6375C93.4468 17.6375 93.7587 17.3358 93.7587 16.8739C93.7587 16.6948 93.7404 16.5533 93.7129 16.4496C93.2358 14.6113 91.4558 13.4706 89.2446 13.4706C86.5012 13.4706 84.5744 15.045 84.5744 17.2887C84.5744 19.2213 85.7213 20.4563 88.3729 21.0502L89.841 21.3802C91.676 21.795 92.41 22.5492 92.41 23.6899C92.41 25.0286 91.1071 25.9996 89.3088 25.9996C87.6389 25.9996 86.336 25.3397 85.9323 23.935C85.8039 23.4825 85.547 23.2657 85.1341 23.2657C84.6662 23.2657 84.3726 23.605 84.3726 24.1424C84.3726 24.3404 84.4093 24.5478 84.4643 24.7363C84.9598 26.3767 86.7306 27.5268 89.217 27.5268Z" fill="white"></path> <path d="M101.126 27.5268C104.089 27.5268 106.016 25.9525 106.016 23.4354C106.016 21.5122 104.924 20.3809 102.162 19.7587L100.694 19.4287C98.8869 19.0233 98.1804 18.288 98.1804 17.2133C98.1804 15.8274 99.4558 14.9978 101.107 14.9978C102.539 14.9978 103.63 15.6012 104.089 16.9776C104.236 17.4112 104.493 17.6375 104.915 17.6375C105.355 17.6375 105.667 17.3358 105.667 16.8739C105.667 16.6948 105.649 16.5533 105.621 16.4496C105.144 14.6113 103.364 13.4706 101.153 13.4706C98.4098 13.4706 96.483 15.045 96.483 17.2887C96.483 19.2213 97.6299 20.4563 100.282 21.0502L101.75 21.3802C103.585 21.795 104.319 22.5492 104.319 23.6899C104.319 25.0286 103.016 25.9996 101.217 25.9996C99.5475 25.9996 98.2447 25.3397 97.841 23.935C97.7125 23.4825 97.4556 23.2657 97.0427 23.2657C96.5748 23.2657 96.2812 23.605 96.2812 24.1424C96.2812 24.3404 96.3179 24.5478 96.3729 24.7363C96.8684 26.3767 98.6392 27.5268 101.126 27.5268Z" fill="white"></path> <path d="M109.52 27.4326C110.025 27.4326 110.346 27.0932 110.346 26.5558V21.4085H115.567C116.025 21.4085 116.347 21.1068 116.347 20.6543C116.347 20.2018 116.025 19.9001 115.567 19.9001H110.346V15.2241H116.08C116.548 15.2241 116.87 14.913 116.87 14.4605C116.87 14.0079 116.548 13.6968 116.08 13.6968H109.52C109.016 13.6968 108.694 14.0362 108.694 14.5736V26.5558C108.694 27.0932 109.016 27.4326 109.52 27.4326Z" fill="white"></path> <path d="M120.199 27.4326C120.704 27.4326 121.025 27.0932 121.025 26.5558V14.4416C121.025 13.9042 120.704 13.5649 120.199 13.5649C119.695 13.5649 119.374 13.9042 119.374 14.4416V26.5558C119.374 27.0932 119.695 27.4326 120.199 27.4326Z" fill="white"></path> <path d="M125.172 27.4703C125.667 27.4703 125.997 27.1215 125.997 26.5935V21.9175H129.163L131.814 26.9235C132.025 27.3289 132.246 27.4703 132.622 27.4703C133.099 27.4703 133.466 27.1309 133.466 26.6878C133.466 26.4993 133.42 26.3296 133.292 26.0939L130.869 21.6536C132.53 21.1162 133.53 19.6455 133.53 17.7506C133.53 15.2995 131.86 13.6968 129.31 13.6968H125.172C124.667 13.6968 124.346 14.0362 124.346 14.5736V26.5935C124.346 27.1215 124.676 27.4703 125.172 27.4703ZM125.997 20.4186V15.2052H129.089C130.796 15.2052 131.824 16.1762 131.824 17.8072C131.824 19.4758 130.86 20.4186 129.163 20.4186H125.997Z" fill="white"></path> <path d="M140.704 27.5268C143.668 27.5268 145.595 25.9525 145.595 23.4354C145.595 21.5122 144.503 20.3809 141.741 19.7587L140.273 19.4287C138.466 19.0233 137.759 18.288 137.759 17.2133C137.759 15.8274 139.034 14.9978 140.686 14.9978C142.117 14.9978 143.209 15.6012 143.668 16.9776C143.815 17.4112 144.072 17.6375 144.494 17.6375C144.934 17.6375 145.246 17.3358 145.246 16.8739C145.246 16.6948 145.228 16.5533 145.2 16.4496C144.723 14.6113 142.943 13.4706 140.732 13.4706C137.989 13.4706 136.062 15.045 136.062 17.2887C136.062 19.2213 137.209 20.4563 139.86 21.0502L141.328 21.3802C143.163 21.795 143.897 22.5492 143.897 23.6899C143.897 25.0286 142.594 25.9996 140.796 25.9996C139.126 25.9996 137.823 25.3397 137.42 23.935C137.291 23.4825 137.034 23.2657 136.621 23.2657C136.153 23.2657 135.86 23.605 135.86 24.1424C135.86 24.3404 135.897 24.5478 135.952 24.7363C136.447 26.3767 138.218 27.5268 140.704 27.5268Z" fill="white"></path> <path d="M152.448 27.4326C152.952 27.4326 153.274 27.0932 153.274 26.5558V15.2241H156.797C157.265 15.2241 157.586 14.913 157.586 14.4605C157.586 14.0079 157.265 13.6968 156.797 13.6968H148.099C147.631 13.6968 147.31 14.0079 147.31 14.4605C147.31 14.913 147.631 15.2241 148.099 15.2241H151.622V26.5558C151.622 27.0932 151.943 27.4326 152.448 27.4326Z" fill="white"></path> <path d="M159.76 27.3949C160.347 27.3949 160.806 26.9235 160.806 26.3201C160.806 25.7168 160.347 25.2454 159.76 25.2454C159.172 25.2454 158.714 25.7168 158.714 26.3201C158.714 26.9235 159.172 27.3949 159.76 27.3949Z" fill="white"></path> <path d="M168.393 27.5268C172.145 27.5268 174.494 24.8212 174.494 20.5034C174.494 16.1857 172.145 13.4706 168.393 13.4706C164.64 13.4706 162.291 16.1857 162.291 20.5034C162.291 24.8212 164.64 27.5268 168.393 27.5268ZM168.393 25.9619C165.686 25.9619 163.989 23.8502 163.989 20.5034C163.989 17.1473 165.686 15.0355 168.393 15.0355C171.099 15.0355 172.797 17.1473 172.797 20.5034C172.797 23.8502 171.099 25.9619 168.393 25.9619Z" fill="white"></path> <path d="M178.118 27.4326C178.622 27.4326 178.934 27.0932 178.934 26.5558V16.657H179.017L185.981 26.8764C186.274 27.31 186.485 27.4326 186.935 27.4326C187.522 27.4326 187.871 27.0838 187.871 26.5087V14.4416C187.871 13.9042 187.559 13.5649 187.054 13.5649C186.55 13.5649 186.238 13.9042 186.238 14.4416V24.3781H186.155L179.2 14.1305C178.907 13.6968 178.687 13.5649 178.246 13.5649C177.677 13.5649 177.301 13.9608 177.301 14.5547V26.5558C177.301 27.0932 177.613 27.4326 178.118 27.4326Z" fill="white"></path> <path d="M192.017 27.3006H198.578C199.046 27.3006 199.367 26.9895 199.367 26.537C199.367 26.0845 199.046 25.7733 198.578 25.7733H192.843V14.4416C192.843 13.9042 192.522 13.5649 192.017 13.5649C191.513 13.5649 191.192 13.9042 191.192 14.4416V26.4238C191.192 26.9612 191.513 27.3006 192.017 27.3006Z" fill="white"></path> <path d="M202.623 27.4326C203.128 27.4326 203.449 27.0932 203.449 26.5558V14.4416C203.449 13.9042 203.128 13.5649 202.623 13.5649C202.118 13.5649 201.797 13.9042 201.797 14.4416V26.5558C201.797 27.0932 202.118 27.4326 202.623 27.4326Z" fill="white"></path> <path d="M207.586 27.4326C208.091 27.4326 208.403 27.0932 208.403 26.5558V16.657H208.485L215.449 26.8764C215.743 27.31 215.954 27.4326 216.403 27.4326C216.991 27.4326 217.339 27.0838 217.339 26.5087V14.4416C217.339 13.9042 217.027 13.5649 216.523 13.5649C216.018 13.5649 215.706 13.9042 215.706 14.4416V24.3781H215.624L208.669 14.1305C208.375 13.6968 208.155 13.5649 207.715 13.5649C207.146 13.5649 206.77 13.9608 206.77 14.5547V26.5558C206.77 27.0932 207.082 27.4326 207.586 27.4326Z" fill="white"></path> <path d="M221.486 27.3006H228.211C228.679 27.3006 229 26.9895 229 26.537C229 26.0845 228.679 25.7733 228.211 25.7733H222.312V21.0974H227.881C228.34 21.0974 228.661 20.7863 228.661 20.3432C228.661 19.8906 228.34 19.589 227.881 19.589H222.312V15.2241H228.211C228.679 15.2241 229 14.913 229 14.4605C229 14.0079 228.679 13.6968 228.211 13.6968H221.486C220.981 13.6968 220.66 14.0362 220.66 14.5736V26.4238C220.66 26.9612 220.981 27.3006 221.486 27.3006Z" fill="white"></path> </svg> 