<?xml version="1.0" encoding="UTF-8"?> <svg xmlns="http://www.w3.org/2000/svg" width="25" height="25" viewBox="0 0 25 25" fill="none"> <g clip-path="url(#clip0)"> <path d="M12.5323 -0.0067749C19.4214 -0.0067749 25.0063 5.57813 25.0063 12.4672C25.0063 19.3563 19.4214 24.9411 12.5323 24.9411C5.64325 24.9411 0.0583496 19.3563 0.0583496 12.4672C0.0583496 5.57813 5.64325 -0.0067749 12.5323 -0.0067749ZM17.4959 6.10052H7.56877C6.79638 6.10052 6.16929 6.72761 6.16929 7.50157V17.4338C6.16929 18.2073 6.79584 18.8349 7.56928 18.8349H17.4964C18.2693 18.8349 18.8964 18.2073 18.8964 17.4338V7.50157C18.8964 6.72761 18.2698 6.10052 17.4969 6.10052H17.4959ZM12.5255 10.0224C13.8709 10.0224 14.9615 11.1141 14.9615 12.4599C14.9615 13.8068 13.8703 14.8974 12.525 14.8974C11.1787 14.8974 10.0875 13.8062 10.0875 12.4599C10.0875 11.1141 11.1787 10.0224 12.525 10.0224H12.5255ZM17.4057 16.8349C17.4057 17.1161 17.1787 17.3453 16.8974 17.3453H8.15783C7.87658 17.3453 7.6495 17.1161 7.6495 16.8349V11.5H8.75522C8.67918 11.8052 8.63803 12.125 8.63803 12.4531C8.63803 14.612 10.387 16.362 12.5443 16.362C14.7016 16.362 16.4505 14.612 16.4505 12.4536C16.4505 12.1255 16.4089 11.8057 16.3328 11.5005H17.4057V16.8359V16.8349ZM17.4391 9.49479C17.4391 9.77604 17.211 10.0042 16.9302 10.0042H15.4849C15.2037 10.0042 14.9761 9.77604 14.9761 9.49479V8.04843C14.9761 7.76718 15.2042 7.53906 15.4849 7.53906H16.9302C17.2115 7.53906 17.4391 7.76718 17.4391 8.04843V9.49479Z" fill="white"></path> </g> <defs> <clipPath id="clip0"> <rect width="25" height="25" fill="white"></rect> </clipPath> </defs> </svg> 