<?xml version="1.0" encoding="UTF-8"?> <svg xmlns="http://www.w3.org/2000/svg" width="229" height="42" viewBox="0 0 229 42" fill="none"> <path d="M25.9438 34.7H9.19705L2.05908 14.4079L11.5306 20.6516L17.5704 3.33942L23.473 20.6516L32.9445 14.4079L25.9438 34.7Z" fill="#4F9BFA"></path> <path d="M32.9444 14.4079L25.9437 34.7H17.5703V3.33942L23.4729 20.6516L32.9444 14.4079Z" fill="#3773C0"></path> <ellipse cx="17.5706" cy="2.20412" rx="1.64722" ry="1.70284" fill="#3773C0"></ellipse> <ellipse cx="1.64722" cy="13.5562" rx="1.64722" ry="1.70284" fill="#3773C0"></ellipse> <ellipse cx="33.4934" cy="13.5562" rx="1.64722" ry="1.70284" fill="#3773C0"></ellipse> <path d="M51.647 28.0281C54.0692 28.0281 55.7941 27.01 56.6658 25.2093C56.8126 24.9077 56.886 24.6531 56.886 24.3609C56.886 23.9178 56.574 23.5972 56.1336 23.5972C55.7666 23.5972 55.5372 23.7764 55.3629 24.1912C54.739 25.7184 53.3811 26.4632 51.6561 26.4632C49.0412 26.4632 47.3805 24.3326 47.3805 20.9953C47.3805 17.6863 49.0596 15.5368 51.647 15.5368C53.2801 15.5368 54.7023 16.4041 55.3262 18.0068C55.5097 18.4876 55.7941 18.7138 56.1978 18.7138C56.6474 18.7138 56.941 18.4122 56.941 17.9408C56.941 17.7428 56.8952 17.5071 56.8034 17.2715C56.0235 15.2446 54.06 13.9719 51.647 13.9719C48.0228 13.9719 45.6831 16.7247 45.6831 20.9953C45.6831 25.3036 47.9952 28.0281 51.647 28.0281Z" fill="#245089"></path> <path d="M60.6746 27.9339C61.1792 27.9339 61.5003 27.5945 61.5003 27.0571V21.6081H68.7671V27.0571C68.7671 27.5945 69.0882 27.9339 69.5928 27.9339C70.0975 27.9339 70.4186 27.5945 70.4186 27.0571V14.9429C70.4186 14.4055 70.0975 14.0661 69.5928 14.0661C69.0882 14.0661 68.7671 14.4055 68.7671 14.9429V20.0808H61.5003V14.9429C61.5003 14.4055 61.1792 14.0661 60.6746 14.0661C60.1699 14.0661 59.8488 14.4055 59.8488 14.9429V27.0571C59.8488 27.5945 60.1699 27.9339 60.6746 27.9339Z" fill="#245089"></path> <path d="M74.565 27.8019H81.2904C81.7584 27.8019 82.0795 27.4908 82.0795 27.0383C82.0795 26.5857 81.7584 26.2746 81.2904 26.2746H75.3908V21.5986H80.9601C81.4189 21.5986 81.74 21.2875 81.74 20.8444C81.74 20.3919 81.4189 20.0903 80.9601 20.0903H75.3908V15.7254H81.2904C81.7584 15.7254 82.0795 15.4143 82.0795 14.9617C82.0795 14.5092 81.7584 14.1981 81.2904 14.1981H74.565C74.0604 14.1981 73.7393 14.5375 73.7393 15.0749V26.9251C73.7393 27.4625 74.0604 27.8019 74.565 27.8019Z" fill="#245089"></path> <path d="M89.217 28.0281C92.1806 28.0281 94.1074 26.4538 94.1074 23.9366C94.1074 22.0134 93.0156 20.8822 90.2538 20.2599L88.7858 19.93C86.9783 19.5246 86.2718 18.7893 86.2718 17.7145C86.2718 16.3287 87.5472 15.4991 89.1987 15.4991C90.63 15.4991 91.7219 16.1025 92.1806 17.4789C92.3274 17.9125 92.5843 18.1388 93.0064 18.1388C93.4468 18.1388 93.7587 17.8371 93.7587 17.3752C93.7587 17.196 93.7404 17.0546 93.7129 16.9509C93.2358 15.1126 91.4558 13.9719 89.2446 13.9719C86.5012 13.9719 84.5744 15.5462 84.5744 17.79C84.5744 19.7226 85.7213 20.9576 88.3729 21.5515L89.841 21.8815C91.676 22.2963 92.41 23.0505 92.41 24.1912C92.41 25.5299 91.1071 26.5009 89.3088 26.5009C87.6389 26.5009 86.336 25.841 85.9323 24.4363C85.8039 23.9838 85.547 23.7669 85.1341 23.7669C84.6662 23.7669 84.3726 24.1063 84.3726 24.6437C84.3726 24.8417 84.4093 25.0491 84.4643 25.2376C84.9598 26.878 86.7306 28.0281 89.217 28.0281Z" fill="#245089"></path> <path d="M101.126 28.0281C104.089 28.0281 106.016 26.4538 106.016 23.9366C106.016 22.0134 104.924 20.8822 102.162 20.2599L100.694 19.93C98.8869 19.5246 98.1804 18.7893 98.1804 17.7145C98.1804 16.3287 99.4558 15.4991 101.107 15.4991C102.539 15.4991 103.63 16.1025 104.089 17.4789C104.236 17.9125 104.493 18.1388 104.915 18.1388C105.355 18.1388 105.667 17.8371 105.667 17.3752C105.667 17.196 105.649 17.0546 105.621 16.9509C105.144 15.1126 103.364 13.9719 101.153 13.9719C98.4098 13.9719 96.483 15.5462 96.483 17.79C96.483 19.7226 97.6299 20.9576 100.282 21.5515L101.75 21.8815C103.585 22.2963 104.319 23.0505 104.319 24.1912C104.319 25.5299 103.016 26.5009 101.217 26.5009C99.5475 26.5009 98.2447 25.841 97.841 24.4363C97.7125 23.9838 97.4556 23.7669 97.0427 23.7669C96.5748 23.7669 96.2812 24.1063 96.2812 24.6437C96.2812 24.8417 96.3179 25.0491 96.3729 25.2376C96.8684 26.878 98.6392 28.0281 101.126 28.0281Z" fill="#245089"></path> <path d="M109.52 27.9339C110.025 27.9339 110.346 27.5945 110.346 27.0571V21.9097H115.567C116.025 21.9097 116.347 21.6081 116.347 21.1555C116.347 20.703 116.025 20.4014 115.567 20.4014H110.346V15.7254H116.08C116.548 15.7254 116.87 15.4143 116.87 14.9617C116.87 14.5092 116.548 14.1981 116.08 14.1981H109.52C109.016 14.1981 108.694 14.5375 108.694 15.0749V27.0571C108.694 27.5945 109.016 27.9339 109.52 27.9339Z" fill="#245089"></path> <path d="M120.199 27.9339C120.704 27.9339 121.025 27.5945 121.025 27.0571V14.9429C121.025 14.4055 120.704 14.0661 120.199 14.0661C119.695 14.0661 119.374 14.4055 119.374 14.9429V27.0571C119.374 27.5945 119.695 27.9339 120.199 27.9339Z" fill="#245089"></path> <path d="M125.172 27.9716C125.667 27.9716 125.997 27.6228 125.997 27.0948V22.4188H129.163L131.814 27.4248C132.025 27.8302 132.246 27.9716 132.622 27.9716C133.099 27.9716 133.466 27.6322 133.466 27.1891C133.466 27.0005 133.42 26.8308 133.292 26.5952L130.869 22.1549C132.53 21.6175 133.53 20.1468 133.53 18.2519C133.53 15.8008 131.86 14.1981 129.31 14.1981H125.172C124.667 14.1981 124.346 14.5375 124.346 15.0749V27.0948C124.346 27.6228 124.676 27.9716 125.172 27.9716ZM125.997 20.9199V15.7065H129.089C130.796 15.7065 131.824 16.6775 131.824 18.3085C131.824 19.9771 130.86 20.9199 129.163 20.9199H125.997Z" fill="#245089"></path> <path d="M140.704 28.0281C143.668 28.0281 145.595 26.4538 145.595 23.9366C145.595 22.0134 144.503 20.8822 141.741 20.2599L140.273 19.93C138.466 19.5246 137.759 18.7893 137.759 17.7145C137.759 16.3287 139.034 15.4991 140.686 15.4991C142.117 15.4991 143.209 16.1025 143.668 17.4789C143.815 17.9125 144.072 18.1388 144.494 18.1388C144.934 18.1388 145.246 17.8371 145.246 17.3752C145.246 17.196 145.228 17.0546 145.2 16.9509C144.723 15.1126 142.943 13.9719 140.732 13.9719C137.989 13.9719 136.062 15.5462 136.062 17.79C136.062 19.7226 137.209 20.9576 139.86 21.5515L141.328 21.8815C143.163 22.2963 143.897 23.0505 143.897 24.1912C143.897 25.5299 142.594 26.5009 140.796 26.5009C139.126 26.5009 137.823 25.841 137.42 24.4363C137.291 23.9838 137.034 23.7669 136.621 23.7669C136.153 23.7669 135.86 24.1063 135.86 24.6437C135.86 24.8417 135.897 25.0491 135.952 25.2376C136.447 26.878 138.218 28.0281 140.704 28.0281Z" fill="#245089"></path> <path d="M152.448 27.9339C152.952 27.9339 153.274 27.5945 153.274 27.0571V15.7254H156.797C157.265 15.7254 157.586 15.4143 157.586 14.9617C157.586 14.5092 157.265 14.1981 156.797 14.1981H148.099C147.631 14.1981 147.31 14.5092 147.31 14.9617C147.31 15.4143 147.631 15.7254 148.099 15.7254H151.622V27.0571C151.622 27.5945 151.943 27.9339 152.448 27.9339Z" fill="#245089"></path> <path d="M159.76 27.8961C160.347 27.8961 160.806 27.4248 160.806 26.8214C160.806 26.2181 160.347 25.7467 159.76 25.7467C159.172 25.7467 158.714 26.2181 158.714 26.8214C158.714 27.4248 159.172 27.8961 159.76 27.8961Z" fill="#245089"></path> <path d="M168.393 28.0281C172.145 28.0281 174.494 25.3225 174.494 21.0047C174.494 16.687 172.145 13.9719 168.393 13.9719C164.64 13.9719 162.291 16.687 162.291 21.0047C162.291 25.3225 164.64 28.0281 168.393 28.0281ZM168.393 26.4632C165.686 26.4632 163.989 24.3514 163.989 21.0047C163.989 17.6486 165.686 15.5368 168.393 15.5368C171.099 15.5368 172.797 17.6486 172.797 21.0047C172.797 24.3514 171.099 26.4632 168.393 26.4632Z" fill="#245089"></path> <path d="M178.118 27.9339C178.622 27.9339 178.934 27.5945 178.934 27.0571V17.1583H179.017L185.981 27.3776C186.274 27.8113 186.485 27.9339 186.935 27.9339C187.522 27.9339 187.871 27.585 187.871 27.01V14.9429C187.871 14.4055 187.559 14.0661 187.054 14.0661C186.55 14.0661 186.238 14.4055 186.238 14.9429V24.8794H186.155L179.2 14.6318C178.907 14.1981 178.687 14.0661 178.246 14.0661C177.677 14.0661 177.301 14.4621 177.301 15.056V27.0571C177.301 27.5945 177.613 27.9339 178.118 27.9339Z" fill="#245089"></path> <path d="M192.017 27.8019H198.578C199.046 27.8019 199.367 27.4908 199.367 27.0383C199.367 26.5857 199.046 26.2746 198.578 26.2746H192.843V14.9429C192.843 14.4055 192.522 14.0661 192.017 14.0661C191.513 14.0661 191.192 14.4055 191.192 14.9429V26.9251C191.192 27.4625 191.513 27.8019 192.017 27.8019Z" fill="#245089"></path> <path d="M202.623 27.9339C203.128 27.9339 203.449 27.5945 203.449 27.0571V14.9429C203.449 14.4055 203.128 14.0661 202.623 14.0661C202.118 14.0661 201.797 14.4055 201.797 14.9429V27.0571C201.797 27.5945 202.118 27.9339 202.623 27.9339Z" fill="#245089"></path> <path d="M207.586 27.9339C208.091 27.9339 208.403 27.5945 208.403 27.0571V17.1583H208.485L215.449 27.3776C215.743 27.8113 215.954 27.9339 216.403 27.9339C216.991 27.9339 217.339 27.585 217.339 27.01V14.9429C217.339 14.4055 217.027 14.0661 216.523 14.0661C216.018 14.0661 215.706 14.4055 215.706 14.9429V24.8794H215.624L208.669 14.6318C208.375 14.1981 208.155 14.0661 207.715 14.0661C207.146 14.0661 206.77 14.4621 206.77 15.056V27.0571C206.77 27.5945 207.082 27.9339 207.586 27.9339Z" fill="#245089"></path> <path d="M221.486 27.8019H228.211C228.679 27.8019 229 27.4908 229 27.0383C229 26.5857 228.679 26.2746 228.211 26.2746H222.312V21.5986H227.881C228.34 21.5986 228.661 21.2875 228.661 20.8444C228.661 20.3919 228.34 20.0903 227.881 20.0903H222.312V15.7254H228.211C228.679 15.7254 229 15.4143 229 14.9617C229 14.5092 228.679 14.1981 228.211 14.1981H221.486C220.981 14.1981 220.66 14.5375 220.66 15.0749V26.9251C220.66 27.4625 220.981 27.8019 221.486 27.8019Z" fill="#245089"></path> </svg> 