<?xml version="1.0" encoding="UTF-8"?> <svg xmlns="http://www.w3.org/2000/svg" width="25" height="25" viewBox="0 0 25 25" fill="none"> <path d="M24.875 12.5C24.875 19.3333 19.3344 24.875 12.5 24.875C5.66667 24.875 0.125 19.3333 0.125 12.5C0.125 5.6651 5.6651 0.125 12.5 0.125C19.3349 0.125 24.875 5.6651 24.875 12.5ZM18.3646 15.1042C16.999 13.8365 17.1812 14.0406 18.8281 11.849C19.8292 10.5141 20.2318 9.69948 20.1042 9.35052C19.9854 9.01719 19.25 9.10573 19.25 9.10573L16.7969 9.12135C16.7969 9.12135 16.6135 9.09635 16.4792 9.17656C16.349 9.25469 16.2635 9.43906 16.2635 9.43906C16.2635 9.43906 15.8771 10.4714 15.3604 11.3505C14.2698 13.2036 13.8318 13.3016 13.6536 13.1854C13.2391 12.9167 13.3427 12.1083 13.3427 11.5344C13.3427 9.7375 13.6146 8.98854 12.8115 8.79479C12.5458 8.73021 12.3495 8.68802 11.6682 8.68021C10.7943 8.6724 10.0536 8.68437 9.6349 8.88854C9.35521 9.025 9.1401 9.32917 9.27135 9.34687C9.43281 9.36771 9.80052 9.44583 9.99427 9.71042C10.2464 10.0521 10.2359 10.8198 10.2359 10.8198C10.2359 10.8198 10.3828 12.9328 9.89948 13.1958C9.57031 13.3766 9.11667 13.0083 8.14427 11.3271C7.64531 10.4661 7.26927 9.51354 7.26927 9.51354C7.26927 9.51354 7.19635 9.33437 7.0651 9.23906C6.90885 9.12448 6.68906 9.08437 6.68906 9.08437L4.36094 9.09375C4.36094 9.09375 4.01042 9.09271 3.88281 9.24479C3.76823 9.38021 3.87344 9.63646 3.87344 9.63646C3.87344 9.63646 5.69635 13.8573 7.76042 16.0062C9.65625 17.9771 11.8047 17.7562 11.8047 17.7562H12.7771C12.7771 17.7562 13.0719 17.8151 13.2219 17.6573C13.3599 17.5078 13.3552 17.3214 13.3552 17.3214C13.3552 17.3214 13.3375 16.013 13.9437 15.8198C14.5427 15.6323 15.3099 17.0854 16.1245 17.6411C16.7391 18.0646 17.2068 17.9714 17.2068 17.9714L19.3839 17.9422C19.3839 17.9422 20.5229 17.8714 19.9828 16.9745C19.9375 16.9016 19.6677 16.313 18.363 15.1047" fill="white"></path> </svg> 