<?xml version="1.0" encoding="UTF-8"?> <svg xmlns="http://www.w3.org/2000/svg" width="512" height="512" viewBox="0 0 512 512" fill="none"> <path fill-rule="evenodd" clip-rule="evenodd" d="M512 256C512 397.385 397.385 512 256 512C114.615 512 0 397.385 0 256C0 114.615 114.615 0 256 0C397.385 0 512 114.615 512 256ZM112.64 400.05L132.89 326.05C120.373 304.349 113.799 279.732 113.83 254.68C113.83 175.97 177.9 111.93 256.59 111.93C275.348 111.933 293.922 115.631 311.25 122.815C328.579 129.998 344.322 140.525 357.58 153.795C370.839 167.064 381.353 182.816 388.521 200.151C395.69 217.485 399.373 236.062 399.36 254.82C399.36 333.53 335.28 397.58 256.6 397.58H256.54C232.705 397.579 209.25 391.603 188.32 380.2L112.64 400.05ZM191.82 354.35L196.16 356.92C214.443 367.749 235.301 373.461 256.55 373.46H256.6C322 373.46 375.23 320.23 375.26 254.8C375.261 236.415 370.99 218.282 362.783 201.83C354.577 185.378 342.66 171.059 327.973 160C313.286 148.942 296.23 141.448 278.151 138.109C260.072 134.769 241.464 135.677 223.796 140.76C206.128 145.842 189.882 154.96 176.341 167.396C162.8 179.831 152.333 195.242 145.766 212.414C139.2 229.587 136.714 248.05 138.504 266.347C140.293 284.644 146.311 302.276 156.08 317.85L158.9 322.34L146.9 366.13L191.82 354.35ZM328.52 288.76C327.806 287.564 326.131 286.755 323.652 285.556C323.043 285.261 322.385 284.943 321.68 284.59C318.11 282.8 300.58 274.18 297.31 273C294.04 271.82 291.66 271.21 289.31 274.79C286.96 278.37 280.1 286.4 278.02 288.79C275.94 291.18 273.86 291.47 270.29 289.68C269.704 289.386 268.906 289.04 267.92 288.612L267.919 288.612C262.893 286.43 252.996 282.135 241.61 271.97C231 262.51 223.84 250.83 221.77 247.26C219.7 243.69 221.55 241.76 223.33 239.98C224.405 238.912 225.635 237.412 226.864 235.913L226.865 235.913C227.477 235.167 228.088 234.421 228.68 233.73C230.15 231.911 231.353 229.89 232.25 227.73C232.723 226.745 232.943 225.658 232.89 224.567C232.838 223.476 232.515 222.415 231.95 221.48C231.412 220.399 228.604 213.564 225.804 206.749L225.801 206.743L225.801 206.743C223.967 202.28 222.137 197.825 220.95 195C218.417 188.864 215.837 188.875 213.784 188.884C213.495 188.885 213.217 188.886 212.95 188.87C210.934 188.749 208.797 188.749 206.586 188.75L206.11 188.75C204.303 188.798 202.525 189.218 200.889 189.986C199.252 190.753 197.792 191.851 196.6 193.21C196.392 193.437 196.159 193.685 195.907 193.955L195.906 193.955C192.193 197.917 184.12 206.529 184.12 222.97C184.12 240.498 196.853 257.428 198.68 259.857L198.69 259.87C198.81 260.029 199.026 260.338 199.335 260.782L199.336 260.783C203.661 266.978 226.234 299.314 259.63 313.73C266.272 316.594 273.062 319.104 279.97 321.25C287.245 323.46 294.936 323.943 302.43 322.66C309.29 321.66 323.54 314.03 326.51 305.66C329.48 297.29 329.41 290.25 328.52 288.76Z" fill="white"></path> </svg> 