<svg width="164" height="155" viewBox="0 0 164 155" fill="none" xmlns="http://www.w3.org/2000/svg">
<g opacity="0.15">
<path d="M192.609 137.303L111.258 190.109L14.3903 116.803L79.5366 116.419L55.8163 15.6311L137.549 78.762L164.423 19.4155L192.609 137.303Z" fill="#4F9BFA"/>
<path d="M164.423 19.4155L192.609 137.303L151.933 163.706L55.8163 15.6311L137.549 78.762L164.423 19.4155Z" fill="#3773C0"/>
<path d="M60.3355 5.07741C63.2179 9.51792 61.972 15.4431 57.5528 18.3117C53.1336 21.1802 47.2144 19.9059 44.332 15.4654C41.4497 11.0249 42.6955 5.09971 47.1147 2.23114C51.534 -0.637428 57.4531 0.636888 60.3355 5.07741Z" fill="#3773C0"/>
<path d="M17.7793 108.886C20.6617 113.326 19.4158 119.251 14.9966 122.12C10.5774 124.989 4.65822 123.714 1.77584 119.274C-1.10655 114.833 0.139312 108.908 4.55854 106.039C8.97778 103.171 14.8969 104.445 17.7793 108.886Z" fill="#3773C0"/>
<path d="M172.479 8.46858C175.361 12.9091 174.116 18.8343 169.696 21.7029C165.277 24.5714 159.358 23.2971 156.476 18.8566C153.593 14.4161 154.839 8.49089 159.258 5.62232C163.677 2.75375 169.597 4.02807 172.479 8.46858Z" fill="#3773C0"/>
</g>
</svg>
