<svg width="48" height="48" viewBox="0 0 48 48" fill="none" xmlns="http://www.w3.org/2000/svg">
<g clip-path="url(#clip0_360_935)">
<path d="M0 24.0005C0 10.7457 10.7452 0.000488281 24 0.000488281C37.2548 0.000488281 48 10.7457 48 24.0005C48 37.2553 37.2548 48.0005 24 48.0005C10.7452 48.0005 0 37.2553 0 24.0005Z" fill="#3773C0"/>
<path d="M23.9999 0.000488281C37.2546 0.000488281 48 10.7459 48 24.0006C48 37.2553 37.2546 48.0005 23.9999 48.0005C10.7453 48.0005 -3.05176e-05 37.2553 -3.05176e-05 24.0006C-3.05176e-05 10.7459 10.7453 0.000488281 23.9999 0.000488281ZM33.5499 11.751H14.4501C12.964 11.751 11.7575 12.9575 11.7575 14.4466V33.5564C11.7575 35.0446 12.9629 36.2521 14.451 36.2521H33.5509C35.0379 36.2521 36.2445 35.0446 36.2445 33.5564V14.4466C36.2445 12.9575 35.0389 11.751 33.5518 11.751H33.5499ZM23.9868 19.2967C26.5754 19.2967 28.6737 21.3972 28.6737 23.9865C28.6737 26.578 26.5742 28.6763 23.9859 28.6763C21.3956 28.6763 19.2961 26.5768 19.2961 23.9865C19.2961 21.3972 21.3956 19.2967 23.9859 19.2967H23.9868ZM33.3764 32.4041C33.3764 32.9451 32.9396 33.3861 32.3984 33.3861H15.5834C15.0423 33.3861 14.6054 32.9451 14.6054 32.4041V22.1397H16.7328C16.5865 22.7269 16.5073 23.3422 16.5073 23.9734C16.5073 28.1272 19.8724 31.4942 24.023 31.4942C28.1737 31.4942 31.5386 28.1272 31.5386 23.9744C31.5386 23.3431 31.4585 22.7278 31.3121 22.1406H33.3764V32.406V32.4041ZM33.4406 18.2816C33.4406 18.8227 33.0018 19.2617 32.4615 19.2617H29.6807C29.1397 19.2617 28.7018 18.8227 28.7018 18.2816V15.4988C28.7018 14.9577 29.1407 14.5188 29.6807 14.5188H32.4615C33.0027 14.5188 33.4406 14.9577 33.4406 15.4988V18.2816Z" fill="white"/>
</g>
<defs>
<clipPath id="clip0_360_935">
<path d="M0 24.0005C0 10.7457 10.7452 0.000488281 24 0.000488281C37.2548 0.000488281 48 10.7457 48 24.0005C48 37.2553 37.2548 48.0005 24 48.0005C10.7452 48.0005 0 37.2553 0 24.0005Z" fill="white"/>
</clipPath>
</defs>
</svg>
