<svg width="48" height="48" viewBox="0 0 48 48" fill="none" xmlns="http://www.w3.org/2000/svg">
<g clip-path="url(#clip0_360_940)">
<path d="M0 24.0005C0 10.7457 10.7452 0.000488281 24 0.000488281C37.2548 0.000488281 48 10.7457 48 24.0005C48 37.2553 37.2548 48.0005 24 48.0005C10.7452 48.0005 0 37.2553 0 24.0005Z" fill="#3773C0"/>
<path d="M24 0.000488281C10.72 0.000488281 0 10.7205 0 24.0005C0 37.2806 10.72 48.0005 24 48.0005C37.2801 48.0005 48 37.2806 48 24.0005C48 10.7205 37.2801 0.000488281 24 0.000488281ZM37.5201 11.1205L32.16 36.3206C32.0799 36.8006 31.5201 37.0406 31.0401 36.8006L22.8 31.2806L18.4 35.4404C18 35.7605 17.44 35.6006 17.28 35.1206L14.4 26.1605L6.80001 23.0405C6.24 22.8005 6.24 21.8405 6.80001 21.6005L36.48 10.3205C37.0401 10.1605 37.5999 10.5605 37.5201 11.1205Z" fill="white"/>
<path d="M18.16 32.4806L18.64 27.8405L32.0801 14.8005L15.92 25.4405" fill="#E5EDF9"/>
</g>
<defs>
<clipPath id="clip0_360_940">
<path d="M0 24.0005C0 10.7457 10.7452 0.000488281 24 0.000488281C37.2548 0.000488281 48 10.7457 48 24.0005C48 37.2553 37.2548 48.0005 24 48.0005C10.7452 48.0005 0 37.2553 0 24.0005Z" fill="white"/>
</clipPath>
</defs>
</svg>
