<svg width="48" height="48" viewBox="0 0 48 48" fill="none" xmlns="http://www.w3.org/2000/svg">
<g clip-path="url(#clip0_360_938)">
<path d="M0 24.0005C0 10.7457 10.7452 0.000488281 24 0.000488281C37.2548 0.000488281 48 10.7457 48 24.0005C48 37.2553 37.2548 48.0005 24 48.0005C10.7452 48.0005 0 37.2553 0 24.0005Z" fill="#3773C0"/>
<path d="M48 24.0005C48 37.2529 37.2546 48.0005 24 48.0005C10.7475 48.0005 0 37.2529 0 24.0005C0 10.7449 10.7444 0.000488281 24 0.000488281C37.2556 0.000488281 48 10.7449 48 24.0005ZM35.3738 29.0511C32.7253 26.5925 33.0787 26.9883 36.2727 22.7379C38.2142 20.149 38.995 18.5692 38.7475 17.8924C38.5171 17.2459 37.0909 17.4177 37.0909 17.4177L32.3334 17.448C32.3334 17.448 31.9777 17.3995 31.7172 17.555C31.4647 17.7066 31.2989 18.0641 31.2989 18.0641C31.2989 18.0641 30.5495 20.0662 29.5474 21.7712C27.4323 25.365 26.5829 25.5551 26.2373 25.3298C25.4334 24.8086 25.6343 23.2408 25.6343 22.1278C25.6343 18.6429 26.1616 17.1904 24.6041 16.8146C24.0888 16.6894 23.7081 16.6076 22.3868 16.5924C20.692 16.5773 19.2555 16.6005 18.4434 16.9964C17.901 17.2611 17.4838 17.851 17.7384 17.8853C18.0515 17.9257 18.7646 18.0772 19.1404 18.5904C19.6294 19.253 19.609 20.7419 19.609 20.7419C19.609 20.7419 19.8939 24.8399 18.9566 25.3499C18.3182 25.7006 17.4384 24.9863 15.5525 21.7258C14.5848 20.056 13.8556 18.2086 13.8556 18.2086C13.8556 18.2086 13.7141 17.8611 13.4596 17.6762C13.1566 17.454 12.7303 17.3762 12.7303 17.3762L8.21516 17.3944C8.21516 17.3944 7.53536 17.3924 7.28787 17.6874C7.06566 17.95 7.2697 18.447 7.2697 18.447C7.2697 18.447 10.805 26.6328 14.8081 30.8004C18.4848 34.6227 22.6515 34.1943 22.6515 34.1943H24.5374C24.5374 34.1943 25.1091 34.3086 25.4 34.0025C25.6677 33.7126 25.6586 33.3511 25.6586 33.3511C25.6586 33.3511 25.6242 30.8136 26.7999 30.4389C27.9616 30.0753 29.4495 32.8934 31.0293 33.9711C32.2213 34.7924 33.1283 34.6117 33.1283 34.6117L37.3506 34.5551C37.3506 34.5551 39.5596 34.4178 38.5121 32.6783C38.4242 32.5369 37.901 31.3954 35.3707 29.052" fill="white"/>
</g>
<defs>
<clipPath id="clip0_360_938">
<path d="M0 24.0005C0 10.7457 10.7452 0.000488281 24 0.000488281C37.2548 0.000488281 48 10.7457 48 24.0005C48 37.2553 37.2548 48.0005 24 48.0005C10.7452 48.0005 0 37.2553 0 24.0005Z" fill="white"/>
</clipPath>
</defs>
</svg>
