<svg width="48" height="48" viewBox="0 0 48 48" fill="none" xmlns="http://www.w3.org/2000/svg">
<g clip-path="url(#clip0_360_943)">
<path d="M0 24.0005C0 10.7457 10.7452 0.000488281 24 0.000488281C37.2548 0.000488281 48 10.7457 48 24.0005C48 37.2553 37.2548 48.0005 24 48.0005C10.7452 48.0005 0 37.2553 0 24.0005Z" fill="#3773C0"/>
<path fill-rule="evenodd" clip-rule="evenodd" d="M48 24.0005C48 37.2553 37.2548 48.0005 24 48.0005C10.7452 48.0005 0 37.2553 0 24.0005C0 10.7456 10.7452 0.000488281 24 0.000488281C37.2548 0.000488281 48 10.7456 48 24.0005ZM10.56 37.5052L12.4584 30.5677C11.285 28.5332 10.6687 26.2254 10.6716 23.8767C10.6716 16.4977 16.6781 10.4939 24.0553 10.4939C25.8139 10.4942 27.5552 10.8409 29.1797 11.5144C30.8043 12.1878 32.2802 13.1747 33.5231 14.4188C34.7662 15.6627 35.7518 17.1395 36.4238 18.7646C37.0959 20.3897 37.4412 22.1313 37.44 23.8899C37.44 31.2689 31.4325 37.2736 24.0563 37.2736H24.0506C21.8161 37.2735 19.6172 36.7133 17.655 35.6442L10.56 37.5052ZM17.9831 33.2208L18.39 33.4617C20.104 34.477 22.0595 35.0125 24.0516 35.0124H24.0563C30.1875 35.0124 35.1778 30.0221 35.1806 23.888C35.1807 22.1644 34.7803 20.4644 34.0109 18.9221C33.2416 17.3797 32.1244 16.0373 30.7475 15.0005C29.3706 13.9638 27.7716 13.2612 26.0767 12.9482C24.3818 12.6351 22.6373 12.7202 20.9809 13.1967C19.3245 13.6732 17.8014 14.528 16.532 15.6939C15.2625 16.8596 14.2812 18.3044 13.6656 19.9143C13.05 21.5243 12.8169 23.2552 12.9847 24.9705C13.1525 26.6859 13.7167 28.3389 14.6325 29.7989L14.8969 30.2199L13.7719 34.3252L17.9831 33.2208ZM30.7987 27.0717C30.7318 26.9596 30.5748 26.8838 30.3424 26.7714C30.2853 26.7437 30.2236 26.7139 30.1575 26.6808C29.8228 26.513 28.1794 25.7049 27.8728 25.5942C27.5662 25.4836 27.3431 25.4264 27.1228 25.7621C26.9025 26.0977 26.2594 26.8505 26.0644 27.0746C25.8694 27.2986 25.6744 27.3258 25.3397 27.158C25.2847 27.1304 25.2099 27.098 25.1175 27.0579H25.1174C24.6462 26.8533 23.7184 26.4506 22.6509 25.4977C21.6562 24.6108 20.985 23.5158 20.7909 23.1811C20.5969 22.8464 20.7703 22.6655 20.9372 22.4986C21.038 22.3985 21.1533 22.2579 21.2685 22.1173H21.2686C21.326 22.0474 21.3832 21.9775 21.4387 21.9127C21.5766 21.7421 21.6893 21.5527 21.7734 21.3502C21.8178 21.2578 21.8384 21.1559 21.8334 21.0536C21.8286 20.9514 21.7983 20.8519 21.7453 20.7642C21.6949 20.6629 21.4316 20.0221 21.1691 19.3832L21.1688 19.3826C20.9969 18.9642 20.8253 18.5466 20.7141 18.2817C20.4766 17.7065 20.2347 17.7075 20.0422 17.7084C20.0152 17.7085 19.9891 17.7085 19.9641 17.7071C19.7751 17.6957 19.5747 17.6957 19.3674 17.6958H19.3228C19.1534 17.7003 18.9867 17.7397 18.8333 17.8117C18.6799 17.8836 18.543 17.9865 18.4313 18.1139C18.4118 18.1352 18.3899 18.1585 18.3663 18.1838H18.3662C18.0181 18.5552 17.2612 19.3626 17.2612 20.9039C17.2612 22.5472 18.455 24.1344 18.6262 24.3621L18.6272 24.3633C18.6384 24.3782 18.6587 24.4072 18.6877 24.4488L18.6877 24.4489C19.0932 25.0297 21.2094 28.0612 24.3403 29.4127C24.963 29.6812 25.5996 29.9165 26.2472 30.1177C26.9292 30.3249 27.6502 30.3701 28.3528 30.2499C28.9959 30.1561 30.3319 29.4408 30.6103 28.6561C30.8888 27.8714 30.8822 27.2114 30.7987 27.0717Z" fill="white"/>
</g>
<defs>
<clipPath id="clip0_360_943">
<path d="M0 24.0005C0 10.7457 10.7452 0.000488281 24 0.000488281C37.2548 0.000488281 48 10.7457 48 24.0005C48 37.2553 37.2548 48.0005 24 48.0005C10.7452 48.0005 0 37.2553 0 24.0005Z" fill="white"/>
</clipPath>
</defs>
</svg>
