<svg width="595" height="571" viewBox="0 0 595 571" fill="none" xmlns="http://www.w3.org/2000/svg">
<path fill-rule="evenodd" clip-rule="evenodd" d="M327.919 6.34172C381.683 18.217 415.711 66.1387 458.231 101.116C505.999 140.411 576.184 163.503 591.736 223.363C607.447 283.837 562.124 340.881 535.164 397.246C507.727 454.611 490.125 523.677 433.891 553.377C377.591 583.112 307.883 569.608 247.593 549.126C194.541 531.104 160.931 484.462 119.621 446.615C76.445 407.059 2.50329 381.604 0.855886 323.078C-0.833694 263.055 82.7046 239.445 112.319 187.206C139.218 139.756 121.791 71.0918 163.581 36.0342C207.295 -0.636428 272.198 -5.96577 327.919 6.34172Z" fill="#E4F6FF"/>
</svg>
