<svg width="34" height="33" viewBox="0 0 34 33" fill="none" xmlns="http://www.w3.org/2000/svg">
<rect width="33" height="33" transform="translate(0.625)" fill="white"/>
<path fill-rule="evenodd" clip-rule="evenodd" d="M28.4551 20.1237C29.2058 20.397 30.044 20.0111 30.2348 19.2353C30.4898 18.1988 30.625 17.1152 30.625 16C30.625 14.8848 30.4898 13.8012 30.2348 12.7647C30.044 11.9889 29.2058 11.603 28.4551 11.8763C27.7045 12.1495 27.3281 12.9789 27.4958 13.76C27.6504 14.4804 27.7321 15.2295 27.7321 16C27.7321 16.7705 27.6504 17.5196 27.4958 18.24C27.3281 19.0211 27.7045 19.8505 28.4551 20.1237ZM28.6817 22.9819C29.0954 22.2985 28.7763 21.4327 28.0525 21.0946C27.3288 20.7565 26.4758 21.0761 26.0422 21.7471C25.2229 23.015 24.14 24.0979 22.8721 24.9172C22.2011 25.3508 21.8815 26.2038 22.2196 26.9275C22.5577 27.6513 23.4235 27.9704 24.1069 27.5567C25.9767 26.4247 27.5497 24.8517 28.6817 22.9819ZM20.3603 29.1098C21.1361 28.919 21.522 28.0808 21.2487 27.3301C20.9755 26.5795 20.1461 26.2031 19.365 26.3708C18.6446 26.5254 17.8955 26.6071 17.125 26.6071C16.3545 26.6071 15.6054 26.5254 14.885 26.3708C14.1039 26.2031 13.2745 26.5795 13.0013 27.3301C12.728 28.0808 13.1139 28.919 13.8897 29.1098C14.9262 29.3648 16.0098 29.5 17.125 29.5C18.2402 29.5 19.3238 29.3648 20.3603 29.1098ZM10.1431 27.5567C10.8265 27.9704 11.6923 27.6513 12.0304 26.9275C12.3685 26.2038 12.0489 25.3508 11.3779 24.9172C10.11 24.0979 9.02711 23.015 8.20778 21.7471C7.77422 21.0761 6.92123 20.7565 6.19745 21.0946C5.47368 21.4327 5.15459 22.2985 5.56832 22.9819C6.70035 24.8517 8.27334 26.4247 10.1431 27.5567ZM5.79486 20.1237C5.04422 20.397 4.20595 20.0111 4.01516 19.2353C3.76022 18.1988 3.625 17.1152 3.625 16C3.625 14.8848 3.76022 13.8012 4.01516 12.7647C4.20595 11.9889 5.04422 11.603 5.79486 11.8763C6.54551 12.1495 6.92189 12.9789 6.75421 13.76C6.59955 14.4804 6.51786 15.2295 6.51786 16C6.51786 16.7705 6.59955 17.5196 6.75421 18.24C6.92189 19.0211 6.54551 19.8505 5.79486 20.1237ZM5.56832 9.0181C5.15459 9.70145 5.47368 10.5673 6.19745 10.9054C6.92123 11.2435 7.77422 10.9239 8.20778 10.2529C9.02711 8.98497 10.11 7.90211 11.3779 7.08278C12.0489 6.64922 12.3685 5.79623 12.0304 5.07245C11.6923 4.34868 10.8265 4.02959 10.1431 4.44332C8.27334 5.57535 6.70035 7.14834 5.56832 9.0181ZM13.8897 2.89016C13.1139 3.08095 12.728 3.91922 13.0013 4.66986C13.2745 5.42051 14.1039 5.79689 14.885 5.62921C15.6054 5.47455 16.3545 5.39286 17.125 5.39286C17.8955 5.39286 18.6446 5.47455 19.365 5.62921C20.1461 5.79689 20.9755 5.42051 21.2487 4.66986C21.522 3.91922 21.1361 3.08095 20.3603 2.89016C19.3238 2.63522 18.2402 2.5 17.125 2.5C16.0098 2.5 14.9262 2.63522 13.8897 2.89016ZM24.1069 4.44332C23.4235 4.02959 22.5577 4.34868 22.2196 5.07245C21.8815 5.79623 22.2011 6.64922 22.8721 7.08278C24.14 7.90211 25.2229 8.98497 26.0422 10.2529C26.4758 10.9239 27.3288 11.2435 28.0525 10.9054C28.7763 10.5673 29.0954 9.70145 28.6817 9.0181C27.5497 7.14834 25.9767 5.57535 24.1069 4.44332Z" fill="#498BDF"/>
<circle cx="17.125" cy="16" r="12.8792" fill="#498BDF"/>
<path d="M18.2906 17.1956H13.75C13.4837 17.1956 13.2678 16.9798 13.2678 16.7135V16.0803C13.2678 15.814 13.4837 15.5981 13.75 15.5981H18.2353C18.6098 15.5981 18.9167 15.5429 19.1561 15.4324C19.3955 15.3219 19.572 15.1654 19.6855 14.9628C19.7991 14.7602 19.8559 14.5208 19.8559 14.2446C19.8559 13.9745 19.7991 13.7305 19.6855 13.5126C19.572 13.2947 19.3985 13.1213 19.1653 12.9924C18.932 12.8635 18.6405 12.799 18.2906 12.799H17.0693C16.803 12.799 16.5872 13.0149 16.5872 13.2811V20.1249C16.5872 20.3912 16.3713 20.607 16.105 20.607H15.0897C14.8234 20.607 14.6075 20.3912 14.6075 20.1249V13.107C14.6075 12.0419 15.471 11.1785 16.5361 11.1785H18.2906C19.0364 11.1785 19.6748 11.312 20.2057 11.579C20.7398 11.8429 21.148 12.2051 21.4304 12.6655C21.7127 13.1228 21.8524 13.6415 21.8493 14.2216C21.8524 14.8293 21.7096 15.3556 21.4211 15.8007C21.1326 16.2457 20.7214 16.5895 20.1873 16.8319C19.6533 17.0744 19.021 17.1956 18.2906 17.1956ZM18.1629 17.8033C18.4292 17.8033 18.6451 18.0192 18.6451 18.2855V18.9187C18.6451 19.185 18.4292 19.4008 18.1629 19.4008H13.75C13.4837 19.4008 13.2678 19.185 13.2678 18.9187V18.2855C13.2678 18.0192 13.4837 17.8033 13.75 17.8033H18.1629Z" fill="white"/>
<circle cx="17.125" cy="16" r="9.85714" stroke="white" stroke-width="1.5"/>
</svg>
