<svg width="34" height="33" viewBox="0 0 34 33" fill="none" xmlns="http://www.w3.org/2000/svg">
<rect width="33" height="33" transform="translate(0.875)" fill="white"/>
<path d="M15.9833 7.00439C15.9833 5.89983 16.8787 5.00439 17.9833 5.00439H23.3756C25.5847 5.00439 27.3756 6.79526 27.3756 9.00439V24.9974C27.3756 27.2065 25.5847 28.9974 23.3756 28.9974H17.9833C16.8787 28.9974 15.9833 28.102 15.9833 26.9974V7.00439Z" fill="#498BDF"/>
<path fill-rule="evenodd" clip-rule="evenodd" d="M25.0108 16.5995C25.28 16.7994 25.28 17.2025 25.0108 17.4024L19.5574 21.4513C19.2275 21.6962 18.7594 21.4607 18.7594 21.0498V18.5438H12.4873C11.935 18.5438 11.4873 18.096 11.4873 17.5438V16.4582C11.4873 15.906 11.935 15.4582 12.4873 15.4582H18.7594V12.9521C18.7594 12.5412 19.2275 12.3057 19.5574 12.5506L25.0108 16.5995Z" fill="white"/>
<path d="M28.4561 3.82618C28.4561 3.17748 28.9819 2.65161 29.6306 2.65161C30.2793 2.65161 30.8052 3.17748 30.8052 3.82618V27.8226C30.8052 28.4713 30.2793 28.9972 29.6306 28.9972C28.9819 28.9972 28.4561 28.4713 28.4561 27.8226V3.82618Z" fill="#498BDF"/>
<path fill-rule="evenodd" clip-rule="evenodd" d="M6.97478 15.074C6.39675 14.5762 6.03218 13.8479 6.03218 13.0365C6.03218 11.5361 7.27874 10.3198 8.81645 10.3198C10.3542 10.3198 11.6007 11.5361 11.6007 13.0365C11.6007 13.8479 11.2361 14.5762 10.6581 15.074L11.1007 15.074C11.5696 15.074 11.9497 15.4541 11.9497 15.923C11.9497 16.3919 11.5696 16.772 11.1007 16.772L6.53403 16.772C6.06516 16.772 5.68506 16.3919 5.68506 15.923C5.68506 15.4541 6.06516 15.074 6.53403 15.074L6.97478 15.074ZM7.35518 16.7723L10.2787 16.7723C10.2787 16.7723 10.8369 20.2473 11.636 21.7426C11.8465 22.1366 12.1473 22.5308 12.4122 22.843C12.7663 23.2604 12.9933 23.7805 12.9933 24.3278L12.9933 25.2616L13.0104 25.2616C13.3855 25.2616 13.6896 25.5657 13.6896 25.9408C13.6896 26.1844 13.5613 26.398 13.3687 26.5179C13.5697 26.7738 13.6896 27.0965 13.6896 27.4472L13.6896 27.4917C13.6896 28.3234 13.0153 28.9976 12.1837 28.9976L5.45058 28.9976C4.61888 28.9976 3.94466 28.3234 3.94466 27.4917L3.94466 27.4472C3.94466 27.0965 4.06454 26.7738 4.26556 26.5179C4.0729 26.398 3.94466 26.1844 3.94466 25.9408C3.94466 25.5657 4.24873 25.2616 4.62383 25.2616L4.64052 25.2616L4.64052 24.2458C4.64052 23.7473 4.82809 23.2688 5.13445 22.8755C5.38713 22.5512 5.68459 22.1366 5.89344 21.7426C6.70485 20.2119 7.35518 16.7723 7.35518 16.7723Z" fill="#498BDF"/>
</svg>
