<svg width="34" height="33" viewBox="0 0 34 33" fill="none" xmlns="http://www.w3.org/2000/svg">
<rect width="33" height="33" transform="translate(0.375)" fill="white"/>
<path d="M19.5858 12.0572L20.4664 12.0572C20.4664 11.6969 20.3729 11.3576 20.208 11.0607L21.9282 8.53376V7.47674H11.6946L11.6946 8.53376L13.4149 11.061C13.2501 11.3578 13.1567 11.697 13.1567 12.0572H14.1639C14.1566 12.241 14.0233 15.1786 12.975 17.1324C12.6363 17.7638 12.1228 18.4352 11.7544 18.8844C11.471 19.2298 11.3036 19.6538 11.3036 20.0942L11.3036 21.7706C10.7908 21.7706 10.375 22.1714 10.375 22.6658L10.375 26.6945H23.375V22.6663C23.375 22.1719 22.9593 21.7707 22.4465 21.7706V20.1675C22.4465 19.6834 22.2436 19.2209 21.913 18.8565C21.5154 18.4182 20.9834 17.7751 20.6358 17.1324C19.6032 15.2233 19.5859 12.2424 19.5858 12.0572Z" fill="#498BDF"/>
<path d="M11.6946 4.30566L13.8875 4.30566L13.8875 7.47673L11.6946 7.47674L11.6946 4.30566Z" fill="#498BDF"/>
<path d="M21.929 4.30566L19.7361 4.30566V7.47674L21.929 7.47673V4.30566Z" fill="#498BDF"/>
<path d="M15.7153 4.30566L17.9082 4.30566V7.47674L15.7153 7.47673L15.7153 4.30566Z" fill="#498BDF"/>
<path fill-rule="evenodd" clip-rule="evenodd" d="M5.83477 14.2903C5.55621 14.0505 5.38051 13.6996 5.38051 13.3087C5.38051 12.5859 5.981 12 6.72174 12C7.46248 12 8.06296 12.5859 8.06296 13.3087C8.06296 13.6996 7.88726 14.0505 7.60871 14.2903L7.8221 14.2903C8.04796 14.2903 8.23106 14.4734 8.23106 14.6993C8.23106 14.9252 8.04796 15.1083 7.8221 15.1083L5.62226 15.1083C5.3964 15.1083 5.2133 14.9252 5.2133 14.6993C5.2133 14.4734 5.3964 14.2903 5.62226 14.2903L5.83477 14.2903ZM6.01782 15.1083L7.42611 15.1083C7.42611 15.1083 7.69504 16.7823 8.07996 17.5026C8.18137 17.6924 8.32627 17.8823 8.45389 18.0327C8.62447 18.2337 8.7338 18.4843 8.7338 18.748L8.7338 19.1977L8.74204 19.1977C8.92274 19.1977 9.06921 19.3442 9.06921 19.5249C9.06921 19.6423 9.00741 19.7452 8.91458 19.8029C9.01144 19.9262 9.06921 20.0817 9.06921 20.2507L9.06921 20.2721C9.06921 20.6727 8.74443 20.9975 8.34379 20.9975L5.10035 20.9975C4.69971 20.9975 4.37493 20.6727 4.37493 20.2721L4.37493 20.2507C4.37493 20.0817 4.4327 19.9262 4.52956 19.8029C4.43673 19.7452 4.37493 19.6423 4.37493 19.5249C4.37493 19.3442 4.5214 19.1977 4.7021 19.1977L4.71013 19.1977L4.71013 18.7084C4.71013 18.4683 4.80048 18.2378 4.94806 18.0484C5.06978 17.8921 5.21307 17.6924 5.31368 17.5026C5.70455 16.7652 6.01782 15.1083 6.01782 15.1083Z" fill="#498BDF"/>
<path fill-rule="evenodd" clip-rule="evenodd" d="M25.8348 14.2903C25.5562 14.0505 25.3805 13.6996 25.3805 13.3087C25.3805 12.5859 25.981 12 26.7217 12C27.4625 12 28.063 12.5859 28.063 13.3087C28.063 13.6996 27.8873 14.0505 27.6087 14.2903L27.8221 14.2903C28.048 14.2903 28.2311 14.4734 28.2311 14.6993C28.2311 14.9252 28.048 15.1083 27.8221 15.1083L25.6223 15.1083C25.3964 15.1083 25.2133 14.9252 25.2133 14.6993C25.2133 14.4734 25.3964 14.2903 25.6223 14.2903L25.8348 14.2903ZM26.0178 15.1083L27.4261 15.1083C27.4261 15.1083 27.695 16.7823 28.08 17.5026C28.1814 17.6924 28.3263 17.8823 28.4539 18.0327C28.6245 18.2337 28.7338 18.4843 28.7338 18.748L28.7338 19.1977L28.742 19.1977C28.9227 19.1977 29.0692 19.3442 29.0692 19.5249C29.0692 19.6423 29.0074 19.7452 28.9146 19.8029C29.0114 19.9262 29.0692 20.0817 29.0692 20.2507L29.0692 20.2721C29.0692 20.6727 28.7444 20.9975 28.3438 20.9975L25.1004 20.9975C24.6997 20.9975 24.3749 20.6727 24.3749 20.2721L24.3749 20.2507C24.3749 20.0817 24.4327 19.9262 24.5296 19.8029C24.4367 19.7452 24.3749 19.6423 24.3749 19.5249C24.3749 19.3442 24.5214 19.1977 24.7021 19.1977L24.7101 19.1977L24.7101 18.7084C24.7101 18.4683 24.8005 18.2378 24.9481 18.0484C25.0698 17.8921 25.2131 17.6924 25.3137 17.5026C25.7045 16.7652 26.0178 15.1083 26.0178 15.1083Z" fill="#498BDF"/>
</svg>
