<svg width="24" height="24" viewBox="0 0 24 24" fill="none" xmlns="http://www.w3.org/2000/svg">
<path d="M4.5 2C3.11929 2 2 3.11929 2 4.5C2 5.88071 3.11929 7 4.5 7C5.88071 7 7 5.88071 7 4.5C7 3.11929 5.88071 2 4.5 2Z" fill="white"/>
<rect x="2" y="3.75" width="20" height="1.5" rx="0.75" fill="white"/>
<path d="M16.5 9C15.1193 9 14 10.1193 14 11.5C14 12.8807 15.1193 14 16.5 14C17.8807 14 19 12.8807 19 11.5C19 10.1193 17.8807 9 16.5 9Z" fill="white"/>
<rect x="2" y="10.75" width="20" height="1.5" rx="0.75" fill="white"/>
<path d="M7.5 16C6.11929 16 5 17.1193 5 18.5C5 19.8807 6.11929 21 7.5 21C8.88071 21 10 19.8807 10 18.5C10 17.1193 8.88071 16 7.5 16Z" fill="white"/>
<rect x="2" y="17.75" width="20" height="1.5" rx="0.75" fill="white"/>
</svg>
