<svg width="24" height="21" viewBox="0 0 24 21" fill="none" xmlns="http://www.w3.org/2000/svg">
<path d="M11.3486 3.37177L12 4.51302L12.6514 3.37177C13.5886 1.72969 15.4143 0.75 17.6 0.75C20.7405 0.75 23.25 3.21978 23.25 6.22222C23.25 6.94303 23.1065 7.62983 22.846 8.25865C21.7689 10.6655 19.9734 12.6923 17.9004 14.6419C17.0163 15.4734 16.0938 16.28 15.1612 17.0954C14.9996 17.2368 14.8377 17.3784 14.6756 17.5204C13.7709 18.3132 12.8639 19.1175 11.9998 19.9497C11.1331 19.1164 10.2196 18.3105 9.30773 17.5163C9.13716 17.3677 8.96674 17.2197 8.79665 17.0719C7.86386 16.2614 6.94105 15.4596 6.05823 14.6336C3.96971 12.6796 2.17875 10.6555 1.15628 8.26412C0.894329 7.63383 0.75 6.94513 0.75 6.22222C0.75 3.21978 3.25954 0.75 6.4 0.75C8.58574 0.75 10.4114 1.72969 11.3486 3.37177Z" stroke="white" stroke-width="1.5"/>
</svg>
