<svg width="2560" height="731" viewBox="0 0 2560 731" fill="none" xmlns="http://www.w3.org/2000/svg">
<g clip-path="url(#clip0_729_9309)">
<rect width="2560" height="731" fill="white"/>
<g clip-path="url(#clip1_729_9309)">
<rect width="2560" height="5043" fill="#C4F2FE"/>
<rect width="2560" height="5043" fill="url(#paint0_radial_729_9309)"/>
<rect width="2560" height="5043" fill="url(#paint1_linear_729_9309)"/>
<rect width="2560" height="5043" fill="url(#paint2_linear_729_9309)"/>
<circle cx="1280" cy="1045" r="1002" fill="url(#paint3_radial_729_9309)"/>
<circle cx="1280" cy="1045" r="903" fill="url(#paint4_radial_729_9309)"/>
<circle cx="1280" cy="1045" r="768" fill="url(#paint5_radial_729_9309)"/>
<path d="M646.068 624.739C502.355 649.68 160.698 506 -17.18 527.687L-111 821.553L1724.73 853C1746.78 768.599 1769.52 598.497 1684.05 593.292C1577.22 586.786 1374.39 506 1221.46 527.687C1068.53 549.375 789.781 599.798 646.068 624.739Z" fill="#BCE1F1"/>
<path d="M1634.02 628.211C1572.4 661.226 1400.19 538.38 1322.76 570.136L1317.71 867.035L2657 843C2656.25 758.01 2696.18 568.241 2657 568C2608.02 567.699 1947.26 468.487 1881.08 498.806C1814.89 529.126 1695.63 595.195 1634.02 628.211Z" fill="#BCE1F1"/>
<path d="M810.819 639.298C741.495 648.297 624.089 472.332 540.429 474.542C279.973 420.406 148.731 431.451 -77 474.542C-157.387 954.497 340.188 963.233 1234.11 975.72C1263.57 895.994 1313.34 733.009 1276.8 718.877C1231.11 701.213 1160.36 601.136 1087.72 605.994C1015.08 610.852 880.143 630.298 810.819 639.298Z" fill="#BCE1F1"/>
<path fill-rule="evenodd" clip-rule="evenodd" d="M647.56 279.101C642.032 275.97 638.302 270.035 638.302 263.228C638.302 253.161 646.463 245 656.53 245C666.597 245 674.758 253.161 674.758 263.228C674.758 263.856 674.727 264.476 674.665 265.087C682.751 254.462 695.531 247.604 709.913 247.604C730.238 247.604 747.364 261.302 752.563 279.969C757.674 274.476 764.967 271.041 773.061 271.041C785.281 271.041 795.672 278.87 799.491 289.786C802.437 284.801 807.865 281.457 814.075 281.457C821.732 281.457 828.242 286.75 830.313 293.718C831.282 296.981 828.323 299.685 824.919 299.685H643.348C639.82 299.685 636.847 296.828 637.684 293.4C639.087 287.65 642.584 282.484 647.56 279.101Z" fill="white"/>
<mask id="path-8-inside-1_729_9309" fill="white">
<path fill-rule="evenodd" clip-rule="evenodd" d="M681.625 539.049L722.966 533.578C722.791 535.09 722.905 536.365 723.378 537.498C730.056 538.576 734.485 540.855 734.914 543.99C734.951 544.258 734.958 544.528 734.936 544.798C734.967 544.809 734.998 544.821 735.03 544.832L734.932 544.845C734.409 550.428 721.638 556.456 705.349 558.611C689.061 560.767 675.122 558.273 673.116 553.025L673.018 553.038C673.046 553.019 673.073 553.001 673.1 552.982C673.006 552.727 672.94 552.465 672.903 552.196C672.474 549.064 676.124 545.718 682.264 542.944C682.385 541.749 682.165 540.481 681.625 539.049Z"/>
</mask>
<path fill-rule="evenodd" clip-rule="evenodd" d="M681.625 539.049L722.966 533.578C722.791 535.09 722.905 536.365 723.378 537.498C730.056 538.576 734.485 540.855 734.914 543.99C734.951 544.258 734.958 544.528 734.936 544.798C734.967 544.809 734.998 544.821 735.03 544.832L734.932 544.845C734.409 550.428 721.638 556.456 705.349 558.611C689.061 560.767 675.122 558.273 673.116 553.025L673.018 553.038C673.046 553.019 673.073 553.001 673.1 552.982C673.006 552.727 672.94 552.465 672.903 552.196C672.474 549.064 676.124 545.718 682.264 542.944C682.385 541.749 682.165 540.481 681.625 539.049Z" fill="#C4C4C4"/>
<path fill-rule="evenodd" clip-rule="evenodd" d="M681.625 539.049L722.966 533.578C722.791 535.09 722.905 536.365 723.378 537.498C730.056 538.576 734.485 540.855 734.914 543.99C734.951 544.258 734.958 544.528 734.936 544.798C734.967 544.809 734.998 544.821 735.03 544.832L734.932 544.845C734.409 550.428 721.638 556.456 705.349 558.611C689.061 560.767 675.122 558.273 673.116 553.025L673.018 553.038C673.046 553.019 673.073 553.001 673.1 552.982C673.006 552.727 672.94 552.465 672.903 552.196C672.474 549.064 676.124 545.718 682.264 542.944C682.385 541.749 682.165 540.481 681.625 539.049Z" fill="#4F9BFA"/>
<path fill-rule="evenodd" clip-rule="evenodd" d="M681.625 539.049L722.966 533.578C722.791 535.09 722.905 536.365 723.378 537.498C730.056 538.576 734.485 540.855 734.914 543.99C734.951 544.258 734.958 544.528 734.936 544.798C734.967 544.809 734.998 544.821 735.03 544.832L734.932 544.845C734.409 550.428 721.638 556.456 705.349 558.611C689.061 560.767 675.122 558.273 673.116 553.025L673.018 553.038C673.046 553.019 673.073 553.001 673.1 552.982C673.006 552.727 672.94 552.465 672.903 552.196C672.474 549.064 676.124 545.718 682.264 542.944C682.385 541.749 682.165 540.481 681.625 539.049Z" fill="url(#paint6_linear_729_9309)"/>
<path d="M722.966 533.578L722.83 532.588L724.107 532.419L723.96 533.697L722.966 533.578ZM681.625 539.049L680.689 539.398L680.245 538.223L681.489 538.058L681.625 539.049ZM723.378 537.498L723.222 538.484L722.67 538.395L722.454 537.879L723.378 537.498ZM734.914 543.99L733.923 544.122L734.914 543.99ZM734.936 544.798L734.598 545.737L733.877 545.476L733.939 544.713L734.936 544.798ZM735.03 544.832L735.367 543.893L735.166 545.823L735.03 544.832ZM734.932 544.845L733.935 544.748L734.009 543.958L734.796 543.854L734.932 544.845ZM673.116 553.025L672.98 552.034L673.767 551.93L674.051 552.672L673.116 553.025ZM673.018 553.038L673.154 554.029L672.453 552.211L673.018 553.038ZM673.1 552.982L674.039 552.641L674.308 553.372L673.666 553.809L673.1 552.982ZM682.264 542.944L683.259 543.049L683.201 543.619L682.68 543.855L682.264 542.944ZM723.101 534.569L681.76 540.04L681.489 538.058L722.83 532.588L723.101 534.569ZM722.454 537.879C721.897 536.542 721.784 535.082 721.972 533.46L723.96 533.697C723.798 535.097 723.914 536.189 724.301 537.117L722.454 537.879ZM733.923 544.122C733.771 543.013 732.887 541.879 731.01 540.848C729.153 539.828 726.501 539.014 723.222 538.484L723.533 536.511C726.933 537.06 729.834 537.925 731.969 539.098C734.083 540.259 735.628 541.832 735.906 543.859L733.923 544.122ZM733.939 544.713C733.955 544.513 733.95 544.316 733.923 544.122L735.906 543.859C735.952 544.2 735.961 544.542 735.933 544.883L733.939 544.713ZM734.693 545.772C734.661 545.76 734.629 545.749 734.598 545.737L735.274 543.859C735.305 543.87 735.336 543.881 735.367 543.893L734.693 545.772ZM734.796 543.854L734.894 543.841L735.166 545.823L735.067 545.836L734.796 543.854ZM705.214 557.62C713.282 556.553 720.444 554.529 725.626 552.108C728.219 550.896 730.278 549.601 731.705 548.307C733.147 546.998 733.838 545.787 733.935 544.748L735.928 544.942C735.764 546.694 734.663 548.33 733.054 549.789C731.43 551.262 729.181 552.657 726.48 553.919C721.074 556.446 713.706 558.514 705.485 559.602L705.214 557.62ZM674.051 552.672C674.424 553.65 675.416 554.638 677.159 555.525C678.883 556.402 681.218 557.115 684.045 557.61C689.694 558.598 697.146 558.688 705.214 557.62L705.485 559.602C697.264 560.69 689.602 560.61 683.708 559.579C680.764 559.064 678.22 558.304 676.257 557.305C674.313 556.316 672.811 555.025 672.181 553.378L674.051 552.672ZM672.883 552.047L672.98 552.034L673.252 554.016L673.154 554.029L672.883 552.047ZM673.666 553.809C673.639 553.828 673.612 553.846 673.584 553.865L672.453 552.211C672.48 552.193 672.507 552.174 672.534 552.156L673.666 553.809ZM673.894 552.065C673.921 552.26 673.969 552.452 674.039 552.641L672.161 553.324C672.042 553.002 671.958 552.669 671.911 552.327L673.894 552.065ZM682.68 543.855C679.665 545.217 677.331 546.69 675.818 548.155C674.289 549.635 673.743 550.958 673.894 552.065L671.911 552.327C671.634 550.302 672.698 548.386 674.422 546.717C676.162 545.032 678.723 543.445 681.848 542.033L682.68 543.855ZM682.561 538.7C683.138 540.229 683.401 541.657 683.259 543.049L681.268 542.838C681.37 541.842 681.193 540.733 680.689 539.398L682.561 538.7Z" fill="url(#paint7_radial_729_9309)" mask="url(#path-8-inside-1_729_9309)"/>
<path d="M671.084 556.72L737.542 548.036L738.381 554.453L671.924 563.137L671.084 556.72Z" fill="#245089"/>
<ellipse rx="14.9954" ry="14.8624" transform="matrix(-0.991358 0.131185 0.135722 0.990747 694.455 479.098)" fill="#C4C4C4"/>
<ellipse rx="14.9954" ry="14.8624" transform="matrix(-0.991358 0.131185 0.135722 0.990747 694.455 479.098)" fill="white"/>
<mask id="path-12-inside-2_729_9309" fill="white">
<path fill-rule="evenodd" clip-rule="evenodd" d="M679.563 477.237C680.476 471.89 684.802 467.524 690.516 466.768C697.554 465.836 704.032 470.732 704.987 477.703C705.942 484.673 701.012 491.079 693.974 492.01C688.256 492.767 682.906 489.676 680.59 484.751C683.129 490.845 689.571 494.736 696.472 493.822C704.682 492.736 710.435 485.263 709.321 477.13C708.207 468.998 700.648 463.286 692.438 464.373C685.54 465.285 680.378 470.706 679.563 477.237Z"/>
</mask>
<path fill-rule="evenodd" clip-rule="evenodd" d="M679.563 477.237C680.476 471.89 684.802 467.524 690.516 466.768C697.554 465.836 704.032 470.732 704.987 477.703C705.942 484.673 701.012 491.079 693.974 492.01C688.256 492.767 682.906 489.676 680.59 484.751C683.129 490.845 689.571 494.736 696.472 493.822C704.682 492.736 710.435 485.263 709.321 477.13C708.207 468.998 700.648 463.286 692.438 464.373C685.54 465.285 680.378 470.706 679.563 477.237Z" fill="#C4C4C4"/>
<path fill-rule="evenodd" clip-rule="evenodd" d="M679.563 477.237C680.476 471.89 684.802 467.524 690.516 466.768C697.554 465.836 704.032 470.732 704.987 477.703C705.942 484.673 701.012 491.079 693.974 492.01C688.256 492.767 682.906 489.676 680.59 484.751C683.129 490.845 689.571 494.736 696.472 493.822C704.682 492.736 710.435 485.263 709.321 477.13C708.207 468.998 700.648 463.286 692.438 464.373C685.54 465.285 680.378 470.706 679.563 477.237Z" fill="#ABD0FF"/>
<path d="M679.563 477.237L680.55 477.409L678.57 477.109L679.563 477.237ZM680.59 484.751L679.666 485.132L681.495 484.33L680.59 484.751ZM690.652 467.758C685.378 468.456 681.39 472.485 680.55 477.409L678.577 477.065C679.562 471.295 684.226 466.591 690.381 465.777L690.652 467.758ZM703.996 477.834C703.117 471.419 697.15 466.899 690.652 467.758L690.381 465.777C697.957 464.774 704.948 470.046 705.979 477.572L703.996 477.834ZM693.839 491.02C700.337 490.16 704.875 484.249 703.996 477.834L705.979 477.572C707.01 485.098 701.686 491.999 694.11 493.001L693.839 491.02ZM681.495 484.33C683.629 488.865 688.561 491.718 693.839 491.02L694.11 493.001C687.951 493.816 682.184 490.487 679.684 485.173L681.495 484.33ZM681.513 484.371C683.88 490.051 689.89 493.685 696.336 492.832L696.608 494.813C689.251 495.787 682.378 491.64 679.666 485.132L681.513 484.371ZM696.336 492.832C704.007 491.817 709.367 484.838 708.329 477.262L710.312 476.999C711.502 485.687 705.357 493.655 696.608 494.813L696.336 492.832ZM708.329 477.262C707.291 469.685 700.244 464.348 692.573 465.363L692.302 463.382C701.051 462.224 709.122 468.311 710.312 476.999L708.329 477.262ZM692.573 465.363C686.131 466.216 681.315 471.277 680.556 477.365L678.57 477.109C679.44 470.134 684.95 464.355 692.302 463.382L692.573 465.363Z" fill="url(#paint8_radial_729_9309)" mask="url(#path-12-inside-2_729_9309)"/>
<ellipse rx="17.9944" ry="5.09568" transform="matrix(-0.991358 0.131185 0.135722 0.990747 697.048 498.029)" fill="#C4C4C4"/>
<ellipse rx="17.9944" ry="5.09568" transform="matrix(-0.991358 0.131185 0.135722 0.990747 697.048 498.029)" fill="white"/>
<mask id="path-15-inside-3_729_9309" fill="white">
<path fill-rule="evenodd" clip-rule="evenodd" d="M679.237 500.536C680.297 502.725 685.729 503.809 692.018 502.977C698.821 502.077 704.052 499.275 703.702 496.719C703.393 494.466 698.85 493.156 693.118 493.494C694.165 493.3 695.247 493.127 696.357 492.98C706.209 491.677 714.505 492.88 714.887 495.668C715.269 498.457 707.592 501.774 697.74 503.078C688.062 504.358 679.886 503.22 679.237 500.536Z"/>
</mask>
<path fill-rule="evenodd" clip-rule="evenodd" d="M679.237 500.536C680.297 502.725 685.729 503.809 692.018 502.977C698.821 502.077 704.052 499.275 703.702 496.719C703.393 494.466 698.85 493.156 693.118 493.494C694.165 493.3 695.247 493.127 696.357 492.98C706.209 491.677 714.505 492.88 714.887 495.668C715.269 498.457 707.592 501.774 697.74 503.078C688.062 504.358 679.886 503.22 679.237 500.536Z" fill="#C4C4C4"/>
<path fill-rule="evenodd" clip-rule="evenodd" d="M679.237 500.536C680.297 502.725 685.729 503.809 692.018 502.977C698.821 502.077 704.052 499.275 703.702 496.719C703.393 494.466 698.85 493.156 693.118 493.494C694.165 493.3 695.247 493.127 696.357 492.98C706.209 491.677 714.505 492.88 714.887 495.668C715.269 498.457 707.592 501.774 697.74 503.078C688.062 504.358 679.886 503.22 679.237 500.536Z" fill="#ABD0FF"/>
<path d="M679.237 500.536L678.265 500.766L680.138 500.104L679.237 500.536ZM693.118 493.494L693.182 494.492L692.931 492.512L693.118 493.494ZM680.138 500.104C680.273 500.383 680.604 500.73 681.259 501.073C681.903 501.411 682.777 501.7 683.853 501.908C686.002 502.324 688.821 502.391 691.883 501.986L692.154 503.968C688.926 504.395 685.884 504.336 683.48 503.87C682.28 503.638 681.204 503.298 680.335 502.842C679.477 502.393 678.732 501.784 678.337 500.968L680.138 500.104ZM691.883 501.986C695.196 501.548 698.083 500.65 700.066 499.588C701.062 499.055 701.781 498.506 702.22 497.995C702.661 497.484 702.745 497.105 702.71 496.85L704.693 496.588C704.833 497.611 704.395 498.541 703.741 499.302C703.085 500.064 702.137 500.751 701.018 501.35C698.773 502.553 695.643 503.506 692.154 503.968L691.883 501.986ZM702.71 496.85C702.679 496.624 702.534 496.334 702.112 496.005C701.684 495.673 701.035 495.354 700.16 495.092C698.414 494.569 695.97 494.327 693.182 494.492L693.055 492.496C695.998 492.323 698.692 492.568 700.728 493.178C701.744 493.483 702.646 493.893 703.336 494.43C704.031 494.97 704.57 495.688 704.693 496.588L702.71 496.85ZM696.493 493.971C695.4 494.116 694.334 494.286 693.305 494.477L692.931 492.512C693.995 492.314 695.094 492.139 696.221 491.99L696.493 493.971ZM713.896 495.8C713.87 495.609 713.67 495.224 712.778 494.785C711.925 494.366 710.66 494.015 709.034 493.779C705.795 493.309 701.354 493.328 696.493 493.971L696.221 491.99C701.212 491.329 705.845 491.298 709.313 491.801C711.04 492.051 712.537 492.443 713.655 492.993C714.734 493.523 715.714 494.333 715.879 495.537L713.896 495.8ZM697.604 502.087C702.466 501.443 706.754 500.307 709.751 499.012C711.256 498.362 712.381 497.694 713.09 497.069C713.833 496.414 713.922 495.99 713.896 495.8L715.879 495.537C716.044 496.741 715.317 497.777 714.419 498.569C713.488 499.39 712.15 500.157 710.552 500.847C707.343 502.234 702.866 503.408 697.876 504.068L697.604 502.087ZM680.21 500.306C680.261 500.516 680.529 500.912 681.456 501.338C682.34 501.745 683.617 502.08 685.235 502.303C688.459 502.748 692.83 502.719 697.604 502.087L697.876 504.068C692.973 504.717 688.416 504.759 684.97 504.283C683.253 504.047 681.76 503.674 680.626 503.153C679.535 502.651 678.538 501.898 678.265 500.766L680.21 500.306Z" fill="url(#paint9_radial_729_9309)" mask="url(#path-15-inside-3_729_9309)"/>
<path d="M708.608 500.354L686.522 503.277C689.281 518.36 688.755 525.92 685.726 538.506L718.856 534.122C712.259 521.897 709.836 514.571 708.608 500.354Z" fill="#C4C4C4"/>
<path d="M708.608 500.354L686.522 503.277C689.281 518.36 688.755 525.92 685.726 538.506L718.856 534.122C712.259 521.897 709.836 514.571 708.608 500.354Z" fill="white"/>
<mask id="path-18-inside-4_729_9309" fill="white">
<path fill-rule="evenodd" clip-rule="evenodd" d="M702.208 536.325L722.964 533.578C722.789 535.089 722.903 536.365 723.376 537.498C730.054 538.576 734.484 540.855 734.913 543.99C734.95 544.258 734.957 544.528 734.935 544.798L735.028 544.832L734.931 544.845C734.409 550.427 721.637 556.456 705.348 558.611C705.32 558.615 705.291 558.619 705.263 558.622L702.208 536.325Z"/>
</mask>
<path fill-rule="evenodd" clip-rule="evenodd" d="M702.208 536.325L722.964 533.578C722.789 535.089 722.903 536.365 723.376 537.498C730.054 538.576 734.484 540.855 734.913 543.99C734.95 544.258 734.957 544.528 734.935 544.798L735.028 544.832L734.931 544.845C734.409 550.427 721.637 556.456 705.348 558.611C705.32 558.615 705.291 558.619 705.263 558.622L702.208 536.325Z" fill="#C4C4C4"/>
<path fill-rule="evenodd" clip-rule="evenodd" d="M702.208 536.325L722.964 533.578C722.789 535.089 722.903 536.365 723.376 537.498C730.054 538.576 734.484 540.855 734.913 543.99C734.95 544.258 734.957 544.528 734.935 544.798L735.028 544.832L734.931 544.845C734.409 550.427 721.637 556.456 705.348 558.611C705.32 558.615 705.291 558.619 705.263 558.622L702.208 536.325Z" fill="#245089"/>
<path d="M702.208 536.325L701.217 536.456L701.081 535.465L702.073 535.334L702.208 536.325ZM722.964 533.578L722.828 532.588L724.105 532.419L723.958 533.697L722.964 533.578ZM723.376 537.498L723.22 538.484L722.668 538.395L722.452 537.878L723.376 537.498ZM734.935 544.798L734.597 545.737L733.875 545.476L733.937 544.713L734.935 544.798ZM735.028 544.832L735.366 543.893L735.164 545.823L735.028 544.832ZM734.931 544.845L733.934 544.748L734.008 543.958L734.795 543.854L734.931 544.845ZM705.263 558.622L705.398 559.613L704.407 559.743L704.272 558.754L705.263 558.622ZM702.073 535.334L722.828 532.588L723.099 534.569L702.344 537.316L702.073 535.334ZM723.958 533.697C723.796 535.097 723.912 536.189 724.299 537.117L722.452 537.878C721.895 536.542 721.783 535.082 721.97 533.46L723.958 533.697ZM723.531 536.511C726.931 537.06 729.832 537.924 731.967 539.097C734.082 540.259 735.627 541.832 735.905 543.859L733.922 544.122C733.77 543.013 732.885 541.879 731.009 540.848C729.152 539.828 726.499 539.013 723.22 538.484L723.531 536.511ZM735.905 543.859C735.951 544.2 735.96 544.542 735.932 544.883L733.937 544.713C733.954 544.513 733.949 544.316 733.922 544.122L735.905 543.859ZM735.272 543.859L735.366 543.893L734.69 545.771L734.597 545.737L735.272 543.859ZM735.164 545.823L735.066 545.836L734.795 543.854L734.892 543.841L735.164 545.823ZM735.927 544.942C735.763 546.694 734.662 548.33 733.054 549.789C731.43 551.262 729.18 552.656 726.48 553.919C721.073 556.445 713.705 558.514 705.484 559.602L705.213 557.62C713.281 556.553 720.443 554.529 725.625 552.108C728.218 550.895 730.278 549.601 731.704 548.307C733.147 546.998 733.837 545.787 733.934 544.748L735.927 544.942ZM705.484 559.602C705.455 559.606 705.426 559.609 705.398 559.613L705.128 557.631C705.156 557.628 705.184 557.624 705.213 557.62L705.484 559.602ZM704.272 558.754L701.217 536.456L703.2 536.194L706.254 558.491L704.272 558.754Z" fill="url(#paint10_radial_729_9309)" mask="url(#path-18-inside-4_729_9309)"/>
<mask id="path-20-inside-5_729_9309" fill="white">
<path fill-rule="evenodd" clip-rule="evenodd" d="M686.522 503.277L708.608 500.354C709.836 514.571 712.259 521.897 718.856 534.122L702.206 536.325L697.48 501.827L686.522 503.277C686.522 503.277 686.522 503.277 686.522 503.277Z"/>
</mask>
<path fill-rule="evenodd" clip-rule="evenodd" d="M686.522 503.277L708.608 500.354C709.836 514.571 712.259 521.897 718.856 534.122L702.206 536.325L697.48 501.827L686.522 503.277C686.522 503.277 686.522 503.277 686.522 503.277Z" fill="#C4C4C4"/>
<path fill-rule="evenodd" clip-rule="evenodd" d="M686.522 503.277L708.608 500.354C709.836 514.571 712.259 521.897 718.856 534.122L702.206 536.325L697.48 501.827L686.522 503.277C686.522 503.277 686.522 503.277 686.522 503.277Z" fill="#ABD0FF"/>
<path d="M708.608 500.354L708.473 499.363L709.515 499.225L709.605 500.272L708.608 500.354ZM686.522 503.277L685.531 503.408L685.395 502.417L686.386 502.286L686.522 503.277ZM718.856 534.122L719.736 533.65L720.423 534.923L718.992 535.112L718.856 534.122ZM702.206 536.325L702.342 537.316L701.351 537.447L701.215 536.456L702.206 536.325ZM697.48 501.827L697.345 500.836L698.336 500.705L698.472 501.695L697.48 501.827ZM686.522 503.277L686.658 504.268L685.667 504.399L685.531 503.408L686.522 503.277ZM708.744 501.345L686.658 504.267L686.386 502.286L708.473 499.363L708.744 501.345ZM717.976 534.593C711.319 522.258 708.852 514.8 707.611 500.435L709.605 500.272C710.82 514.342 713.199 521.537 719.736 533.65L717.976 534.593ZM702.071 535.334L718.72 533.131L718.992 535.112L702.342 537.316L702.071 535.334ZM701.215 536.456L696.489 501.958L698.472 501.695L703.198 536.194L701.215 536.456ZM697.616 502.817L686.658 504.268L686.386 502.286L697.345 500.836L697.616 502.817ZM687.513 503.145C687.511 503.124 687.507 503.107 687.506 503.097C687.505 503.091 687.504 503.087 687.503 503.085C687.503 503.082 687.502 503.08 687.502 503.081C687.502 503.081 687.502 503.081 687.502 503.081C687.502 503.081 687.502 503.081 687.502 503.081C687.502 503.081 687.502 503.081 687.502 503.081C687.502 503.081 687.502 503.081 687.502 503.081C687.502 503.081 687.502 503.081 687.502 503.081C687.502 503.081 687.503 503.081 687.503 503.082C687.503 503.082 687.503 503.083 687.503 503.085C687.504 503.087 687.505 503.091 687.506 503.097C687.508 503.107 687.511 503.124 687.513 503.146L685.531 503.408C685.534 503.429 685.537 503.446 685.539 503.457C685.54 503.462 685.541 503.466 685.541 503.469C685.542 503.471 685.542 503.473 685.542 503.473C685.542 503.473 685.542 503.473 685.542 503.473C685.542 503.473 685.542 503.473 685.542 503.473C685.542 503.473 685.542 503.473 685.542 503.473C685.542 503.473 685.542 503.473 685.542 503.473C685.542 503.473 685.542 503.473 685.542 503.473C685.542 503.472 685.542 503.472 685.542 503.472C685.542 503.471 685.541 503.47 685.541 503.469C685.541 503.466 685.54 503.462 685.539 503.457C685.537 503.446 685.534 503.429 685.531 503.408L687.513 503.145Z" fill="url(#paint11_radial_729_9309)" mask="url(#path-20-inside-5_729_9309)"/>
<path d="M708.608 500.354L708.473 499.363L709.515 499.225L709.605 500.272L708.608 500.354ZM686.522 503.277L685.531 503.408L685.395 502.417L686.386 502.286L686.522 503.277ZM718.856 534.122L719.736 533.65L720.423 534.923L718.992 535.112L718.856 534.122ZM702.206 536.325L702.342 537.316L701.351 537.447L701.215 536.456L702.206 536.325ZM697.48 501.827L697.345 500.836L698.336 500.705L698.472 501.695L697.48 501.827ZM686.522 503.277L686.658 504.268L685.667 504.399L685.531 503.408L686.522 503.277ZM708.744 501.345L686.658 504.267L686.386 502.286L708.473 499.363L708.744 501.345ZM717.976 534.593C711.319 522.258 708.852 514.8 707.611 500.435L709.605 500.272C710.82 514.342 713.199 521.537 719.736 533.65L717.976 534.593ZM702.071 535.334L718.72 533.131L718.992 535.112L702.342 537.316L702.071 535.334ZM701.215 536.456L696.489 501.958L698.472 501.695L703.198 536.194L701.215 536.456ZM697.616 502.817L686.658 504.268L686.386 502.286L697.345 500.836L697.616 502.817ZM687.513 503.145C687.511 503.124 687.507 503.107 687.506 503.097C687.505 503.091 687.504 503.087 687.503 503.085C687.503 503.082 687.502 503.08 687.502 503.081C687.502 503.081 687.502 503.081 687.502 503.081C687.502 503.081 687.502 503.081 687.502 503.081C687.502 503.081 687.502 503.081 687.502 503.081C687.502 503.081 687.502 503.081 687.502 503.081C687.502 503.081 687.502 503.081 687.502 503.081C687.502 503.081 687.503 503.081 687.503 503.082C687.503 503.082 687.503 503.083 687.503 503.085C687.504 503.087 687.505 503.091 687.506 503.097C687.508 503.107 687.511 503.124 687.513 503.146L685.531 503.408C685.534 503.429 685.537 503.446 685.539 503.457C685.54 503.462 685.541 503.466 685.541 503.469C685.542 503.471 685.542 503.473 685.542 503.473C685.542 503.473 685.542 503.473 685.542 503.473C685.542 503.473 685.542 503.473 685.542 503.473C685.542 503.473 685.542 503.473 685.542 503.473C685.542 503.473 685.542 503.473 685.542 503.473C685.542 503.473 685.542 503.473 685.542 503.473C685.542 503.472 685.542 503.472 685.542 503.472C685.542 503.471 685.541 503.47 685.541 503.469C685.541 503.466 685.54 503.462 685.539 503.457C685.537 503.446 685.534 503.429 685.531 503.408L687.513 503.145Z" fill="url(#paint12_radial_729_9309)" mask="url(#path-20-inside-5_729_9309)"/>
<path fill-rule="evenodd" clip-rule="evenodd" d="M1157.97 610.998C1346.88 629.017 2013.1 488.795 2159.5 609.5C2307.06 731.162 1888.03 1012.91 1876.89 1203.75C1867.1 1371.49 1709.02 1483.25 1653.5 1641.83C1585.5 1836.07 1681.24 2103.19 1518.06 2228.68C1358.52 2351.37 1078.09 2273.69 883.742 2221.17C710.541 2174.36 583.7 2083.82 469.678 1945.36C362.289 1814.95 382.091 1631.89 330.606 1471.03C267.162 1272.79 65.7551 1091.5 133.411 894.687C200.476 699.587 442.232 622.716 641.145 567.64C811.921 520.354 981.555 594.171 1157.97 610.998Z" fill="url(#paint13_linear_729_9309)"/>
<path d="M882.024 411.721L821.035 401.815C822.661 456.396 810.389 486.449 771.761 541.032L884.703 559.377C867.243 495.375 863.012 462.252 882.024 411.721Z" fill="white"/>
<mask id="path-24-outside-6_729_9309" maskUnits="userSpaceOnUse" x="826.195" y="404.508" width="84.099" height="156.852" fill="black">
<rect fill="white" x="826.195" y="404.508" width="84.099" height="156.852"/>
<path fill-rule="evenodd" clip-rule="evenodd" d="M851.529 406.769L882.023 411.722C863.012 462.252 867.242 495.376 884.702 559.377L828.231 550.205L851.529 406.769Z"/>
</mask>
<path fill-rule="evenodd" clip-rule="evenodd" d="M851.529 406.769L882.023 411.722C863.012 462.252 867.242 495.376 884.702 559.377L828.231 550.205L851.529 406.769Z" fill="#CFE4FF"/>
<path d="M882.023 411.722L882.206 410.592L883.586 410.816L883.094 412.124L882.023 411.722ZM851.529 406.769L850.399 406.585L850.583 405.456L851.712 405.639L851.529 406.769ZM884.702 559.377L885.806 559.076L886.274 560.792L884.519 560.507L884.702 559.377ZM828.231 550.205L828.048 551.335L826.918 551.151L827.102 550.022L828.231 550.205ZM881.84 412.851L851.345 407.898L851.712 405.639L882.206 410.592L881.84 412.851ZM883.598 559.679C874.866 527.67 869.411 503.28 868.542 480.542C867.672 457.768 871.402 436.702 880.952 411.319L883.094 412.124C873.633 437.272 869.972 458.033 870.829 480.454C871.687 502.911 877.078 527.083 885.806 559.076L883.598 559.679ZM828.415 549.076L884.886 558.248L884.519 560.507L828.048 551.335L828.415 549.076ZM827.102 550.022L850.399 406.585L852.658 406.952L829.361 550.389L827.102 550.022Z" fill="#245089" mask="url(#path-24-outside-6_729_9309)"/>
<path d="M753.601 552.613L897.429 576.345C905.609 577.694 911.105 586.634 909.471 596.435L904.16 628.277L730.372 599.602L735.683 567.76C737.318 557.959 745.422 551.264 753.601 552.613Z" fill="#4F9BFA" stroke="url(#paint14_radial_729_9309)" stroke-width="1.14422"/>
<path d="M897.505 575.758L827.099 564.108L818.699 614.67L904.654 628.894L910.035 596.505C911.7 586.484 906.079 577.177 897.505 575.758Z" fill="#245089"/>
<path d="M722.95 586.074L915.8 617.724L912.901 634.92L720.051 603.27L722.95 586.074Z" fill="#245089"/>
<rect width="151.037" height="14.8749" rx="7.43745" transform="matrix(-0.987065 -0.160323 -0.160323 0.987065 902.775 562.312)" fill="#245089"/>
<rect width="91.5379" height="14.8749" rx="7.43745" transform="matrix(-0.987065 -0.160323 -0.160323 0.987065 899.094 399.423)" fill="#245089"/>
<rect width="70.9418" height="14.8749" rx="7.43745" transform="matrix(-0.987065 -0.160323 -0.160323 0.987065 891.311 383.09)" fill="#245089"/>
<path fill-rule="evenodd" clip-rule="evenodd" d="M867.164 274.839L878.458 276.673L875.706 293.615L887 295.45L885.166 306.744L873.872 304.91L871.12 321.85L859.826 320.016L862.577 303.075L851.283 301.241L853.118 289.947L864.412 291.781L867.164 274.839Z" fill="#245089"/>
<path d="M908.566 339.26C909.734 337.041 908.9 334.287 906.66 333.158C880.511 319.988 852.973 315.496 822.612 319.545C820.099 319.88 818.395 322.246 818.806 324.747L826.653 372.588L885.948 382.219L908.566 339.26Z" fill="white"/>
<mask id="path-34-inside-7_729_9309" fill="white">
<path fill-rule="evenodd" clip-rule="evenodd" d="M865.652 319.802C879.802 322.037 893.408 326.483 906.658 333.156C908.898 334.285 909.732 337.039 908.564 339.258L885.946 382.217L826.651 372.586L826.651 372.584L856.297 377.399L865.652 319.802Z"/>
</mask>
<path fill-rule="evenodd" clip-rule="evenodd" d="M865.652 319.802C879.802 322.037 893.408 326.483 906.658 333.156C908.898 334.285 909.732 337.039 908.564 339.258L885.946 382.217L826.651 372.586L826.651 372.584L856.297 377.399L865.652 319.802Z" fill="#CFE4FF"/>
<path d="M906.658 333.156L907.172 332.134L907.172 332.134L906.658 333.156ZM865.652 319.802L864.523 319.619L864.706 318.494L865.831 318.672L865.652 319.802ZM908.564 339.258L907.551 338.725L908.564 339.258ZM885.946 382.217L886.958 382.75L886.575 383.478L885.762 383.347L885.946 382.217ZM826.651 372.586L826.468 373.716L825.656 373.584L825.522 372.772L826.651 372.586ZM826.651 372.584L825.522 372.77L825.264 371.199L826.834 371.455L826.651 372.584ZM856.297 377.399L857.427 377.583L857.243 378.712L856.114 378.529L856.297 377.399ZM906.143 334.178C892.994 327.555 879.501 323.148 865.474 320.932L865.831 318.672C880.103 320.926 893.822 325.41 907.172 332.134L906.143 334.178ZM907.551 338.725C908.431 337.053 907.793 335.009 906.143 334.178L907.172 332.134C910.003 333.56 911.033 337.024 909.576 339.791L907.551 338.725ZM884.933 381.684L907.551 338.725L909.576 339.791L886.958 382.75L884.933 381.684ZM826.835 371.457L886.129 381.088L885.762 383.347L826.468 373.716L826.835 371.457ZM827.78 372.398L827.78 372.401L825.522 372.772L825.522 372.77L827.78 372.398ZM826.834 371.455L856.481 376.27L856.114 378.529L826.467 373.713L826.834 371.455ZM855.168 377.216L864.523 319.619L866.782 319.986L857.427 377.583L855.168 377.216Z" fill="url(#paint15_linear_729_9309)" mask="url(#path-34-inside-7_729_9309)"/>
<path d="M934.5 591C949.843 592.091 892.499 569.419 856.011 569.419C839.166 569.419 812.335 577.651 803.002 583.596C811.662 584.225 918.998 589.898 934.5 591Z" fill="#DAB42E"/>
<path fill-rule="evenodd" clip-rule="evenodd" d="M1208.37 631.169C1018.99 618.966 776.204 527.57 612.499 623.5C447.496 720.191 423.752 912.066 404.449 1102.26C387.484 1269.42 525.818 1404.86 555.456 1570.25C591.757 1772.82 454.818 2021.35 595.999 2171.15C734.033 2317.62 1023.25 2285.45 1223.47 2264.45C1401.9 2245.74 1541.51 2176.49 1676.07 2057.88C1802.8 1946.18 1812.32 1762.3 1888.69 1611.65C1982.8 1426 2210.44 1278.99 2174.89 1073.93C2139.65 870.66 2248.14 670.46 2060.5 584.5C1899.4 510.699 1385.22 642.566 1208.37 631.169Z" fill="#FFE79B"/>
<path fill-rule="evenodd" clip-rule="evenodd" d="M1208.37 631.169C1018.99 618.966 776.204 527.57 612.499 623.5C447.496 720.191 423.752 912.066 404.449 1102.26C387.484 1269.42 525.818 1404.86 555.456 1570.25C591.757 1772.82 454.818 2021.35 595.999 2171.15C734.033 2317.62 1023.25 2285.45 1223.47 2264.45C1401.9 2245.74 1541.51 2176.49 1676.07 2057.88C1802.8 1946.18 1812.32 1762.3 1888.69 1611.65C1982.8 1426 2210.44 1278.99 2174.89 1073.93C2139.65 870.66 2248.14 670.46 2060.5 584.5C1899.4 510.699 1385.22 642.566 1208.37 631.169Z" fill="url(#paint16_radial_729_9309)"/>
<path fill-rule="evenodd" clip-rule="evenodd" d="M1827.34 1692.76C1750.29 1866.18 1757.38 2097.35 1596.44 2197.86C1434.23 2299.17 1214.47 2257.48 1037.03 2186.33C881.083 2123.8 825.285 1938.42 692.527 1835.43C529.923 1709.29 246.227 1715.28 179.025 1520.71C113.321 1330.48 276.006 1089.2 387.503 921.581C486.87 772.197 293.999 695.303 461.498 631.132C619.251 570.695 1105.55 632.935 1274.43 635.178C1482.55 637.941 2051.34 517.867 2216.5 644.5C2380.22 770.029 2043.43 1010.31 2032.52 1216.42C2023.15 1393.38 1899.3 1530.81 1827.34 1692.76Z" fill="#1187DC"/>
<path fill-rule="evenodd" clip-rule="evenodd" d="M272.841 1499.69C225.742 1315.86 76.8171 1138.9 140.736 960.254C205.163 780.186 403.417 676.605 586.734 622.379C747.852 574.72 906.591 685.547 1074.61 684.011C1280.39 682.131 1486.62 600.037 1660 711C1829.52 819.49 1864.13 1011.11 1880.62 1211.75C1895.31 1390.56 1853.13 1540.59 1761.53 1694.8C1675.26 1840.05 1496.33 1883.48 1362.45 1986.46C1197.47 2113.36 1095.2 2364.3 887.105 2367.38C680.823 2370.44 526.538 2169.06 407.282 2000.61C304.895 1855.98 316.825 1671.36 272.841 1499.69Z" fill="#2EA1F3"/>
<path fill-rule="evenodd" clip-rule="evenodd" d="M1716.32 658.83C1905.64 645.687 2106.57 531.149 2270.75 626.265C2436.23 722.136 2502.32 935.829 2522.57 1125.92C2540.36 1293 2402.7 1429.12 2373.89 1594.66C2338.59 1797.41 2476.76 2045.25 2336.33 2195.76C2199.02 2342.91 1909.65 2312.17 1709.33 2292.17C1530.8 2274.34 1390.85 2205.78 1255.71 2087.85C1128.42 1976.77 1117.99 1792.94 1040.88 1642.68C945.842 1457.5 659.97 993.236 694.5 788C728.729 584.555 1075 768.5 1199.37 700.646C1354.92 615.777 1539.53 671.104 1716.32 658.83Z" fill="#087BCD"/>
<path fill-rule="evenodd" clip-rule="evenodd" d="M2455.68 898.231C2626.43 981.034 2857.71 981.666 2952.79 1145.87C3048.63 1311.37 2999.62 1529.62 2922.59 1704.58C2854.89 1858.36 2667.75 1907.93 2560.38 2037.18C2428.88 2195.48 2425.4 2479.22 2228.69 2539.88C2036.37 2599.2 1800.66 2428.55 1636.86 2311.52C1490.87 2207.22 1403.6 2078.11 1345.05 1908.56C1289.92 1748.88 1372.35 1584.24 1380.23 1415.52C1389.94 1207.61 1030.42 979.34 1162.5 818.5C1293.43 659.063 1780.84 659.474 1986.46 677.264C2163.01 692.538 2296.22 820.905 2455.68 898.231Z" fill="url(#paint17_linear_729_9309)"/>
<path fill-rule="evenodd" clip-rule="evenodd" d="M2455.68 898.231C2626.43 981.034 2857.71 981.666 2952.79 1145.87C3048.63 1311.37 2999.62 1529.62 2922.59 1704.58C2854.89 1858.36 2667.75 1907.93 2560.38 2037.18C2428.88 2195.48 2425.4 2479.22 2228.69 2539.88C2036.37 2599.2 1800.66 2428.55 1636.86 2311.52C1490.87 2207.22 1403.6 2078.11 1345.05 1908.56C1289.92 1748.88 1372.35 1584.24 1380.23 1415.52C1389.94 1207.61 1030.42 979.34 1162.5 818.5C1293.43 659.063 1780.84 659.474 1986.46 677.264C2163.01 692.538 2296.22 820.905 2455.68 898.231Z" fill="url(#paint18_linear_729_9309)" fill-opacity="0.3"/>
<path fill-rule="evenodd" clip-rule="evenodd" d="M2455.68 898.231C2626.43 981.034 2857.71 981.666 2952.79 1145.87C3048.63 1311.37 2999.62 1529.62 2922.59 1704.58C2854.89 1858.36 2667.75 1907.93 2560.38 2037.18C2428.88 2195.48 2425.4 2479.22 2228.69 2539.88C2036.37 2599.2 1800.66 2428.55 1636.86 2311.52C1490.87 2207.22 1403.6 2078.11 1345.05 1908.56C1289.92 1748.88 1372.35 1584.24 1380.23 1415.52C1389.94 1207.61 1030.42 979.34 1162.5 818.5C1293.43 659.063 1780.84 659.474 1986.46 677.264C2163.01 692.538 2296.22 820.905 2455.68 898.231Z" fill="#2EA1F4"/>
<path d="M1554.44 628.514C1500.83 644.159 1672.13 645.836 1765.28 638.915C1802.65 632.178 1884.64 614.184 1913.72 596.108C1950.06 573.514 1608.05 612.868 1554.44 628.514Z" fill="url(#paint19_linear_729_9309)"/>
<path d="M1596.65 625.214C1555.91 637.103 1686.09 638.378 1756.88 633.118C1785.28 627.998 1847.59 614.324 1869.68 600.587C1897.3 583.416 1637.39 613.324 1596.65 625.214Z" fill="url(#paint20_linear_729_9309)"/>
<path d="M879.195 612.949C838.044 616.087 961.656 643.423 1030.07 652.623C1058.11 653.45 1120.15 652.943 1143.92 644.306C1173.65 633.511 920.346 609.812 879.195 612.949Z" fill="url(#paint21_linear_729_9309)"/>
<path d="M866.502 571.001C824.5 562 817.999 554 791.5 550.5C774.999 548.321 772.968 551.959 764.002 555.001C772.502 556.501 851.288 568.333 866.502 571.001Z" fill="#D9DB65"/>
<path fill-rule="evenodd" clip-rule="evenodd" d="M2240.27 2520.92C2106.55 2802.11 2512.16 5453.54 2243.94 5611.6C1973.6 5770.9 815.976 5837.66 527.946 5713.47C274.796 5604.32 586.291 2881.5 372.893 2706.96C111.518 2493.19 -354.06 2491.03 -456.061 2169.05C-555.79 1854.25 -437.481 1048.7 -247.516 778.48C-78.2195 537.656 342.984 791.211 568.69 711.344C829.996 618.881 1064.04 719.148 1340.96 729.965C1682.2 743.295 2420.95 547.312 2686.49 762C2949.73 974.815 2623.55 1410.69 2596.94 1748.3C2574.09 2038.14 2365.14 2258.32 2240.27 2520.92Z" fill="white"/>
<path fill-rule="evenodd" clip-rule="evenodd" d="M890 207C895.816 207 900.804 210.547 902.919 215.596C907.938 212.674 913.774 211 920 211C934.516 211 946.907 220.096 951.784 232.9C953.584 232.316 955.505 232 957.5 232C966.454 232 974.049 238.628 975.678 247.124C976.085 249.254 974.266 251 972.098 251H840C837.791 251 835.939 249.167 836.607 247.062C838.276 241.807 843.193 238 849 238C850.57 238 852.074 238.278 853.467 238.788C857.302 232.896 863.946 229 871.5 229C874.486 229 877.329 229.609 879.913 230.708C877.49 228.191 876 224.77 876 221C876 213.268 882.268 207 890 207ZM885.648 234.31C886.206 234.798 886.738 235.315 887.243 235.858C887.343 235.499 887.449 235.142 887.56 234.788C886.906 234.673 886.267 234.513 885.648 234.31Z" fill="white"/>
<path fill-rule="evenodd" clip-rule="evenodd" d="M1676 207C1670.18 207 1665.2 210.547 1663.08 215.596C1658.06 212.674 1652.23 211 1646 211C1631.48 211 1619.09 220.096 1614.22 232.9C1612.42 232.316 1610.49 232 1608.5 232C1599.55 232 1591.95 238.628 1590.32 247.124C1589.91 249.254 1591.73 251 1593.9 251H1726C1728.21 251 1730.06 249.167 1729.39 247.062C1727.72 241.807 1722.81 238 1717 238C1715.43 238 1713.93 238.278 1712.53 238.788C1708.7 232.896 1702.05 229 1694.5 229C1691.51 229 1688.67 229.609 1686.09 230.708C1688.51 228.191 1690 224.77 1690 221C1690 213.268 1683.73 207 1676 207ZM1680.35 234.31C1679.79 234.798 1679.26 235.315 1678.76 235.858C1678.66 235.499 1678.55 235.142 1678.44 234.788C1679.09 234.673 1679.73 234.513 1680.35 234.31Z" fill="white"/>
<path fill-rule="evenodd" clip-rule="evenodd" d="M1851.76 237C1843.39 237 1836.22 242.102 1833.18 249.364C1825.96 245.161 1817.56 242.754 1808.61 242.754C1795.35 242.754 1783.32 248.032 1774.51 256.602C1772.31 256.013 1770 255.699 1767.61 255.699C1752.92 255.699 1741 267.614 1741 282.31C1741 288.61 1743.19 294.398 1746.85 298.956C1747.55 299.83 1748.63 300.29 1749.75 300.29H1922C1924.85 300.29 1926.72 297.368 1924.85 295.214C1921.42 291.274 1916.37 288.783 1910.73 288.783C1907.62 288.783 1904.69 289.544 1902.1 290.89C1902.08 274.005 1888.52 260.294 1871.69 260.019C1871.83 259.078 1871.9 258.116 1871.9 257.138C1871.9 246.016 1862.88 237 1851.76 237Z" fill="white"/>
</g>
<mask id="mask0_729_9309" style="mask-type:alpha" maskUnits="userSpaceOnUse" x="1589" y="381" width="256" height="287">
<path d="M1590.31 465.086C1601.13 455.691 1643.77 400.249 1668.85 392.763L1786.53 381.752C1807.08 411.397 1858.94 568.402 1839.37 576.216C1774.88 601.953 1770.66 639.347 1711.65 631.019C1671.42 625.341 1642.06 654.461 1629.7 665.922L1590.31 465.086Z" fill="#D9D9D9" stroke="black" stroke-width="1.18675"/>
</mask>
<g mask="url(#mask0_729_9309)">
<path d="M1794.54 549.149C1788.31 532.731 1780.47 519.096 1773.55 512.676C1759.05 499.211 1743.93 495.381 1733.8 494.538C1722.69 493.615 1715.06 495.906 1714.22 496.171L1776.87 589.115L1802.7 582.835L1802.34 578.691C1801.75 571.936 1798.47 559.512 1794.54 549.149Z" fill="#245089"/>
<path d="M1798.23 615.899C1797.84 615.708 1794.34 613.911 1790.38 609.07C1786.44 604.264 1781.25 595.403 1778.81 580.481C1773.49 547.819 1764.31 525.315 1750.75 511.683C1739.92 500.796 1728.06 497.75 1720.23 496.391C1716.27 487.11 1709.37 483.392 1704.01 481.924C1697.83 480.235 1692.55 481.218 1691.97 481.335L1686.22 482.499L1690.17 499.184C1687.74 500.557 1685.46 502.219 1683.38 504.154C1673.06 513.753 1664.02 525.682 1657.42 534.392C1654.03 538.857 1651.11 542.714 1649.13 544.792C1646.43 547.61 1645.04 551.303 1645.2 555.192C1645.35 558.983 1646.96 562.469 1649.73 565.042C1652.09 567.554 1661.63 576.948 1670.42 574.814C1671.24 574.616 1672.05 574.317 1672.85 573.905L1688.96 565.398C1694.7 562.43 1695.42 562.526 1697.54 562.809C1699.7 563.098 1702.98 563.534 1709.18 562.757C1709.51 562.715 1709.85 562.668 1710.18 562.618C1709.25 566.956 1707.8 572.758 1706.45 578.137C1703.83 588.606 1700.58 601.636 1697.89 615.349C1695.27 628.773 1698.45 636.618 1700.15 640.832C1700.33 641.257 1700.54 641.785 1700.68 642.179L1698.26 650.663L1797.31 626.619L1814.95 622.435L1798.23 615.899Z" fill="white"/>
<path d="M1649.16 544.745L1649.43 545.003C1646.81 547.75 1645.44 551.347 1645.6 555.136C1645.74 558.829 1647.31 562.221 1650.01 564.725L1650.02 564.734L1650.03 564.743C1651.2 565.989 1654.15 568.938 1657.89 571.307C1661.64 573.684 1666.11 575.429 1670.36 574.395C1671.15 574.203 1671.93 573.914 1672.7 573.515C1672.7 573.515 1672.7 573.514 1672.7 573.514L1688.83 564.994L1688.83 564.993C1691.7 563.508 1693.35 562.77 1694.56 562.445C1695.79 562.114 1696.56 562.216 1697.63 562.357L1697.64 562.359L1697.64 562.359C1699.79 562.644 1703.03 563.074 1709.19 562.297L1709.23 562.668L1709.19 562.297C1709.52 562.256 1709.85 562.209 1710.18 562.159L1710.71 562.077L1710.6 562.606C1709.66 566.953 1708.2 572.764 1706.86 578.143C1704.23 588.617 1700.97 601.643 1698.27 615.349C1695.66 628.669 1698.8 636.433 1700.49 640.617L1700.5 640.624C1700.67 641.047 1700.89 641.582 1701.03 641.982L1701.07 642.096L1701.04 642.213L1698.78 650.084L1747.71 638.175L1710.57 485.043C1708.33 483.633 1706.06 482.741 1704.01 482.183L1704.01 482.183C1697.92 480.521 1692.71 481.497 1692.15 481.609C1692.15 481.609 1692.15 481.609 1692.15 481.609L1686.77 482.701L1690.62 499.01L1690.69 499.284L1690.44 499.422C1688.03 500.783 1685.78 502.43 1683.71 504.347C1673.41 513.93 1664.37 525.842 1657.76 534.562L1657.74 534.582C1654.37 539.033 1651.43 542.907 1649.43 545.003L1649.16 544.745Z" fill="#CFE4FF"/>
<path d="M1649.16 544.745L1649.43 545.003C1646.81 547.75 1645.44 551.347 1645.6 555.136C1645.74 558.829 1647.31 562.221 1650.01 564.725L1650.02 564.734L1650.03 564.743C1651.2 565.989 1654.15 568.938 1657.89 571.307C1661.64 573.684 1666.11 575.429 1670.36 574.395C1671.15 574.203 1671.93 573.914 1672.7 573.515C1672.7 573.515 1672.7 573.514 1672.7 573.514L1688.83 564.994L1688.83 564.993C1691.7 563.508 1693.35 562.77 1694.56 562.445C1695.79 562.114 1696.56 562.216 1697.63 562.357L1697.64 562.359L1697.64 562.359C1699.79 562.644 1703.03 563.074 1709.19 562.297L1709.23 562.668L1709.19 562.297C1709.52 562.256 1709.85 562.209 1710.18 562.159L1710.71 562.077L1710.6 562.606C1709.66 566.953 1708.2 572.764 1706.86 578.143C1704.23 588.617 1700.97 601.643 1698.27 615.349C1695.66 628.669 1698.8 636.433 1700.49 640.617L1700.5 640.624C1700.67 641.047 1700.89 641.582 1701.03 641.982L1701.07 642.096L1701.04 642.213L1698.78 650.084L1747.71 638.175L1710.57 485.043C1708.33 483.633 1706.06 482.741 1704.01 482.183L1704.01 482.183C1697.92 480.521 1692.71 481.497 1692.15 481.609C1692.15 481.609 1692.15 481.609 1692.15 481.609L1686.77 482.701L1690.62 499.01L1690.69 499.284L1690.44 499.422C1688.03 500.783 1685.78 502.43 1683.71 504.347C1673.41 513.93 1664.37 525.842 1657.76 534.562L1657.74 534.582C1654.37 539.033 1651.43 542.907 1649.43 545.003L1649.16 544.745Z" stroke="url(#paint22_radial_729_9309)" stroke-width="0.746045"/>
<path d="M1649.16 544.745L1649.43 545.003C1646.81 547.75 1645.44 551.347 1645.6 555.136C1645.74 558.829 1647.31 562.221 1650.01 564.725L1650.02 564.734L1650.03 564.743C1651.2 565.989 1654.15 568.938 1657.89 571.307C1661.64 573.684 1666.11 575.429 1670.36 574.395C1671.15 574.203 1671.93 573.914 1672.7 573.515C1672.7 573.515 1672.7 573.514 1672.7 573.514L1688.83 564.994L1688.83 564.993C1691.7 563.508 1693.35 562.77 1694.56 562.445C1695.79 562.114 1696.56 562.216 1697.63 562.357L1697.64 562.359L1697.64 562.359C1699.79 562.644 1703.03 563.074 1709.19 562.297L1709.23 562.668L1709.19 562.297C1709.52 562.256 1709.85 562.209 1710.18 562.159L1710.71 562.077L1710.6 562.606C1709.66 566.953 1708.2 572.764 1706.86 578.143C1704.23 588.617 1700.97 601.643 1698.27 615.349C1695.66 628.669 1698.8 636.433 1700.49 640.617L1700.5 640.624C1700.67 641.047 1700.89 641.582 1701.03 641.982L1701.07 642.096L1701.04 642.213L1698.78 650.084L1747.71 638.175L1710.57 485.043C1708.33 483.633 1706.06 482.741 1704.01 482.183L1704.01 482.183C1697.92 480.521 1692.71 481.497 1692.15 481.609C1692.15 481.609 1692.15 481.609 1692.15 481.609L1686.77 482.701L1690.62 499.01L1690.69 499.284L1690.44 499.422C1688.03 500.783 1685.78 502.43 1683.71 504.347C1673.41 513.93 1664.37 525.842 1657.76 534.562L1657.74 534.582C1654.37 539.033 1651.43 542.907 1649.43 545.003L1649.16 544.745Z" stroke="url(#paint23_radial_729_9309)" stroke-width="0.746045"/>
<path d="M1796.76 598.442L1688.73 624.55C1682.49 626.057 1678.66 632.359 1680.18 638.596L1685.19 659.041L1815.84 627.465L1810.84 607.02C1809.31 600.782 1802.99 596.934 1796.76 598.442Z" fill="#4F9BFA" stroke="url(#paint24_radial_729_9309)" stroke-width="0.746045"/>
<path d="M1688.65 624.172L1741.53 611.37L1749.45 643.837L1684.89 659.467L1679.82 638.669C1678.25 632.234 1682.21 625.731 1688.65 624.172Z" fill="#245089"/>
<path d="M1699.78 534.424C1702.67 533.724 1704.82 530.517 1703.96 527.573C1703.1 524.619 1700.19 522.649 1697.1 523.4C1694.21 524.101 1692.06 527.307 1692.92 530.252C1693.78 533.205 1696.69 535.175 1699.78 534.424Z" fill="#245089"/>
<path opacity="0.89" d="M1697.14 530.732C1698.67 530.36 1699.82 528.654 1699.36 527.089C1698.9 525.518 1697.36 524.47 1695.71 524.87C1694.18 525.242 1693.03 526.947 1693.49 528.513C1693.95 530.084 1695.49 531.132 1697.14 530.732Z" fill="url(#paint25_radial_729_9309)"/>
<path d="M1823.74 618.165L1673.73 654.34L1676.45 665.382L1826.45 629.206L1823.74 618.165Z" fill="#245089"/>
<path d="M1747.6 636.508L1673.74 654.339L1676.44 665.375L1750.3 647.544L1747.6 636.508Z" fill="#245089"/>
</g>
</g>
<defs>
<radialGradient id="paint0_radial_729_9309" cx="0" cy="0" r="1" gradientUnits="userSpaceOnUse" gradientTransform="translate(906 67.5) rotate(87.5948) scale(309.773 619.635)">
<stop stop-color="#60D7FD"/>
<stop offset="1" stop-color="#60D7FD" stop-opacity="0"/>
</radialGradient>
<linearGradient id="paint1_linear_729_9309" x1="1263.5" y1="70" x2="1263.5" y2="444" gradientUnits="userSpaceOnUse">
<stop stop-color="#40A3FF"/>
<stop offset="1" stop-color="#60D7FD" stop-opacity="0"/>
</linearGradient>
<linearGradient id="paint2_linear_729_9309" x1="1263.5" y1="1.50011" x2="1263.5" y2="354.5" gradientUnits="userSpaceOnUse">
<stop stop-color="#2BCAFC"/>
<stop offset="1" stop-color="#60D7FD" stop-opacity="0"/>
</linearGradient>
<radialGradient id="paint3_radial_729_9309" cx="0" cy="0" r="1" gradientUnits="userSpaceOnUse" gradientTransform="translate(1280 1045) rotate(-90) scale(1061.36)">
<stop stop-color="#C1F4FF"/>
<stop offset="1" stop-color="white" stop-opacity="0"/>
</radialGradient>
<radialGradient id="paint4_radial_729_9309" cx="0" cy="0" r="1" gradientUnits="userSpaceOnUse" gradientTransform="translate(1280 1045) rotate(-90) scale(956.498)">
<stop stop-color="#C1F4FF"/>
<stop offset="1" stop-color="white" stop-opacity="0"/>
</radialGradient>
<radialGradient id="paint5_radial_729_9309" cx="0" cy="0" r="1" gradientUnits="userSpaceOnUse" gradientTransform="translate(1280 1045) rotate(-90) scale(884.5)">
<stop stop-color="#C1F4FF"/>
<stop offset="1" stop-color="white" stop-opacity="0"/>
</radialGradient>
<linearGradient id="paint6_linear_729_9309" x1="701.103" y1="528.029" x2="705.272" y2="558.622" gradientUnits="userSpaceOnUse">
<stop stop-color="white"/>
<stop offset="0.567945" stop-color="white" stop-opacity="0"/>
</linearGradient>
<radialGradient id="paint7_radial_729_9309" cx="0" cy="0" r="1" gradientUnits="userSpaceOnUse" gradientTransform="translate(682.46 538.939) rotate(58.4248) scale(7.43917 20.6403)">
<stop stop-color="#245089"/>
<stop offset="1" stop-color="#245089" stop-opacity="0"/>
</radialGradient>
<radialGradient id="paint8_radial_729_9309" cx="0" cy="0" r="1" gradientUnits="userSpaceOnUse" gradientTransform="translate(703.335 467.214) rotate(133.947) scale(6.81906 32.3458)">
<stop stop-color="white"/>
<stop offset="0.460906" stop-color="white" stop-opacity="0"/>
</radialGradient>
<radialGradient id="paint9_radial_729_9309" cx="0" cy="0" r="1" gradientUnits="userSpaceOnUse" gradientTransform="translate(712.956 499.565) rotate(-129.141) scale(9.47287 5.17115)">
<stop stop-color="#3773C0"/>
<stop offset="1" stop-opacity="0"/>
</radialGradient>
<radialGradient id="paint10_radial_729_9309" cx="0" cy="0" r="1" gradientUnits="userSpaceOnUse" gradientTransform="translate(729.688 533.071) rotate(85.8227) scale(11.3455 31.6924)">
<stop stop-color="#245089"/>
<stop offset="1" stop-color="#245089" stop-opacity="0"/>
</radialGradient>
<radialGradient id="paint11_radial_729_9309" cx="0" cy="0" r="1" gradientUnits="userSpaceOnUse" gradientTransform="translate(708.371 505.74) rotate(144.386) scale(32.9315 13.5203)">
<stop stop-color="#3773C0"/>
<stop offset="1" stop-opacity="0"/>
</radialGradient>
<radialGradient id="paint12_radial_729_9309" cx="0" cy="0" r="1" gradientUnits="userSpaceOnUse" gradientTransform="translate(689.029 521.577) rotate(167.904) scale(5.34309 16.3313)">
<stop stop-color="#3773C0"/>
<stop offset="1" stop-opacity="0"/>
</radialGradient>
<linearGradient id="paint13_linear_729_9309" x1="943.772" y1="1384.14" x2="1919.81" y2="1018.82" gradientUnits="userSpaceOnUse">
<stop stop-color="#D1D451"/>
<stop offset="1" stop-color="#EAEC99"/>
</linearGradient>
<radialGradient id="paint14_radial_729_9309" cx="0" cy="0" r="1" gradientUnits="userSpaceOnUse" gradientTransform="translate(748.341 552.042) rotate(94.9669) scale(25.8872 89.7091)">
<stop stop-color="#245089"/>
<stop offset="1" stop-color="#245089" stop-opacity="0"/>
</radialGradient>
<linearGradient id="paint15_linear_729_9309" x1="898" y1="371.5" x2="863" y2="352.5" gradientUnits="userSpaceOnUse">
<stop stop-color="#245089"/>
<stop offset="0.421741" stop-color="#245089"/>
<stop offset="0.780889" stop-color="#245089" stop-opacity="0"/>
</linearGradient>
<radialGradient id="paint16_radial_729_9309" cx="0" cy="0" r="1" gradientUnits="userSpaceOnUse" gradientTransform="translate(2018 688.5) rotate(132.41) scale(594.577 610.923)">
<stop stop-color="#CCD156"/>
<stop offset="1" stop-color="#CCD156" stop-opacity="0"/>
</radialGradient>
<linearGradient id="paint17_linear_729_9309" x1="2440.4" y1="1171.19" x2="1315.53" y2="1133.65" gradientUnits="userSpaceOnUse">
<stop stop-color="#498BDF"/>
<stop offset="1" stop-color="#498BDF" stop-opacity="0"/>
</linearGradient>
<linearGradient id="paint18_linear_729_9309" x1="2714.32" y1="1945.6" x2="1783.53" y2="700.242" gradientUnits="userSpaceOnUse">
<stop stop-color="white"/>
<stop offset="0.749731" stop-color="white" stop-opacity="0"/>
</linearGradient>
<linearGradient id="paint19_linear_729_9309" x1="1731.94" y1="581.108" x2="1721.95" y2="668.754" gradientUnits="userSpaceOnUse">
<stop stop-color="#2EA2F4"/>
<stop offset="1" stop-color="#2EA2F4" stop-opacity="0"/>
</linearGradient>
<linearGradient id="paint20_linear_729_9309" x1="1731.54" y1="589.188" x2="1723.95" y2="655.794" gradientUnits="userSpaceOnUse">
<stop stop-color="#2EC3F4"/>
<stop offset="1" stop-color="#2EC3F4" stop-opacity="0"/>
</linearGradient>
<linearGradient id="paint21_linear_729_9309" x1="1014.77" y1="605.74" x2="994.18" y2="667.591" gradientUnits="userSpaceOnUse">
<stop stop-color="#2EA2F4"/>
<stop offset="1" stop-color="#2EA2F4" stop-opacity="0"/>
</linearGradient>
<radialGradient id="paint22_radial_729_9309" cx="0" cy="0" r="1" gradientUnits="userSpaceOnUse" gradientTransform="translate(1710.6 565.872) rotate(154.735) scale(98.6001 47.6109)">
<stop stop-color="#3773C0"/>
<stop offset="1" stop-opacity="0"/>
</radialGradient>
<radialGradient id="paint23_radial_729_9309" cx="0" cy="0" r="1" gradientUnits="userSpaceOnUse" gradientTransform="translate(1678.66 499.781) rotate(96.5109) scale(51.1066 24.7789)">
<stop stop-color="white"/>
<stop offset="1" stop-color="white" stop-opacity="0"/>
</radialGradient>
<radialGradient id="paint24_radial_729_9309" cx="0" cy="0" r="1" gradientUnits="userSpaceOnUse" gradientTransform="translate(1800.72 597.681) rotate(81.5124) scale(16.8958 68.325)">
<stop stop-color="#245089"/>
<stop offset="1" stop-color="#245089" stop-opacity="0"/>
</radialGradient>
<radialGradient id="paint25_radial_729_9309" cx="0" cy="0" r="1" gradientUnits="userSpaceOnUse" gradientTransform="translate(1696.43 527.801) rotate(76.331) scale(3.01674 3.02349)">
<stop offset="0.436076" stop-color="white"/>
<stop offset="1" stop-color="white" stop-opacity="0"/>
</radialGradient>
<clipPath id="clip0_729_9309">
<rect width="2560" height="731" fill="white"/>
</clipPath>
<clipPath id="clip1_729_9309">
<rect width="2560" height="5043" fill="white"/>
</clipPath>
</defs>
</svg>
