<svg width="537" height="348" viewBox="0 0 537 348" fill="none" xmlns="http://www.w3.org/2000/svg">
<path fill-rule="evenodd" clip-rule="evenodd" d="M295.593 -51.6906C344.083 -40.9801 374.774 2.24109 413.123 33.7875C456.205 69.2283 519.507 90.0549 533.533 144.044C547.703 198.586 506.825 250.035 482.51 300.872C457.764 352.609 441.889 414.901 391.171 441.688C340.393 468.506 277.522 456.327 223.146 437.854C175.297 421.6 144.984 379.532 107.726 345.398C68.785 309.722 2.09598 286.763 0.610164 233.978C-0.913691 179.842 74.4307 158.548 101.14 111.434C125.401 68.6374 109.683 6.70834 147.374 -24.9105C186.8 -57.9843 245.338 -62.7909 295.593 -51.6906Z" stroke="white" stroke-width="0.806278"/>
</svg>
