<svg width="375" height="302" viewBox="0 0 375 302" fill="none" xmlns="http://www.w3.org/2000/svg">
<g clip-path="url(#clip0_729_10567)">
<rect width="375" height="302" fill="white"/>
<g clip-path="url(#clip1_729_10567)">
<rect width="375" height="5575" fill="white"/>
<g clip-path="url(#clip2_729_10567)">
<rect width="779" height="305" transform="translate(-202)" fill="white"/>
<g clip-path="url(#clip3_729_10567)">
<rect width="779" height="1580" transform="translate(-202)" fill="#C4F2FE"/>
<rect width="779" height="1580" transform="translate(-202)" fill="url(#paint0_radial_729_10567)"/>
<rect width="779" height="1580" transform="translate(-202)" fill="url(#paint1_linear_729_10567)"/>
<rect width="779" height="1580" transform="translate(-202)" fill="url(#paint2_linear_729_10567)"/>
<circle cx="187.5" cy="362.99" r="304.905" fill="url(#paint3_radial_729_10567)"/>
<circle cx="187.5" cy="362.99" r="274.78" fill="url(#paint4_radial_729_10567)"/>
<circle cx="187.5" cy="362.99" r="233.7" fill="url(#paint5_radial_729_10567)"/>
<path d="M-5.40396 235.106C-49.1353 242.695 -153.1 198.974 -207.228 205.574L-235.777 294.996L322.829 304.565C329.54 278.882 336.46 227.121 310.452 225.537C277.942 223.557 216.223 198.974 169.686 205.574C123.15 212.173 38.3274 227.517 -5.40396 235.106Z" fill="#BCE1F1"/>
<path d="M295.226 236.163C276.476 246.209 224.073 208.827 200.511 218.491L198.975 308.836L451.98 286.16C451.75 260.297 448.31 208.555 436.386 208.481C421.482 208.39 390.546 187.559 370.406 196.785C350.266 206.011 313.977 226.116 295.226 236.163Z" fill="#BCE1F1"/>
<path d="M44.7289 239.536C23.6338 242.275 -12.0923 188.729 -37.5499 189.402L-71.0484 273.321L173.536 341.909C182.5 317.648 197.646 268.052 186.524 263.752C172.622 258.377 151.093 227.924 128.99 229.402C106.886 230.88 65.824 236.798 44.7289 239.536Z" fill="#BCE1F1"/>
<path fill-rule="evenodd" clip-rule="evenodd" d="M-4.94908 129.929C-6.63121 128.977 -7.7664 127.171 -7.7664 125.1C-7.7664 122.036 -5.28299 119.553 -2.21956 119.553C0.843876 119.553 3.32728 122.036 3.32728 125.1C3.32728 125.29 3.31763 125.479 3.29881 125.665C5.75943 122.432 9.64838 120.345 14.0247 120.345C20.2096 120.345 25.421 124.513 27.003 130.194C28.5583 128.522 30.7774 127.477 33.2406 127.477C36.959 127.477 40.121 129.859 41.2831 133.181C42.1794 131.664 43.8313 130.646 45.721 130.646C48.051 130.646 50.0318 132.257 50.6619 134.378C50.957 135.37 50.0563 136.193 49.0205 136.193H-6.23085C-7.30445 136.193 -8.209 135.324 -7.95447 134.281C-7.52746 132.531 -6.4632 130.959 -4.94908 129.929Z" fill="white"/>
<mask id="path-8-inside-1_729_10567" fill="white">
<path fill-rule="evenodd" clip-rule="evenodd" d="M5.41558 209.031L17.9955 207.366C17.9425 207.826 17.9771 208.214 18.1208 208.559C20.1531 208.887 21.501 209.581 21.6317 210.535C21.6428 210.616 21.6449 210.698 21.6382 210.781C21.6477 210.784 21.6571 210.787 21.6666 210.791L21.637 210.795C21.478 212.494 17.5918 214.328 12.6352 214.984C7.67855 215.64 3.43704 214.881 2.82664 213.284L2.79673 213.288C2.80508 213.282 2.81342 213.277 2.82174 213.271C2.79306 213.193 2.77296 213.113 2.76177 213.032C2.63122 212.079 3.74195 211.06 5.6101 210.216C5.6471 209.853 5.58016 209.467 5.41558 209.031Z"/>
</mask>
<path fill-rule="evenodd" clip-rule="evenodd" d="M5.41558 209.031L17.9955 207.366C17.9425 207.826 17.9771 208.214 18.1208 208.559C20.1531 208.887 21.501 209.581 21.6317 210.535C21.6428 210.616 21.6449 210.698 21.6382 210.781C21.6477 210.784 21.6571 210.787 21.6666 210.791L21.637 210.795C21.478 212.494 17.5918 214.328 12.6352 214.984C7.67855 215.64 3.43704 214.881 2.82664 213.284L2.79673 213.288C2.80508 213.282 2.81342 213.277 2.82174 213.271C2.79306 213.193 2.77296 213.113 2.76177 213.032C2.63122 212.079 3.74195 211.06 5.6101 210.216C5.6471 209.853 5.58016 209.467 5.41558 209.031Z" fill="#C4C4C4"/>
<path fill-rule="evenodd" clip-rule="evenodd" d="M5.41558 209.031L17.9955 207.366C17.9425 207.826 17.9771 208.214 18.1208 208.559C20.1531 208.887 21.501 209.581 21.6317 210.535C21.6428 210.616 21.6449 210.698 21.6382 210.781C21.6477 210.784 21.6571 210.787 21.6666 210.791L21.637 210.795C21.478 212.494 17.5918 214.328 12.6352 214.984C7.67855 215.64 3.43704 214.881 2.82664 213.284L2.79673 213.288C2.80508 213.282 2.81342 213.277 2.82174 213.271C2.79306 213.193 2.77296 213.113 2.76177 213.032C2.63122 212.079 3.74195 211.06 5.6101 210.216C5.6471 209.853 5.58016 209.467 5.41558 209.031Z" fill="#4F9BFA"/>
<path fill-rule="evenodd" clip-rule="evenodd" d="M5.41558 209.031L17.9955 207.366C17.9425 207.826 17.9771 208.214 18.1208 208.559C20.1531 208.887 21.501 209.581 21.6317 210.535C21.6428 210.616 21.6449 210.698 21.6382 210.781C21.6477 210.784 21.6571 210.787 21.6666 210.791L21.637 210.795C21.478 212.494 17.5918 214.328 12.6352 214.984C7.67855 215.64 3.43704 214.881 2.82664 213.284L2.79673 213.288C2.80508 213.282 2.81342 213.277 2.82174 213.271C2.79306 213.193 2.77296 213.113 2.76177 213.032C2.63122 212.079 3.74195 211.06 5.6101 210.216C5.6471 209.853 5.58016 209.467 5.41558 209.031Z" fill="url(#paint6_linear_729_10567)"/>
<path d="M17.9955 207.366L17.9542 207.065L18.3429 207.013L18.298 207.403L17.9955 207.366ZM5.41558 209.031L5.13076 209.137L4.99568 208.78L5.37428 208.73L5.41558 209.031ZM18.1208 208.559L18.0735 208.859L17.9054 208.832L17.8398 208.675L18.1208 208.559ZM21.6382 210.781L21.5354 211.066L21.3159 210.987L21.3347 210.755L21.6382 210.781ZM21.6666 210.791L21.7692 210.505L21.7079 211.092L21.6666 210.791ZM21.637 210.795L21.3338 210.765L21.3563 210.525L21.5957 210.493L21.637 210.795ZM2.82664 213.284L2.78534 212.982L3.02473 212.951L3.11103 213.177L2.82664 213.284ZM2.79673 213.288L2.83803 213.589L2.62461 213.036L2.79673 213.288ZM2.82174 213.271L3.1074 213.167L3.18941 213.389L2.99406 213.522L2.82174 213.271ZM5.6101 210.216L5.91302 210.248L5.89537 210.422L5.73662 210.493L5.6101 210.216ZM18.0368 207.668L5.45688 209.333L5.37428 208.73L17.9542 207.065L18.0368 207.668ZM17.8398 208.675C17.6702 208.268 17.6361 207.824 17.693 207.33L18.298 207.403C18.2489 207.828 18.2841 208.161 18.4018 208.443L17.8398 208.675ZM21.33 210.575C21.2838 210.237 21.0146 209.892 20.4435 209.578C19.8785 209.268 19.0713 209.02 18.0735 208.859L18.1681 208.259C19.2027 208.426 20.0855 208.689 20.7352 209.046C21.3788 209.399 21.8488 209.878 21.9333 210.495L21.33 210.575ZM21.3347 210.755C21.3397 210.694 21.3381 210.634 21.33 210.575L21.9333 210.495C21.9476 210.599 21.9501 210.703 21.9417 210.807L21.3347 210.755ZM21.564 211.077C21.5544 211.073 21.5449 211.07 21.5354 211.066L21.7411 210.495C21.7504 210.498 21.7598 210.502 21.7692 210.505L21.564 211.077ZM21.5957 210.493L21.6253 210.489L21.7079 211.092L21.6783 211.096L21.5957 210.493ZM12.5939 214.682C15.0489 214.357 17.2283 213.742 18.8052 213.005C19.5944 212.636 20.221 212.242 20.6551 211.848C21.094 211.45 21.3042 211.081 21.3338 210.765L21.9401 210.824C21.8903 211.357 21.5551 211.855 21.0657 212.299C20.5716 212.748 19.887 213.172 19.0652 213.556C17.42 214.325 15.178 214.954 12.6765 215.285L12.5939 214.682ZM3.11103 213.177C3.22471 213.474 3.52658 213.775 4.05699 214.045C4.58166 214.312 5.29198 214.529 6.15233 214.679C7.87132 214.98 10.1388 215.007 12.5939 214.682L12.6765 215.285C10.1749 215.616 7.84333 215.592 6.04981 215.278C5.15391 215.121 4.37962 214.89 3.78244 214.586C3.19099 214.285 2.73377 213.892 2.54224 213.391L3.11103 213.177ZM2.75543 212.986L2.78534 212.982L2.86794 213.585L2.83803 213.589L2.75543 212.986ZM2.99406 213.522C2.98568 213.528 2.97727 213.534 2.96885 213.539L2.62461 213.036C2.6329 213.031 2.64116 213.025 2.64941 213.019L2.99406 213.522ZM3.06344 212.992C3.07156 213.051 3.08619 213.109 3.1074 213.167L2.53608 213.375C2.49993 213.277 2.47435 213.176 2.46011 213.072L3.06344 212.992ZM5.73662 210.493C4.81948 210.908 4.10918 211.356 3.64886 211.802C3.18359 212.252 3.0173 212.655 3.06344 212.992L2.46011 213.072C2.3757 212.455 2.69949 211.872 3.22398 211.364C3.75343 210.852 4.53257 210.369 5.48358 209.939L5.73662 210.493ZM5.70041 208.925C5.87614 209.39 5.95615 209.825 5.91302 210.248L5.30718 210.184C5.33805 209.881 5.28418 209.543 5.13076 209.137L5.70041 208.925Z" fill="url(#paint7_radial_729_10567)" mask="url(#path-8-inside-1_729_10567)"/>
<path d="M2.20801 214.408L22.4308 211.766L22.6863 213.718L2.4635 216.361L2.20801 214.408Z" fill="#245089"/>
<ellipse rx="4.56304" ry="4.52258" transform="matrix(-0.991358 0.131185 0.135722 0.990747 9.31873 190.788)" fill="#C4C4C4"/>
<ellipse rx="4.56304" ry="4.52258" transform="matrix(-0.991358 0.131185 0.135722 0.990747 9.31873 190.788)" fill="white"/>
<mask id="path-12-inside-2_729_10567" fill="white">
<path fill-rule="evenodd" clip-rule="evenodd" d="M4.78914 190.215C5.06942 188.591 6.3844 187.266 8.12088 187.036C10.2623 186.753 12.2338 188.242 12.5244 190.363C12.815 192.485 11.3146 194.434 9.17314 194.717C7.43539 194.947 5.80952 194.009 5.10303 192.514C5.87758 194.365 7.83567 195.546 9.93352 195.269C12.4318 194.938 14.1823 192.664 13.8433 190.189C13.5043 187.715 11.2042 185.976 8.70589 186.307C6.60951 186.585 5.0397 188.23 4.78914 190.215Z"/>
</mask>
<path fill-rule="evenodd" clip-rule="evenodd" d="M4.78914 190.215C5.06942 188.591 6.3844 187.266 8.12088 187.036C10.2623 186.753 12.2338 188.242 12.5244 190.363C12.815 192.485 11.3146 194.434 9.17314 194.717C7.43539 194.947 5.80952 194.009 5.10303 192.514C5.87758 194.365 7.83567 195.546 9.93352 195.269C12.4318 194.938 14.1823 192.664 13.8433 190.189C13.5043 187.715 11.2042 185.976 8.70589 186.307C6.60951 186.585 5.0397 188.23 4.78914 190.215Z" fill="#C4C4C4"/>
<path fill-rule="evenodd" clip-rule="evenodd" d="M4.78914 190.215C5.06942 188.591 6.3844 187.266 8.12088 187.036C10.2623 186.753 12.2338 188.242 12.5244 190.363C12.815 192.485 11.3146 194.434 9.17314 194.717C7.43539 194.947 5.80952 194.009 5.10303 192.514C5.87758 194.365 7.83567 195.546 9.93352 195.269C12.4318 194.938 14.1823 192.664 13.8433 190.189C13.5043 187.715 11.2042 185.976 8.70589 186.307C6.60951 186.585 5.0397 188.23 4.78914 190.215Z" fill="#ABD0FF"/>
<path d="M4.78914 190.215L5.0892 190.268L4.48705 190.176L4.78914 190.215ZM5.10303 192.514L4.82217 192.63L5.37828 192.385L5.10303 192.514ZM8.16218 187.337C6.55949 187.549 5.34734 188.772 5.0892 190.268L4.48908 190.162C4.7915 188.41 6.2093 186.982 8.07958 186.734L8.16218 187.337ZM12.2227 190.403C11.9553 188.451 10.1395 187.076 8.16218 187.337L8.07958 186.734C10.3851 186.429 12.5123 188.033 12.8261 190.324L12.2227 190.403ZM9.13184 194.416C11.1092 194.154 12.4901 192.355 12.2227 190.403L12.8261 190.324C13.1398 192.614 11.5199 194.714 9.21444 195.019L9.13184 194.416ZM5.37828 192.385C6.02896 193.762 7.52798 194.628 9.13184 194.416L9.21444 195.019C7.3428 195.266 5.59009 194.256 4.82778 192.643L5.37828 192.385ZM5.38388 192.398C6.10585 194.123 7.93282 195.226 9.89222 194.967L9.97482 195.57C7.73852 195.866 5.64932 194.607 4.82217 192.63L5.38388 192.398ZM9.89222 194.967C12.2265 194.658 13.8575 192.535 13.5416 190.229L14.145 190.149C14.5071 192.793 12.6372 195.218 9.97482 195.57L9.89222 194.967ZM13.5416 190.229C13.2258 187.924 11.0814 186.3 8.74719 186.609L8.66459 186.006C11.327 185.653 13.7828 187.506 14.145 190.149L13.5416 190.229ZM8.74719 186.609C6.78916 186.868 5.32478 188.404 5.09123 190.254L4.48705 190.176C4.75462 188.056 6.42985 186.301 8.66459 186.006L8.74719 186.609Z" fill="url(#paint8_radial_729_10567)" mask="url(#path-12-inside-2_729_10567)"/>
<ellipse rx="5.47565" ry="1.5506" transform="matrix(-0.991358 0.131185 0.135722 0.990747 10.1083 196.549)" fill="#C4C4C4"/>
<ellipse rx="5.47565" ry="1.5506" transform="matrix(-0.991358 0.131185 0.135722 0.990747 10.1083 196.549)" fill="white"/>
<mask id="path-15-inside-3_729_10567" fill="white">
<path fill-rule="evenodd" clip-rule="evenodd" d="M4.68884 197.314C5.01358 197.978 6.66501 198.307 8.57719 198.054C10.6472 197.78 12.2389 196.928 12.1324 196.15C12.0385 195.465 10.6566 195.066 8.91269 195.169C9.23098 195.11 9.56021 195.057 9.89785 195.013C12.8958 194.616 15.4204 194.982 15.5366 195.83C15.6529 196.679 13.3167 197.688 10.3187 198.085C7.37603 198.474 4.88943 198.129 4.68884 197.314Z"/>
</mask>
<path fill-rule="evenodd" clip-rule="evenodd" d="M4.68884 197.314C5.01358 197.978 6.66501 198.307 8.57719 198.054C10.6472 197.78 12.2389 196.928 12.1324 196.15C12.0385 195.465 10.6566 195.066 8.91269 195.169C9.23098 195.11 9.56021 195.057 9.89785 195.013C12.8958 194.616 15.4204 194.982 15.5366 195.83C15.6529 196.679 13.3167 197.688 10.3187 198.085C7.37603 198.474 4.88943 198.129 4.68884 197.314Z" fill="#C4C4C4"/>
<path fill-rule="evenodd" clip-rule="evenodd" d="M4.68884 197.314C5.01358 197.978 6.66501 198.307 8.57719 198.054C10.6472 197.78 12.2389 196.928 12.1324 196.15C12.0385 195.465 10.6566 195.066 8.91269 195.169C9.23098 195.11 9.56021 195.057 9.89785 195.013C12.8958 194.616 15.4204 194.982 15.5366 195.83C15.6529 196.679 13.3167 197.688 10.3187 198.085C7.37603 198.474 4.88943 198.129 4.68884 197.314Z" fill="#ABD0FF"/>
<path d="M4.68884 197.314L4.39318 197.385L4.96237 197.181L4.68884 197.314ZM8.91269 195.169L8.93194 195.472L8.85575 194.87L8.91269 195.169ZM4.96237 197.181C5.00386 197.266 5.10507 197.372 5.30472 197.476C5.50087 197.578 5.76695 197.666 6.09427 197.73C6.74813 197.856 7.60525 197.876 8.53589 197.753L8.61849 198.356C7.63695 198.486 6.71227 198.468 5.98118 198.327C5.61603 198.256 5.28885 198.153 5.02428 198.015C4.76319 197.878 4.5362 197.693 4.41531 197.446L4.96237 197.181ZM8.53589 197.753C9.54423 197.619 10.4226 197.346 11.0262 197.023C11.3291 196.861 11.548 196.694 11.6817 196.538C11.8156 196.383 11.8414 196.268 11.8307 196.19L12.4341 196.11C12.4767 196.422 12.3434 196.705 12.1442 196.936C11.9448 197.168 11.6563 197.377 11.3158 197.559C10.6327 197.925 9.68017 198.215 8.61849 198.356L8.53589 197.753ZM11.8307 196.19C11.8213 196.121 11.7772 196.033 11.6486 195.933C11.5186 195.832 11.321 195.735 11.0549 195.655C10.5239 195.496 9.78034 195.422 8.93194 195.472L8.89344 194.865C9.78893 194.812 10.6083 194.887 11.2277 195.073C11.5368 195.165 11.8113 195.29 12.0213 195.454C12.2327 195.618 12.3965 195.836 12.4341 196.11L11.8307 196.19ZM9.93915 195.314C9.60669 195.358 9.28267 195.41 8.96963 195.468L8.85575 194.87C9.17928 194.81 9.51373 194.756 9.85655 194.711L9.93915 195.314ZM15.235 195.87C15.227 195.813 15.1661 195.695 14.8946 195.562C14.6352 195.434 14.2504 195.327 13.7554 195.255C12.7699 195.113 11.4185 195.118 9.93915 195.314L9.85655 194.711C11.3752 194.51 12.7851 194.501 13.8403 194.654C14.3658 194.73 14.8213 194.849 15.1616 195.016C15.4899 195.178 15.7881 195.424 15.8383 195.791L15.235 195.87ZM10.2774 197.784C11.7568 197.588 13.0616 197.242 13.9736 196.848C14.4316 196.65 14.774 196.447 14.9898 196.257C15.2157 196.057 15.2429 195.928 15.235 195.87L15.8383 195.791C15.8885 196.157 15.6673 196.472 15.3941 196.713C15.1109 196.963 14.7037 197.196 14.2174 197.406C13.2409 197.828 11.8787 198.186 10.36 198.386L10.2774 197.784ZM4.98451 197.242C5.00036 197.307 5.08294 197.427 5.36539 197.556C5.63473 197.68 6.0236 197.782 6.51575 197.85C7.4966 197.985 8.82558 197.976 10.2774 197.784L10.36 198.386C8.86919 198.584 7.48352 198.597 6.43524 198.452C5.91283 198.38 5.45852 198.267 5.11325 198.109C4.78109 197.957 4.47762 197.728 4.39318 197.385L4.98451 197.242Z" fill="url(#paint9_radial_729_10567)" mask="url(#path-15-inside-3_729_10567)"/>
<path d="M13.6255 197.256L6.90469 198.146C7.7441 202.736 7.58429 205.036 6.66257 208.866L16.7437 207.532C14.7362 203.812 13.999 201.582 13.6255 197.256Z" fill="#C4C4C4"/>
<path d="M13.6255 197.256L6.90469 198.146C7.7441 202.736 7.58429 205.036 6.66257 208.866L16.7437 207.532C14.7362 203.812 13.999 201.582 13.6255 197.256Z" fill="white"/>
<mask id="path-18-inside-4_729_10567" fill="white">
<path fill-rule="evenodd" clip-rule="evenodd" d="M11.6782 208.202L17.9945 207.366C17.9415 207.826 17.9762 208.214 18.1199 208.559C20.1522 208.887 21.5 209.581 21.6307 210.535C21.6419 210.616 21.644 210.698 21.6373 210.78L21.6657 210.791L21.636 210.795C21.4773 212.493 17.5909 214.328 12.6342 214.984C12.6254 214.985 12.6166 214.986 12.6077 214.987L11.6782 208.202Z"/>
</mask>
<path fill-rule="evenodd" clip-rule="evenodd" d="M11.6782 208.202L17.9945 207.366C17.9415 207.826 17.9762 208.214 18.1199 208.559C20.1522 208.887 21.5 209.581 21.6307 210.535C21.6419 210.616 21.644 210.698 21.6373 210.78L21.6657 210.791L21.636 210.795C21.4773 212.493 17.5909 214.328 12.6342 214.984C12.6254 214.985 12.6166 214.986 12.6077 214.987L11.6782 208.202Z" fill="#C4C4C4"/>
<path fill-rule="evenodd" clip-rule="evenodd" d="M11.6782 208.202L17.9945 207.366C17.9415 207.826 17.9762 208.214 18.1199 208.559C20.1522 208.887 21.5 209.581 21.6307 210.535C21.6419 210.616 21.644 210.698 21.6373 210.78L21.6657 210.791L21.636 210.795C21.4773 212.493 17.5909 214.328 12.6342 214.984C12.6254 214.985 12.6166 214.986 12.6077 214.987L11.6782 208.202Z" fill="#245089"/>
<path d="M11.6782 208.202L11.3766 208.242L11.3353 207.94L11.6369 207.9L11.6782 208.202ZM17.9945 207.366L17.9532 207.065L18.3419 207.013L18.297 207.402L17.9945 207.366ZM18.1199 208.559L18.0726 208.859L17.9045 208.832L17.8389 208.675L18.1199 208.559ZM21.6373 210.78L21.5345 211.066L21.3149 210.987L21.3338 210.754L21.6373 210.78ZM21.6657 210.791L21.7684 210.505L21.707 211.092L21.6657 210.791ZM21.636 210.795L21.3329 210.765L21.3553 210.525L21.5947 210.493L21.636 210.795ZM12.6077 214.987L12.6488 215.289L12.3473 215.328L12.3061 215.027L12.6077 214.987ZM11.6369 207.9L17.9532 207.065L18.0358 207.668L11.7195 208.503L11.6369 207.9ZM18.297 207.402C18.2479 207.828 18.2831 208.161 18.4009 208.443L17.8389 208.675C17.6692 208.268 17.6351 207.824 17.6921 207.33L18.297 207.402ZM18.1672 208.259C19.2017 208.426 20.0846 208.689 20.7343 209.046C21.3778 209.399 21.8479 209.878 21.9324 210.495L21.329 210.574C21.2828 210.237 21.0137 209.892 20.4426 209.578C19.8776 209.268 19.0704 209.02 18.0726 208.859L18.1672 208.259ZM21.9324 210.495C21.9466 210.598 21.9492 210.702 21.9408 210.806L21.3338 210.754C21.3387 210.694 21.3371 210.634 21.329 210.574L21.9324 210.495ZM21.74 210.494L21.7684 210.505L21.5629 211.076L21.5345 211.066L21.74 210.494ZM21.707 211.092L21.6773 211.096L21.5947 210.493L21.6244 210.489L21.707 211.092ZM21.9392 210.824C21.8894 211.357 21.5542 211.855 21.0648 212.299C20.5707 212.747 19.8862 213.172 19.0644 213.556C17.4192 214.325 15.1771 214.954 12.6755 215.285L12.5929 214.682C15.048 214.357 17.2275 213.742 18.8043 213.005C19.5935 212.636 20.2202 212.242 20.6543 211.848C21.0931 211.45 21.3033 211.081 21.3329 210.765L21.9392 210.824ZM12.6755 215.285C12.6666 215.286 12.6577 215.287 12.6488 215.289L12.5667 214.686C12.5754 214.684 12.5842 214.683 12.5929 214.682L12.6755 215.285ZM12.3061 215.027L11.3766 208.242L11.9799 208.162L12.9094 214.947L12.3061 215.027Z" fill="url(#paint10_radial_729_10567)" mask="url(#path-18-inside-4_729_10567)"/>
<mask id="path-20-inside-5_729_10567" fill="white">
<path fill-rule="evenodd" clip-rule="evenodd" d="M6.90664 198.146L13.6274 197.256C14.0009 201.582 14.7382 203.812 16.7457 207.532L11.6792 208.202L10.2411 197.704L6.90665 198.146C6.90665 198.146 6.90664 198.146 6.90664 198.146Z"/>
</mask>
<path fill-rule="evenodd" clip-rule="evenodd" d="M6.90664 198.146L13.6274 197.256C14.0009 201.582 14.7382 203.812 16.7457 207.532L11.6792 208.202L10.2411 197.704L6.90665 198.146C6.90665 198.146 6.90664 198.146 6.90664 198.146Z" fill="#C4C4C4"/>
<path fill-rule="evenodd" clip-rule="evenodd" d="M6.90664 198.146L13.6274 197.256C14.0009 201.582 14.7382 203.812 16.7457 207.532L11.6792 208.202L10.2411 197.704L6.90665 198.146C6.90665 198.146 6.90664 198.146 6.90664 198.146Z" fill="#ABD0FF"/>
<path d="M13.6274 197.256L13.5861 196.955L13.9033 196.913L13.9308 197.231L13.6274 197.256ZM6.90664 198.146L6.60497 198.186L6.56367 197.884L6.86534 197.844L6.90664 198.146ZM16.7457 207.532L17.0136 207.388L17.2226 207.775L16.787 207.833L16.7457 207.532ZM11.6792 208.202L11.7205 208.504L11.4189 208.543L11.3776 208.242L11.6792 208.202ZM10.2411 197.704L10.1998 197.403L10.5015 197.363L10.5428 197.665L10.2411 197.704ZM6.90665 198.146L6.94795 198.447L6.64628 198.487L6.60498 198.186L6.90665 198.146ZM13.6687 197.558L6.94794 198.447L6.86534 197.844L13.5861 196.955L13.6687 197.558ZM16.4778 207.675C14.4522 203.922 13.7014 201.652 13.3241 197.281L13.9308 197.231C14.3004 201.513 15.0242 203.702 17.0136 207.388L16.4778 207.675ZM11.6379 207.901L16.7044 207.23L16.787 207.833L11.7205 208.504L11.6379 207.901ZM11.3776 208.242L9.93948 197.744L10.5428 197.665L11.9809 208.162L11.3776 208.242ZM10.2824 198.006L6.94795 198.447L6.86535 197.844L10.1998 197.403L10.2824 198.006ZM7.20831 198.106C7.20742 198.099 7.20651 198.094 7.20592 198.091C7.20539 198.088 7.20489 198.086 7.20497 198.086C7.20497 198.086 7.20497 198.086 7.20497 198.086C7.20497 198.086 7.20497 198.086 7.20497 198.086C7.20497 198.086 7.20497 198.086 7.20497 198.086C7.20497 198.086 7.20497 198.086 7.20498 198.086C7.20498 198.086 7.20498 198.086 7.20499 198.086C7.205 198.086 7.20501 198.086 7.20503 198.086C7.20507 198.087 7.20514 198.087 7.20522 198.087C7.20538 198.088 7.20563 198.089 7.20593 198.091C7.20651 198.094 7.20743 198.099 7.20832 198.106L6.60498 198.186C6.60587 198.192 6.60679 198.197 6.60737 198.2C6.6079 198.203 6.6084 198.206 6.60832 198.205C6.60832 198.205 6.60832 198.205 6.60832 198.205C6.60832 198.205 6.60832 198.205 6.60832 198.205C6.60832 198.205 6.60832 198.205 6.60832 198.205C6.60832 198.205 6.60832 198.205 6.60831 198.205C6.60831 198.205 6.60831 198.205 6.6083 198.205C6.60829 198.205 6.60828 198.205 6.60826 198.205C6.60822 198.205 6.60815 198.204 6.60807 198.204C6.60792 198.203 6.60766 198.202 6.60736 198.2C6.60678 198.197 6.60586 198.192 6.60497 198.186L7.20831 198.106Z" fill="url(#paint11_radial_729_10567)" mask="url(#path-20-inside-5_729_10567)"/>
<path d="M13.6274 197.256L13.5861 196.955L13.9033 196.913L13.9308 197.231L13.6274 197.256ZM6.90664 198.146L6.60497 198.186L6.56367 197.884L6.86534 197.844L6.90664 198.146ZM16.7457 207.532L17.0136 207.388L17.2226 207.775L16.787 207.833L16.7457 207.532ZM11.6792 208.202L11.7205 208.504L11.4189 208.543L11.3776 208.242L11.6792 208.202ZM10.2411 197.704L10.1998 197.403L10.5015 197.363L10.5428 197.665L10.2411 197.704ZM6.90665 198.146L6.94795 198.447L6.64628 198.487L6.60498 198.186L6.90665 198.146ZM13.6687 197.558L6.94794 198.447L6.86534 197.844L13.5861 196.955L13.6687 197.558ZM16.4778 207.675C14.4522 203.922 13.7014 201.652 13.3241 197.281L13.9308 197.231C14.3004 201.513 15.0242 203.702 17.0136 207.388L16.4778 207.675ZM11.6379 207.901L16.7044 207.23L16.787 207.833L11.7205 208.504L11.6379 207.901ZM11.3776 208.242L9.93948 197.744L10.5428 197.665L11.9809 208.162L11.3776 208.242ZM10.2824 198.006L6.94795 198.447L6.86535 197.844L10.1998 197.403L10.2824 198.006ZM7.20831 198.106C7.20742 198.099 7.20651 198.094 7.20592 198.091C7.20539 198.088 7.20489 198.086 7.20497 198.086C7.20497 198.086 7.20497 198.086 7.20497 198.086C7.20497 198.086 7.20497 198.086 7.20497 198.086C7.20497 198.086 7.20497 198.086 7.20497 198.086C7.20497 198.086 7.20497 198.086 7.20498 198.086C7.20498 198.086 7.20498 198.086 7.20499 198.086C7.205 198.086 7.20501 198.086 7.20503 198.086C7.20507 198.087 7.20514 198.087 7.20522 198.087C7.20538 198.088 7.20563 198.089 7.20593 198.091C7.20651 198.094 7.20743 198.099 7.20832 198.106L6.60498 198.186C6.60587 198.192 6.60679 198.197 6.60737 198.2C6.6079 198.203 6.6084 198.206 6.60832 198.205C6.60832 198.205 6.60832 198.205 6.60832 198.205C6.60832 198.205 6.60832 198.205 6.60832 198.205C6.60832 198.205 6.60832 198.205 6.60832 198.205C6.60832 198.205 6.60832 198.205 6.60831 198.205C6.60831 198.205 6.60831 198.205 6.6083 198.205C6.60829 198.205 6.60828 198.205 6.60826 198.205C6.60822 198.205 6.60815 198.204 6.60807 198.204C6.60792 198.203 6.60766 198.202 6.60736 198.2C6.60678 198.197 6.60586 198.192 6.60497 198.186L7.20831 198.106Z" fill="url(#paint12_radial_729_10567)" mask="url(#path-20-inside-5_729_10567)"/>
<path fill-rule="evenodd" clip-rule="evenodd" d="M150.366 230.925C207.852 236.408 410.58 193.739 455.128 230.469C500.029 267.49 372.522 353.224 369.132 411.298C366.153 462.339 318.048 496.347 301.154 544.603C280.46 603.709 309.594 684.993 259.941 723.179C211.394 760.514 126.058 736.876 66.9187 720.894C14.2142 706.651 -24.3831 679.1 -59.0798 636.966C-91.7578 597.283 -85.7322 541.578 -101.399 492.628C-120.705 432.307 -181.992 377.141 -161.405 317.25C-140.997 257.882 -67.4316 234.491 -6.90297 217.731C45.0639 203.342 96.6828 225.804 150.366 230.925Z" fill="url(#paint13_linear_729_10567)"/>
<path d="M66.3961 170.285L47.8374 167.271C48.3321 183.88 44.598 193.025 32.8434 209.634L67.2114 215.216C61.8983 195.741 60.611 185.662 66.3961 170.285Z" fill="white"/>
<mask id="path-24-outside-6_729_10567" maskUnits="userSpaceOnUse" x="49.3181" y="167.696" width="26.1291" height="48.4511" fill="black">
<rect fill="white" x="49.3181" y="167.696" width="26.1291" height="48.4511"/>
<path fill-rule="evenodd" clip-rule="evenodd" d="M57.1158 168.778L66.3952 170.285C60.61 185.662 61.8973 195.741 67.2104 215.217L50.0264 212.426L57.1158 168.778Z"/>
</mask>
<path fill-rule="evenodd" clip-rule="evenodd" d="M57.1158 168.778L66.3952 170.285C60.61 185.662 61.8973 195.741 67.2104 215.217L50.0264 212.426L57.1158 168.778Z" fill="#CFE4FF"/>
<path d="M66.3952 170.285L66.451 169.942L66.8708 170.01L66.7211 170.408L66.3952 170.285ZM57.1158 168.778L56.7721 168.722L56.8279 168.379L57.1716 168.435L57.1158 168.778ZM67.2104 215.217L67.5463 215.125L67.6888 215.647L67.1546 215.56L67.2104 215.217ZM50.0264 212.426L49.9706 212.769L49.6269 212.713L49.6828 212.37L50.0264 212.426ZM66.3393 170.629L57.06 169.122L57.1716 168.435L66.451 169.942L66.3393 170.629ZM66.8745 215.308C64.2173 205.568 62.5575 198.146 62.293 191.227C62.0281 184.297 63.1632 177.887 66.0693 170.163L66.7211 170.408C63.842 178.06 62.7281 184.378 62.9889 191.201C63.25 198.034 64.8904 205.39 67.5463 215.125L66.8745 215.308ZM50.0823 212.082L67.2663 214.873L67.1546 215.56L49.9706 212.769L50.0823 212.082ZM49.6828 212.37L56.7721 168.722L57.4595 168.834L50.3701 212.481L49.6828 212.37Z" fill="#245089" mask="url(#path-24-outside-6_729_10567)"/>
<path d="M27.3176 213.158L71.0841 220.38C73.573 220.79 75.2456 223.511 74.7482 226.493L73.1322 236.182L20.2491 227.457L21.8652 217.767C22.3626 214.785 24.8287 212.748 27.3176 213.158Z" fill="#4F9BFA" stroke="url(#paint14_radial_729_10567)" stroke-width="0.348184"/>
<path d="M71.1069 220.201L49.6826 216.656L47.1265 232.042L73.2823 236.37L74.9197 226.514C75.4263 223.465 73.7158 220.633 71.1069 220.201Z" fill="#245089"/>
<path d="M17.9912 223.34L76.6749 232.972L75.7929 238.204L17.1091 228.573L17.9912 223.34Z" fill="#245089"/>
<rect width="45.9602" height="4.52639" rx="2.26319" transform="matrix(-0.987065 -0.160323 -0.160323 0.987065 72.7109 216.11)" fill="#245089"/>
<rect width="27.8547" height="4.52639" rx="2.26319" transform="matrix(-0.987065 -0.160323 -0.160323 0.987065 71.5908 166.543)" fill="#245089"/>
<rect width="21.5874" height="4.52639" rx="2.26319" transform="matrix(-0.987065 -0.160323 -0.160323 0.987065 69.2227 161.573)" fill="#245089"/>
<path fill-rule="evenodd" clip-rule="evenodd" d="M61.8746 128.632L65.3114 129.191L64.474 134.346L67.9107 134.904L67.3525 138.341L63.9158 137.783L63.0785 142.938L59.6417 142.38L60.479 137.225L57.0421 136.666L57.6003 133.23L61.0372 133.788L61.8746 128.632Z" fill="#245089"/>
<path d="M74.4732 148.236C74.8287 147.56 74.5748 146.722 73.8932 146.379C65.9363 142.371 57.5565 141.004 48.3178 142.236C47.5532 142.338 47.0347 143.058 47.1595 143.819L49.5475 158.377L67.5907 161.308L74.4732 148.236Z" fill="white"/>
<mask id="path-34-inside-7_729_10567" fill="white">
<path fill-rule="evenodd" clip-rule="evenodd" d="M61.4118 142.315C65.7173 142.995 69.8575 144.348 73.8892 146.378C74.5708 146.722 74.8247 147.56 74.4691 148.235L67.5866 161.307L49.5434 158.377L49.5433 158.376L58.5651 159.841L61.4118 142.315Z"/>
</mask>
<path fill-rule="evenodd" clip-rule="evenodd" d="M61.4118 142.315C65.7173 142.995 69.8575 144.348 73.8892 146.378C74.5708 146.722 74.8247 147.56 74.4691 148.235L67.5866 161.307L49.5434 158.377L49.5433 158.376L58.5651 159.841L61.4118 142.315Z" fill="#CFE4FF"/>
<path d="M73.8892 146.378L74.0458 146.067L74.0458 146.067L73.8892 146.378ZM61.4118 142.315L61.0681 142.259L61.1237 141.917L61.4662 141.971L61.4118 142.315ZM74.4691 148.235L74.7772 148.397L74.7772 148.397L74.4691 148.235ZM67.5866 161.307L67.8947 161.47L67.778 161.691L67.5308 161.651L67.5866 161.307ZM49.5434 158.377L49.4876 158.72L49.2403 158.68L49.1998 158.433L49.5434 158.377ZM49.5433 158.376L49.1997 158.432L49.1215 157.955L49.5991 158.032L49.5433 158.376ZM58.5651 159.841L58.9088 159.897L58.853 160.241L58.5093 160.185L58.5651 159.841ZM73.7325 146.689C69.7316 144.674 65.6258 143.333 61.3575 142.659L61.4662 141.971C65.8088 142.657 69.9834 144.021 74.0458 146.067L73.7325 146.689ZM74.161 148.073C74.4289 147.564 74.2345 146.942 73.7325 146.689L74.0458 146.067C74.9071 146.501 75.2205 147.555 74.7772 148.397L74.161 148.073ZM67.2785 161.145L74.161 148.073L74.7772 148.397L67.8947 161.47L67.2785 161.145ZM49.5993 158.033L67.6424 160.964L67.5308 161.651L49.4876 158.72L49.5993 158.033ZM49.8869 158.32L49.887 158.32L49.1998 158.433L49.1997 158.432L49.8869 158.32ZM49.5991 158.032L58.6209 159.498L58.5093 160.185L49.4875 158.72L49.5991 158.032ZM58.2214 159.785L61.0681 142.259L61.7555 142.371L58.9088 159.897L58.2214 159.785Z" fill="url(#paint15_linear_729_10567)" mask="url(#path-34-inside-7_729_10567)"/>
<path d="M82.3631 224.839C87.0321 225.171 69.5825 218.272 58.4793 218.272C53.3535 218.272 45.1888 220.777 42.3487 222.586C44.984 222.778 77.6459 224.504 82.3631 224.839Z" fill="#DAB42E"/>
<path fill-rule="evenodd" clip-rule="evenodd" d="M165.701 237.063C108.074 233.349 34.1955 205.538 -15.6194 234.729C-65.8294 264.152 -73.0546 322.539 -78.9284 380.414C-84.0908 431.28 -41.9964 472.494 -32.9776 522.821C-21.9313 584.463 -63.6014 660.09 -20.6405 705.675C21.363 750.245 109.37 740.456 170.296 734.066C224.593 728.372 267.075 707.299 308.022 671.207C346.586 637.216 349.481 581.262 372.721 535.42C401.359 478.929 470.628 434.194 459.811 371.794C449.088 309.939 482.102 249.019 425.002 222.861C375.979 200.404 219.516 240.531 165.701 237.063Z" fill="#FFE79B"/>
<path fill-rule="evenodd" clip-rule="evenodd" d="M165.701 237.063C108.074 233.349 34.1955 205.538 -15.6194 234.729C-65.8294 264.152 -73.0546 322.539 -78.9284 380.414C-84.0908 431.28 -41.9964 472.494 -32.9776 522.821C-21.9313 584.463 -63.6014 660.09 -20.6405 705.675C21.363 750.245 109.37 740.456 170.296 734.066C224.593 728.372 267.075 707.299 308.022 671.207C346.586 637.216 349.481 581.262 372.721 535.42C401.359 478.929 470.628 434.194 459.811 371.794C449.088 309.939 482.102 249.019 425.002 222.861C375.979 200.404 219.516 240.531 165.701 237.063Z" fill="url(#paint16_radial_729_10567)"/>
<path fill-rule="evenodd" clip-rule="evenodd" d="M354.053 560.1C330.606 612.872 332.764 683.217 283.792 713.802C234.432 744.629 167.559 731.943 113.565 710.294C66.1097 691.267 49.1305 634.855 8.73282 603.516C-40.7471 565.13 -127.075 566.955 -147.524 507.748C-167.518 449.86 -118.013 376.441 -84.0851 325.434C-53.8482 279.977 -112.538 256.578 -61.5688 237.051C-13.5649 218.66 134.414 237.6 185.805 238.282C249.135 239.123 422.215 202.585 472.473 241.119C522.292 279.317 419.809 352.435 416.488 415.154C413.637 469 375.95 510.819 354.053 560.1Z" fill="#1187DC"/>
<path fill-rule="evenodd" clip-rule="evenodd" d="M-118.977 501.351C-133.309 445.412 -178.626 391.565 -159.176 337.202C-139.571 282.408 -79.2431 250.889 -23.4601 234.388C25.5677 219.885 73.8713 253.61 124.998 253.143C187.619 252.57 250.372 227.59 303.131 261.355C354.715 294.368 365.248 352.677 370.264 413.732C374.734 468.144 361.901 513.796 334.027 560.723C307.774 604.92 253.326 618.138 212.587 649.473C162.384 688.088 131.265 764.449 67.9418 765.387C5.17076 766.317 -41.7777 705.04 -78.0669 653.779C-109.223 609.768 -105.593 553.591 -118.977 501.351Z" fill="#2EA1F3"/>
<path fill-rule="evenodd" clip-rule="evenodd" d="M320.271 245.48C377.879 241.48 439.021 206.627 488.98 235.57C539.335 264.743 559.448 329.77 565.609 387.615C571.023 438.455 529.134 479.878 520.365 530.249C509.625 591.945 551.67 667.364 508.936 713.162C467.154 757.94 379.1 748.587 318.143 742.5C263.818 737.075 221.232 716.213 180.107 680.326C141.374 646.526 138.201 590.587 114.734 544.861C85.8158 488.512 -1.17405 347.238 9.33335 284.786C19.7491 222.878 125.118 278.852 162.963 258.204C210.299 232.379 266.473 249.215 320.271 245.48Z" fill="#087BCD"/>
<path fill-rule="evenodd" clip-rule="evenodd" d="M545.255 318.329C597.214 343.526 667.592 343.718 696.525 393.684C725.687 444.046 710.775 510.458 687.335 563.699C666.733 610.492 609.786 625.578 577.115 664.907C537.099 713.077 536.04 799.418 476.183 817.879C417.66 835.928 345.935 784 296.089 748.387C251.667 716.649 225.109 677.363 207.295 625.77C190.517 577.179 215.6 527.078 217.998 475.738C220.954 412.471 111.553 343.01 151.744 294.067C191.584 245.551 339.902 245.676 402.474 251.089C456.195 255.737 496.732 294.799 545.255 318.329Z" fill="url(#paint17_linear_729_10567)"/>
<path fill-rule="evenodd" clip-rule="evenodd" d="M545.255 318.329C597.214 343.526 667.592 343.718 696.525 393.684C725.687 444.046 710.775 510.458 687.335 563.699C666.733 610.492 609.786 625.578 577.115 664.907C537.099 713.077 536.04 799.418 476.183 817.879C417.66 835.928 345.935 784 296.089 748.387C251.667 716.649 225.109 677.363 207.295 625.77C190.517 577.179 215.6 527.078 217.998 475.738C220.954 412.471 111.553 343.01 151.744 294.067C191.584 245.551 339.902 245.676 402.474 251.089C456.195 255.737 496.732 294.799 545.255 318.329Z" fill="url(#paint18_linear_729_10567)" fill-opacity="0.3"/>
<path fill-rule="evenodd" clip-rule="evenodd" d="M545.255 318.329C597.214 343.526 667.592 343.718 696.525 393.684C725.687 444.046 710.775 510.458 687.335 563.699C666.733 610.492 609.786 625.578 577.115 664.907C537.099 713.077 536.04 799.418 476.183 817.879C417.66 835.928 345.935 784 296.089 748.387C251.667 716.649 225.109 677.363 207.295 625.77C190.517 577.179 215.6 527.078 217.998 475.738C220.954 412.471 111.553 343.01 151.744 294.067C191.584 245.551 339.902 245.676 402.474 251.089C456.195 255.737 496.732 294.799 545.255 318.329Z" fill="#2EA1F4"/>
<path d="M271.01 236.254C254.697 241.015 306.824 241.526 335.169 239.42C346.539 237.369 371.491 231.894 380.338 226.394C391.396 219.518 287.324 231.494 271.01 236.254Z" fill="url(#paint19_linear_729_10567)"/>
<path d="M283.854 235.25C271.456 238.869 311.071 239.256 332.612 237.656C341.252 236.098 360.214 231.937 366.937 227.757C375.341 222.532 296.251 231.632 283.854 235.25Z" fill="url(#paint20_linear_729_10567)"/>
<path d="M65.5352 231.518C53.0131 232.473 90.6279 240.791 111.445 243.591C119.979 243.843 138.856 243.688 146.092 241.06C155.136 237.775 78.0574 230.564 65.5352 231.518Z" fill="url(#paint21_linear_729_10567)"/>
<path d="M61.6734 218.754C48.8922 216.015 46.914 213.58 38.8505 212.515C33.8293 211.852 33.2114 212.959 30.483 213.885C33.0694 214.341 57.0438 217.942 61.6734 218.754Z" fill="#D9DB65"/>
<path fill-rule="evenodd" clip-rule="evenodd" d="M171.308 281.256C227.999 292.243 296.06 274.33 336.869 315.174C378.002 356.343 380.671 424.356 371.711 481.834C363.836 532.352 312.684 561.576 291.226 607.984C264.944 664.825 286.125 748.534 233.028 781.768C181.115 814.26 98.4485 782.524 41.121 760.928C-9.96919 741.682 -45.7376 710.546 -76.2208 665.27C-104.931 622.628 -93.5752 567.761 -104.461 517.531C-117.876 455.632 -165.505 296.708 -139.253 239.075C-113.229 181.945 -25.8516 263.191 16.037 252.997C68.4302 240.247 118.366 270.996 171.308 281.256Z" fill="#087BCD"/>
<path fill-rule="evenodd" clip-rule="evenodd" d="M414.411 343.73C466.37 368.927 536.749 369.119 565.681 419.085C594.843 469.447 579.931 535.859 556.491 589.1C535.89 635.893 478.942 650.979 446.271 690.308C406.255 738.478 405.196 824.819 345.339 843.28C286.816 861.329 215.091 809.401 165.246 773.788C120.823 742.051 94.2652 702.764 76.451 651.171C59.6731 602.58 84.7566 552.479 87.1547 501.139C90.1098 437.872 -48.1904 371.443 -7.99956 322.5C31.8407 273.984 209.058 271.077 271.63 276.49C325.352 281.138 365.889 320.2 414.411 343.73Z" fill="url(#paint22_linear_729_10567)"/>
<path fill-rule="evenodd" clip-rule="evenodd" d="M414.411 343.73C466.37 368.927 536.749 369.119 565.681 419.085C594.843 469.447 579.931 535.859 556.491 589.1C535.89 635.893 478.942 650.979 446.271 690.308C406.255 738.478 405.196 824.819 345.339 843.28C286.816 861.329 215.091 809.401 165.246 773.788C120.823 742.051 94.2652 702.764 76.451 651.171C59.6731 602.58 84.7566 552.479 87.1547 501.139C90.1098 437.872 -48.1904 371.443 -7.99956 322.5C31.8407 273.984 209.058 271.077 271.63 276.49C325.352 281.138 365.889 320.2 414.411 343.73Z" fill="url(#paint23_linear_729_10567)" fill-opacity="0.3"/>
<path fill-rule="evenodd" clip-rule="evenodd" d="M414.411 343.73C466.37 368.927 536.749 369.119 565.681 419.085C594.843 469.447 579.931 535.859 556.491 589.1C535.89 635.893 478.942 650.979 446.271 690.308C406.255 738.478 405.196 824.819 345.339 843.28C286.816 861.329 215.091 809.401 165.246 773.788C120.823 742.051 94.2652 702.764 76.451 651.171C59.6731 602.58 84.7566 552.479 87.1547 501.139C90.1098 437.872 -48.1904 371.443 -7.99956 322.5C31.8407 273.984 209.058 271.077 271.63 276.49C325.352 281.138 365.889 320.2 414.411 343.73Z" fill="#2EA1F4"/>
<path fill-rule="evenodd" clip-rule="evenodd" d="M316.027 613.26C299.028 668.448 309.545 738.036 264.562 774.233C219.223 810.717 151.315 806.082 95.1279 791.015C45.745 777.772 22.1711 723.782 -21.67 697.475C-75.3676 665.253 -160.865 677.341 -188.216 620.989C-214.959 565.893 -174.546 487.103 -146.931 432.42C-122.321 383.687 -183.379 367.441 -135.097 341.985C-89.6234 318.011 59.5573 319.2 110.665 313.76C173.645 307.056 341.144 250.173 395.631 282.451C449.644 314.446 356.594 399.244 360.763 461.912C364.341 515.715 331.901 561.723 316.027 613.26Z" fill="#1187DC"/>
<path fill-rule="evenodd" clip-rule="evenodd" d="M68.8236 107.99C70.5935 107.99 72.1113 109.069 72.7548 110.605C74.2821 109.716 76.0579 109.207 77.9525 109.207C82.3696 109.207 86.1402 111.975 87.6243 115.871C88.172 115.693 88.7566 115.597 89.3637 115.597C92.0882 115.597 94.3996 117.614 94.895 120.199C95.0192 120.847 94.4655 121.379 93.8058 121.379H53.6088C52.9366 121.379 52.373 120.821 52.5764 120.18C53.084 118.581 54.5805 117.423 56.3475 117.423C56.8251 117.423 57.2829 117.507 57.7068 117.662C58.8737 115.87 60.8955 114.684 63.1941 114.684C64.1026 114.684 64.9679 114.869 65.7542 115.204C65.0168 114.438 64.5635 113.397 64.5635 112.25C64.5635 109.897 66.4708 107.99 68.8236 107.99ZM67.4992 116.3C67.669 116.448 67.8311 116.606 67.9848 116.771C68.0152 116.662 68.0473 116.553 68.0812 116.445C67.8821 116.41 67.6878 116.362 67.4992 116.3Z" fill="white"/>
<path fill-rule="evenodd" clip-rule="evenodd" d="M308.002 107.99C306.232 107.99 304.714 109.069 304.07 110.605C302.543 109.716 300.767 109.207 298.873 109.207C294.456 109.207 290.685 111.975 289.201 115.871C288.653 115.693 288.069 115.597 287.462 115.597C284.737 115.597 282.426 117.614 281.93 120.199C281.806 120.847 282.36 121.379 283.019 121.379H323.216C323.889 121.379 324.452 120.821 324.249 120.18C323.741 118.581 322.245 117.423 320.478 117.423C320 117.423 319.542 117.507 319.118 117.662C317.952 115.87 315.93 114.684 313.631 114.684C312.723 114.684 311.857 114.869 311.071 115.204C311.808 114.438 312.262 113.397 312.262 112.25C312.262 109.897 310.354 107.99 308.002 107.99ZM309.326 116.3C309.156 116.448 308.994 116.606 308.84 116.771C308.81 116.662 308.778 116.553 308.744 116.445C308.943 116.41 309.137 116.362 309.326 116.3Z" fill="white"/>
<path fill-rule="evenodd" clip-rule="evenodd" d="M361.484 117.118C358.938 117.118 356.755 118.671 355.829 120.881C353.632 119.602 351.078 118.869 348.352 118.869C344.317 118.869 340.657 120.475 337.976 123.083C337.307 122.904 336.604 122.809 335.878 122.809C331.406 122.809 327.78 126.434 327.78 130.906C327.78 132.823 328.446 134.584 329.56 135.971C329.773 136.237 330.102 136.377 330.444 136.377H382.857C383.726 136.377 384.294 135.488 383.724 134.833C382.681 133.634 381.144 132.876 379.43 132.876C378.482 132.876 377.589 133.107 376.803 133.517C376.795 128.379 372.669 124.207 367.549 124.123C367.59 123.837 367.612 123.544 367.612 123.246C367.612 119.862 364.868 117.118 361.484 117.118Z" fill="white"/>
</g>
<mask id="mask0_729_10567" style="mask-type:alpha" maskUnits="userSpaceOnUse" x="281" y="160" width="79" height="88">
<path d="M281.925 186.524C285.218 183.665 298.193 166.795 305.826 164.516L341.634 161.166C347.889 170.187 363.67 217.963 357.713 220.341C338.089 228.172 336.806 239.551 318.849 237.017C306.607 235.289 297.673 244.15 293.911 247.638L281.925 186.524Z" fill="#D9D9D9" stroke="black" stroke-width="0.361125"/>
</mask>
<g mask="url(#mask0_729_10567)">
<path d="M344.073 212.105C342.178 207.109 339.791 202.96 337.687 201.006C333.274 196.909 328.673 195.743 325.59 195.486C322.21 195.206 319.887 195.903 319.633 195.983L338.695 224.266L346.557 222.355L346.447 221.094C346.267 219.038 345.268 215.258 344.073 212.105Z" fill="#245089"/>
<path d="M345.196 232.416C345.077 232.358 344.012 231.811 342.806 230.338C341.609 228.876 340.027 226.179 339.287 221.639C337.667 211.7 334.873 204.852 330.747 200.704C327.451 197.391 323.842 196.464 321.46 196.05C320.255 193.226 318.156 192.095 316.523 191.648C314.645 191.134 313.039 191.433 312.862 191.469L311.111 191.823L312.314 196.9C311.572 197.318 310.881 197.824 310.247 198.413C307.105 201.334 304.355 204.963 302.346 207.614C301.317 208.973 300.427 210.146 299.824 210.779C299.005 211.636 298.58 212.76 298.628 213.943C298.675 215.097 299.164 216.158 300.009 216.941C300.727 217.705 303.63 220.564 306.303 219.914C306.552 219.854 306.799 219.763 307.042 219.638L311.945 217.049C313.691 216.146 313.909 216.175 314.556 216.261C315.215 216.349 316.21 216.482 318.097 216.245C318.199 216.233 318.301 216.218 318.402 216.203C318.118 217.523 317.677 219.289 317.268 220.925C316.471 224.111 315.48 228.076 314.664 232.249C313.864 236.334 314.832 238.721 315.352 240.003C315.404 240.133 315.469 240.293 315.513 240.413L314.774 242.995L344.917 235.678L350.283 234.405L345.196 232.416Z" fill="white"/>
<path d="M299.916 210.843L299.916 210.843C299.118 211.679 298.704 212.773 298.75 213.926L298.636 213.931L298.75 213.926C298.794 215.05 299.27 216.082 300.093 216.844L300.093 216.844L300.098 216.85C300.454 217.229 301.352 218.126 302.49 218.847C303.632 219.57 304.992 220.101 306.284 219.787C306.524 219.728 306.763 219.64 306.998 219.519C306.998 219.519 306.998 219.519 306.998 219.519L311.905 216.926L311.906 216.926C312.779 216.474 313.281 216.249 313.648 216.151C314.024 216.05 314.259 216.081 314.583 216.124L314.586 216.124L314.571 216.237L314.586 216.124L314.587 216.124C315.24 216.211 316.226 216.342 318.1 216.105L318.1 216.105C318.201 216.093 318.301 216.079 318.402 216.063L318.565 216.038L318.53 216.199C318.244 217.522 317.801 219.29 317.391 220.927C316.592 224.114 315.599 228.078 314.779 232.249C313.983 236.302 314.94 238.665 315.455 239.938L315.456 239.94C315.508 240.069 315.574 240.231 315.619 240.353L315.631 240.388L315.621 240.424L314.934 242.819L329.824 239.195L318.522 192.597C317.84 192.168 317.149 191.897 316.526 191.727L316.526 191.727C314.672 191.221 313.085 191.518 312.915 191.552C312.915 191.552 312.915 191.552 312.915 191.552L311.278 191.885L312.451 196.847L312.471 196.931L312.397 196.973C311.662 197.387 310.977 197.888 310.349 198.471C307.212 201.387 304.463 205.012 302.451 207.666L302.447 207.672C301.419 209.026 300.526 210.205 299.916 210.843Z" fill="#CFE4FF"/>
<path d="M299.916 210.843L299.916 210.843C299.118 211.679 298.704 212.773 298.75 213.926L298.636 213.931L298.75 213.926C298.794 215.05 299.27 216.082 300.093 216.844L300.093 216.844L300.098 216.85C300.454 217.229 301.352 218.126 302.49 218.847C303.632 219.57 304.992 220.101 306.284 219.787C306.524 219.728 306.763 219.64 306.998 219.519C306.998 219.519 306.998 219.519 306.998 219.519L311.905 216.926L311.906 216.926C312.779 216.474 313.281 216.249 313.648 216.151C314.024 216.05 314.259 216.081 314.583 216.124L314.586 216.124L314.571 216.237L314.586 216.124L314.587 216.124C315.24 216.211 316.226 216.342 318.1 216.105L318.1 216.105C318.201 216.093 318.301 216.079 318.402 216.063L318.565 216.038L318.53 216.199C318.244 217.522 317.801 219.29 317.391 220.927C316.592 224.114 315.599 228.078 314.779 232.249C313.983 236.302 314.94 238.665 315.455 239.938L315.456 239.94C315.508 240.069 315.574 240.231 315.619 240.353L315.631 240.388L315.621 240.424L314.934 242.819L329.824 239.195L318.522 192.597C317.84 192.168 317.149 191.897 316.526 191.727L316.526 191.727C314.672 191.221 313.085 191.518 312.915 191.552C312.915 191.552 312.915 191.552 312.915 191.552L311.278 191.885L312.451 196.847L312.471 196.931L312.397 196.973C311.662 197.387 310.977 197.888 310.349 198.471C307.212 201.387 304.463 205.012 302.451 207.666L302.447 207.672C301.419 209.026 300.526 210.205 299.916 210.843Z" stroke="url(#paint24_radial_729_10567)" stroke-width="0.227019"/>
<path d="M299.916 210.843L299.916 210.843C299.118 211.679 298.704 212.773 298.75 213.926L298.636 213.931L298.75 213.926C298.794 215.05 299.27 216.082 300.093 216.844L300.093 216.844L300.098 216.85C300.454 217.229 301.352 218.126 302.49 218.847C303.632 219.57 304.992 220.101 306.284 219.787C306.524 219.728 306.763 219.64 306.998 219.519C306.998 219.519 306.998 219.519 306.998 219.519L311.905 216.926L311.906 216.926C312.779 216.474 313.281 216.249 313.648 216.151C314.024 216.05 314.259 216.081 314.583 216.124L314.586 216.124L314.571 216.237L314.586 216.124L314.587 216.124C315.24 216.211 316.226 216.342 318.1 216.105L318.1 216.105C318.201 216.093 318.301 216.079 318.402 216.063L318.565 216.038L318.53 216.199C318.244 217.522 317.801 219.29 317.391 220.927C316.592 224.114 315.599 228.078 314.779 232.249C313.983 236.302 314.94 238.665 315.455 239.938L315.456 239.94C315.508 240.069 315.574 240.231 315.619 240.353L315.631 240.388L315.621 240.424L314.934 242.819L329.824 239.195L318.522 192.597C317.84 192.168 317.149 191.897 316.526 191.727L316.526 191.727C314.672 191.221 313.085 191.518 312.915 191.552C312.915 191.552 312.915 191.552 312.915 191.552L311.278 191.885L312.451 196.847L312.471 196.931L312.397 196.973C311.662 197.387 310.977 197.888 310.349 198.471C307.212 201.387 304.463 205.012 302.451 207.666L302.447 207.672C301.419 209.026 300.526 210.205 299.916 210.843Z" stroke="url(#paint25_radial_729_10567)" stroke-width="0.227019"/>
<path d="M344.748 227.104L311.876 235.049C309.978 235.507 308.811 237.425 309.275 239.323L310.798 245.545L350.554 235.936L349.032 229.715C348.568 227.816 346.646 226.645 344.748 227.104Z" fill="#4F9BFA" stroke="url(#paint26_radial_729_10567)" stroke-width="0.227019"/>
<path d="M311.851 234.934L327.942 231.038L330.352 240.918L310.707 245.674L309.164 239.345C308.686 237.387 309.892 235.408 311.851 234.934Z" fill="#245089"/>
<path d="M315.238 207.624C316.117 207.411 316.771 206.435 316.51 205.539C316.248 204.64 315.364 204.041 314.422 204.269C313.544 204.482 312.889 205.458 313.15 206.354C313.412 207.253 314.296 207.852 315.238 207.624Z" fill="#245089"/>
<path opacity="0.89" d="M314.434 206.5C314.902 206.387 315.249 205.868 315.111 205.392C314.971 204.914 314.501 204.595 314 204.716C313.533 204.83 313.185 205.349 313.324 205.825C313.463 206.303 313.933 206.622 314.434 206.5Z" fill="url(#paint27_radial_729_10567)"/>
<path d="M352.958 233.106L307.312 244.114L308.137 247.474L353.784 236.466L352.958 233.106Z" fill="#245089"/>
<path d="M329.788 238.688L307.314 244.114L308.137 247.472L330.611 242.046L329.788 238.688Z" fill="#245089"/>
</g>
</g>
<g filter="url(#filter0_ddd_729_10567)">
<path fill-rule="evenodd" clip-rule="evenodd" d="M635.344 1137.21C572.873 1268.59 762.367 5482.21 637.059 5556.05C510.757 5630.48 -30.0744 5661.68 -164.639 5603.66C-282.909 5552.66 -137.379 1305.68 -237.076 1224.13C-359.188 1124.26 -576.702 1123.25 -624.356 972.827C-670.948 825.753 -537.217 683.099 -448.468 556.853C-369.374 444.342 -275.222 337.667 -145.602 291.8C-23.5222 248.602 85.8222 295.446 215.195 300.5C374.621 306.727 600.571 222.865 724.632 323.165C847.611 422.591 814.41 618.53 801.976 776.254C791.301 911.668 693.684 1014.53 635.344 1137.21Z" fill="white"/>
</g>
</g>
</g>
<defs>
<filter id="filter0_ddd_729_10567" x="-884.471" y="-13.0524" width="1950.55" height="5861.28" filterUnits="userSpaceOnUse" color-interpolation-filters="sRGB">
<feFlood flood-opacity="0" result="BackgroundImageFix"/>
<feColorMatrix in="SourceAlpha" type="matrix" values="0 0 0 0 0 0 0 0 0 0 0 0 0 0 0 0 0 0 127 0" result="hardAlpha"/>
<feOffset dy="-36.0763"/>
<feGaussianBlur stdDeviation="30.0636"/>
<feColorMatrix type="matrix" values="0 0 0 0 0.00555554 0 0 0 0 0.111632 0 0 0 0 0.266667 0 0 0 0.05 0"/>
<feBlend mode="normal" in2="BackgroundImageFix" result="effect1_dropShadow_729_10567"/>
<feColorMatrix in="SourceAlpha" type="matrix" values="0 0 0 0 0 0 0 0 0 0 0 0 0 0 0 0 0 0 127 0" result="hardAlpha"/>
<feOffset dy="-36.0763"/>
<feGaussianBlur stdDeviation="125.265"/>
<feColorMatrix type="matrix" values="0 0 0 0 0 0 0 0 0 0.25875 0 0 0 0 0.5625 0 0 0 0.12 0"/>
<feBlend mode="normal" in2="effect1_dropShadow_729_10567" result="effect2_dropShadow_729_10567"/>
<feColorMatrix in="SourceAlpha" type="matrix" values="0 0 0 0 0 0 0 0 0 0 0 0 0 0 0 0 0 0 127 0" result="hardAlpha"/>
<feOffset dy="-12.0254"/>
<feGaussianBlur stdDeviation="2.00424"/>
<feColorMatrix type="matrix" values="0 0 0 0 0.00392157 0 0 0 0 0.054902 0 0 0 0 0.129412 0 0 0 0.06 0"/>
<feBlend mode="normal" in2="effect2_dropShadow_729_10567" result="effect3_dropShadow_729_10567"/>
<feBlend mode="normal" in="SourceGraphic" in2="effect3_dropShadow_729_10567" result="shape"/>
</filter>
<radialGradient id="paint0_radial_729_10567" cx="0" cy="0" r="1" gradientUnits="userSpaceOnUse" gradientTransform="translate(275.693 21.1481) rotate(87.6639) scale(97.0487 188.562)">
<stop stop-color="#60D7FD"/>
<stop offset="1" stop-color="#60D7FD" stop-opacity="0"/>
</radialGradient>
<linearGradient id="paint1_linear_729_10567" x1="384.479" y1="21.9314" x2="384.479" y2="139.108" gradientUnits="userSpaceOnUse">
<stop stop-color="#40A3FF"/>
<stop offset="1" stop-color="#60D7FD" stop-opacity="0"/>
</linearGradient>
<linearGradient id="paint2_linear_729_10567" x1="384.479" y1="0.469994" x2="384.479" y2="111.067" gradientUnits="userSpaceOnUse">
<stop stop-color="#2BCAFC"/>
<stop offset="1" stop-color="#60D7FD" stop-opacity="0"/>
</linearGradient>
<radialGradient id="paint3_radial_729_10567" cx="0" cy="0" r="1" gradientUnits="userSpaceOnUse" gradientTransform="translate(187.5 362.99) rotate(-90) scale(322.97)">
<stop stop-color="#C1F4FF"/>
<stop offset="1" stop-color="white" stop-opacity="0"/>
</radialGradient>
<radialGradient id="paint4_radial_729_10567" cx="0" cy="0" r="1" gradientUnits="userSpaceOnUse" gradientTransform="translate(187.5 362.99) rotate(-90) scale(291.059)">
<stop stop-color="#C1F4FF"/>
<stop offset="1" stop-color="white" stop-opacity="0"/>
</radialGradient>
<radialGradient id="paint5_radial_729_10567" cx="0" cy="0" r="1" gradientUnits="userSpaceOnUse" gradientTransform="translate(187.5 362.99) rotate(-90) scale(269.151)">
<stop stop-color="#C1F4FF"/>
<stop offset="1" stop-color="white" stop-opacity="0"/>
</radialGradient>
<linearGradient id="paint6_linear_729_10567" x1="11.3428" y1="205.678" x2="12.6117" y2="214.987" gradientUnits="userSpaceOnUse">
<stop stop-color="white"/>
<stop offset="0.567945" stop-color="white" stop-opacity="0"/>
</linearGradient>
<radialGradient id="paint7_radial_729_10567" cx="0" cy="0" r="1" gradientUnits="userSpaceOnUse" gradientTransform="translate(5.6698 208.997) rotate(58.4248) scale(2.26372 6.28078)">
<stop stop-color="#245089"/>
<stop offset="1" stop-color="#245089" stop-opacity="0"/>
</radialGradient>
<radialGradient id="paint8_radial_729_10567" cx="0" cy="0" r="1" gradientUnits="userSpaceOnUse" gradientTransform="translate(12.0223 187.172) rotate(133.942) scale(2.07479 9.84204)">
<stop stop-color="white"/>
<stop offset="0.460906" stop-color="white" stop-opacity="0"/>
</radialGradient>
<radialGradient id="paint9_radial_729_10567" cx="0" cy="0" r="1" gradientUnits="userSpaceOnUse" gradientTransform="translate(14.949 197.016) rotate(-129.141) scale(2.88256 1.57357)">
<stop stop-color="#3773C0"/>
<stop offset="1" stop-opacity="0"/>
</radialGradient>
<radialGradient id="paint10_radial_729_10567" cx="0" cy="0" r="1" gradientUnits="userSpaceOnUse" gradientTransform="translate(20.0406 207.212) rotate(85.8228) scale(3.45243 9.64437)">
<stop stop-color="#245089"/>
<stop offset="1" stop-color="#245089" stop-opacity="0"/>
</radialGradient>
<radialGradient id="paint11_radial_729_10567" cx="0" cy="0" r="1" gradientUnits="userSpaceOnUse" gradientTransform="translate(13.5551 198.895) rotate(144.386) scale(10.021 4.11419)">
<stop stop-color="#3773C0"/>
<stop offset="1" stop-opacity="0"/>
</radialGradient>
<radialGradient id="paint12_radial_729_10567" cx="0" cy="0" r="1" gradientUnits="userSpaceOnUse" gradientTransform="translate(7.66952 203.715) rotate(167.904) scale(1.62588 4.96956)">
<stop stop-color="#3773C0"/>
<stop offset="1" stop-opacity="0"/>
</radialGradient>
<linearGradient id="paint13_linear_729_10567" x1="85.1855" y1="466.189" x2="382.191" y2="355.024" gradientUnits="userSpaceOnUse">
<stop stop-color="#D1D451"/>
<stop offset="1" stop-color="#EAEC99"/>
</linearGradient>
<radialGradient id="paint14_radial_729_10567" cx="0" cy="0" r="1" gradientUnits="userSpaceOnUse" gradientTransform="translate(25.7171 212.984) rotate(94.9669) scale(7.8774 27.2982)">
<stop stop-color="#245089"/>
<stop offset="1" stop-color="#245089" stop-opacity="0"/>
</radialGradient>
<linearGradient id="paint15_linear_729_10567" x1="71.2546" y1="158.046" x2="60.6042" y2="152.265" gradientUnits="userSpaceOnUse">
<stop stop-color="#245089"/>
<stop offset="0.421741" stop-color="#245089"/>
<stop offset="0.780889" stop-color="#245089" stop-opacity="0"/>
</linearGradient>
<radialGradient id="paint16_radial_729_10567" cx="0" cy="0" r="1" gradientUnits="userSpaceOnUse" gradientTransform="translate(412.07 254.508) rotate(132.41) scale(180.928 185.902)">
<stop stop-color="#CCD156"/>
<stop offset="1" stop-color="#CCD156" stop-opacity="0"/>
</radialGradient>
<linearGradient id="paint17_linear_729_10567" x1="540.604" y1="401.388" x2="198.311" y2="389.968" gradientUnits="userSpaceOnUse">
<stop stop-color="#498BDF"/>
<stop offset="1" stop-color="#498BDF" stop-opacity="0"/>
</linearGradient>
<linearGradient id="paint18_linear_729_10567" x1="623.958" y1="637.041" x2="340.722" y2="258.081" gradientUnits="userSpaceOnUse">
<stop stop-color="white"/>
<stop offset="0.749731" stop-color="white" stop-opacity="0"/>
</linearGradient>
<linearGradient id="paint19_linear_729_10567" x1="325.024" y1="221.829" x2="321.983" y2="248.5" gradientUnits="userSpaceOnUse">
<stop stop-color="#2EA2F4"/>
<stop offset="1" stop-color="#2EA2F4" stop-opacity="0"/>
</linearGradient>
<linearGradient id="paint20_linear_729_10567" x1="324.902" y1="224.288" x2="322.59" y2="244.556" gradientUnits="userSpaceOnUse">
<stop stop-color="#2EC3F4"/>
<stop offset="1" stop-color="#2EC3F4" stop-opacity="0"/>
</linearGradient>
<linearGradient id="paint21_linear_729_10567" x1="106.791" y1="229.325" x2="100.525" y2="248.146" gradientUnits="userSpaceOnUse">
<stop stop-color="#2EA2F4"/>
<stop offset="1" stop-color="#2EA2F4" stop-opacity="0"/>
</linearGradient>
<linearGradient id="paint22_linear_729_10567" x1="409.76" y1="426.79" x2="67.4668" y2="415.369" gradientUnits="userSpaceOnUse">
<stop stop-color="#498BDF"/>
<stop offset="1" stop-color="#498BDF" stop-opacity="0"/>
</linearGradient>
<linearGradient id="paint23_linear_729_10567" x1="493.114" y1="662.443" x2="209.878" y2="283.483" gradientUnits="userSpaceOnUse">
<stop stop-color="white"/>
<stop offset="0.749731" stop-color="white" stop-opacity="0"/>
</linearGradient>
<radialGradient id="paint24_radial_729_10567" cx="0" cy="0" r="1" gradientUnits="userSpaceOnUse" gradientTransform="translate(318.531 217.193) rotate(154.735) scale(30.0037 14.4878)">
<stop stop-color="#3773C0"/>
<stop offset="1" stop-opacity="0"/>
</radialGradient>
<radialGradient id="paint25_radial_729_10567" cx="0" cy="0" r="1" gradientUnits="userSpaceOnUse" gradientTransform="translate(308.81 197.082) rotate(96.5109) scale(15.5516 7.54014)">
<stop stop-color="white"/>
<stop offset="1" stop-color="white" stop-opacity="0"/>
</radialGradient>
<radialGradient id="paint26_radial_729_10567" cx="0" cy="0" r="1" gradientUnits="userSpaceOnUse" gradientTransform="translate(345.953 226.873) rotate(81.5124) scale(5.14134 20.7911)">
<stop stop-color="#245089"/>
<stop offset="1" stop-color="#245089" stop-opacity="0"/>
</radialGradient>
<radialGradient id="paint27_radial_729_10567" cx="0" cy="0" r="1" gradientUnits="userSpaceOnUse" gradientTransform="translate(314.217 205.608) rotate(76.331) scale(0.917984 0.920039)">
<stop offset="0.436076" stop-color="white"/>
<stop offset="1" stop-color="white" stop-opacity="0"/>
</radialGradient>
<clipPath id="clip0_729_10567">
<rect width="375" height="302" fill="white"/>
</clipPath>
<clipPath id="clip1_729_10567">
<rect width="375" height="5575" fill="white"/>
</clipPath>
<clipPath id="clip2_729_10567">
<rect width="779" height="305" fill="white" transform="translate(-202)"/>
</clipPath>
<clipPath id="clip3_729_10567">
<rect width="779" height="1580" fill="white" transform="translate(-202)"/>
</clipPath>
</defs>
</svg>
