<svg width="189" height="180" viewBox="0 0 189 180" fill="none" xmlns="http://www.w3.org/2000/svg">
<path opacity="0.15" d="M88.8657 3.6104C91.389 -0.693584 97.611 -0.693583 100.134 3.6104L126.961 49.369C127.882 50.9396 129.417 52.0546 131.195 52.445L183.004 63.8189C187.877 64.8887 189.8 70.8063 186.486 74.5361L151.258 114.19C150.048 115.551 149.462 117.356 149.64 119.167L154.833 171.956C155.321 176.921 150.288 180.578 145.716 178.579L97.1167 157.328C95.4485 156.599 93.5515 156.599 91.8833 157.328L43.2836 178.579C38.7123 180.578 33.6786 176.921 34.167 171.956L39.3597 119.167C39.5379 117.356 38.9517 115.551 37.7425 114.19L2.51352 74.5361C-0.800062 70.8062 1.12265 64.8887 5.99573 63.8189L57.8048 52.445C59.5831 52.0546 61.1177 50.9396 62.0386 49.369L88.8657 3.6104Z" fill="#FFCE38"/>
</svg>
